Georama-Bold.ufo
<glyph name="exclam" format="2">
  <advance width="254.04"/>
  <unicode hex="0021"/>
  <outline>
    <contour>
      <point x="57.52000000000001" y="260.5" type="line"/>
      <point x="197.64" y="260.5" type="line"/>
      <point x="209.96" y="740.0" type="line"/>
      <point x="46.46" y="740.0" type="line"/>
    </contour>
    <contour>
      <point x="37.760000000000005" y="78.88" type="curve" smooth="yes"/>
      <point x="37.760000000000005" y="20.319999999999997"/>
      <point x="62.54000000000001" y="-7.28"/>
      <point x="127.02" y="-7.28" type="curve" smooth="yes"/>
      <point x="191.8" y="-7.28"/>
      <point x="216.27999999999997" y="20.319999999999997"/>
      <point x="216.27999999999997" y="78.88" type="curve" smooth="yes"/>
      <point x="216.27999999999997" y="138.14"/>
      <point x="191.8" y="165.73999999999998"/>
      <point x="127.02" y="165.73999999999998" type="curve" smooth="yes"/>
      <point x="62.24" y="165.73999999999998"/>
      <point x="37.760000000000005" y="138.14"/>
    </contour>
  </outline>
</glyph>
<glyph name="numbersign" format="2">
  <advance width="639.48"/>
  <unicode hex="0023"/>
  <outline>
    <contour>
      <point x="71.75999999999999" y="424.36" type="line"/>
      <point x="143.28" y="424.36" type="line"/>
      <point x="118.84000000000002" y="271.26" type="line"/>
      <point x="48.22" y="271.26" type="line"/>
      <point x="48.22" y="153.36" type="line"/>
      <point x="103.76" y="153.36" type="line"/>
      <point x="82.13999999999999" y="0.0" type="line"/>
      <point x="227.44000000000003" y="0.0" type="line"/>
      <point x="249.06" y="153.36" type="line"/>
      <point x="337.28000000000003" y="153.36" type="line"/>
      <point x="315.66" y="0.0" type="line"/>
      <point x="460.96" y="0.0" type="line"/>
      <point x="482.58000000000004" y="153.36" type="line"/>
      <point x="568.0" y="153.36" type="line"/>
      <point x="568.0" y="271.26" type="line"/>
      <point x="497.65999999999997" y="271.26" type="line"/>
      <point x="522.1" y="424.36" type="line"/>
      <point x="591.5400000000001" y="424.36" type="line"/>
      <point x="591.5400000000001" y="542.54" type="line"/>
      <point x="536.96" y="542.54" type="line"/>
      <point x="559.4399999999999" y="700.0" type="line"/>
      <point x="414.14" y="700.0" type="line"/>
      <point x="391.65999999999997" y="542.54" type="line"/>
      <point x="303.44" y="542.54" type="line"/>
      <point x="325.9200000000001" y="700.0" type="line"/>
      <point x="180.62" y="700.0" type="line"/>
      <point x="158.14000000000001" y="542.54" type="line"/>
      <point x="71.75999999999999" y="542.54" type="line"/>
    </contour>
    <contour>
      <point x="288.58" y="424.36" type="line"/>
      <point x="376.8" y="424.36" type="line"/>
      <point x="352.36" y="271.26" type="line"/>
      <point x="264.14" y="271.26" type="line"/>
    </contour>
  </outline>
</glyph>
<glyph name="dollar" format="2">
  <advance width="639.48"/>
  <unicode hex="0024"/>
  <outline>
    <contour>
      <point x="288.62" y="-10.0" type="curve" smooth="yes"/>
      <point x="466.82000000000005" y="-13.2"/>
      <point x="597.0200000000001" y="43.8"/>
      <point x="597.0200000000001" y="196.12" type="curve" smooth="yes"/>
      <point x="597.0200000000001" y="320.2"/>
      <point x="511.36000000000007" y="374.7"/>
      <point x="393.21999999999997" y="411.62" type="curve" smooth="yes"/>
      <point x="288.34000000000003" y="443.00000000000006"/>
      <point x="229.65999999999997" y="461.25999999999993"/>
      <point x="229.65999999999997" y="514.46" type="curve" smooth="yes"/>
      <point x="229.65999999999997" y="555.48"/>
      <point x="265.78" y="574.0"/>
      <point x="341.90000000000003" y="574.0" type="curve" smooth="yes"/>
      <point x="407.24" y="574.0"/>
      <point x="483.1" y="562.7199999999999"/>
      <point x="536.1999999999999" y="544.94" type="curve"/>
      <point x="565.5200000000001" y="675.4" type="line"/>
      <point x="506.38000000000005" y="695.3399999999999"/>
      <point x="420.14" y="710.0"/>
      <point x="336.64000000000004" y="710.0" type="curve" smooth="yes"/>
      <point x="167.02000000000004" y="709.76"/>
      <point x="62.120000000000005" y="642.12"/>
      <point x="62.120000000000005" y="505.42" type="curve" smooth="yes"/>
      <point x="62.120000000000005" y="388.73999999999995"/>
      <point x="136.54000000000002" y="331.76"/>
      <point x="234.82000000000002" y="294.22" type="curve" smooth="yes"/>
      <point x="353.65999999999997" y="255.0"/>
      <point x="429.16" y="237.79999999999998"/>
      <point x="429.16" y="184.08" type="curve" smooth="yes"/>
      <point x="429.16" y="142.48000000000002"/>
      <point x="391.22" y="121.74"/>
      <point x="311.68" y="121.74" type="curve" smooth="yes"/>
      <point x="240.66" y="121.74"/>
      <point x="151.82000000000002" y="137.38000000000002"/>
      <point x="72.7" y="164.29999999999998" type="curve"/>
      <point x="42.86000000000001" y="34.82" type="line"/>
      <point x="110.76" y="9.360000000000001"/>
      <point x="205.42000000000002" y="-8.719999999999999"/>
    </contour>
    <contour>
      <point x="262.58" y="-105.0" type="line"/>
      <point x="392.6" y="-105.0" type="line"/>
      <point x="392.6" y="13.139999999999997" type="line"/>
      <point x="262.58" y="5.679999999999999" type="line"/>
    </contour>
    <contour>
      <point x="262.58" y="687.28" type="line"/>
      <point x="392.6" y="694.76" type="line"/>
      <point x="392.6" y="804.16" type="line"/>
      <point x="262.58" y="804.16" type="line"/>
    </contour>
  </outline>
</glyph>
<glyph name="ampersand" format="2">
  <advance width="718.04"/>
  <unicode hex="0026"/>
  <outline>
    <contour>
      <point x="525.72" y="-3.600000000000001" type="line"/>
      <point x="715.2799999999999" y="-1.3877787807814457e-17" type="line"/>
      <point x="328.59999999999997" y="427.08" type="line" smooth="yes"/>
      <point x="290.76000000000005" y="467.8399999999999"/>
      <point x="278.28" y="494.68"/>
      <point x="278.28" y="521.9600000000002" type="curve" smooth="yes"/>
      <point x="278.28" y="561.64"/>
      <point x="301.99999999999994" y="582.96"/>
      <point x="349.99999999999994" y="582.96" type="curve" smooth="yes"/>
      <point x="394.84000000000003" y="582.96"/>
      <point x="416.64" y="561.8800000000001"/>
      <point x="416.64" y="521.6799999999998" type="curve" smooth="yes"/>
      <point x="416.64" y="491.11999999999995"/>
      <point x="405.96" y="470.68"/>
      <point x="382.08000000000004" y="453.71999999999997" type="curve"/>
      <point x="445.40000000000003" y="380.08000000000004" type="line"/>
      <point x="528.72" y="414.96000000000004"/>
      <point x="563.12" y="472.52"/>
      <point x="563.12" y="547.4800000000001" type="curve" smooth="yes"/>
      <point x="563.12" y="655.1599999999999"/>
      <point x="487.6" y="710.0"/>
      <point x="345.03999999999996" y="710.0" type="curve" smooth="yes"/>
      <point x="180.84" y="710.0"/>
      <point x="110.52000000000001" y="636.3599999999998"/>
      <point x="110.52000000000001" y="522.2800000000001" type="curve" smooth="yes"/>
      <point x="110.52000000000001" y="465.96000000000004"/>
      <point x="129.91999999999996" y="414.84000000000003"/>
      <point x="177.84" y="361.48" type="curve" smooth="yes"/>
    </contour>
    <contour>
      <point x="288.64000000000004" y="-10.0" type="curve" smooth="yes"/>
      <point x="375.88000000000005" y="-10.0"/>
      <point x="441.3999999999999" y="14.719999999999999"/>
      <point x="493.28" y="61.280000000000015" type="curve"/>
      <point x="415.52000000000004" y="153.16" type="line"/>
      <point x="394.23999999999995" y="127.64"/>
      <point x="363.6" y="111.31999999999998"/>
      <point x="310.79999999999995" y="111.31999999999998" type="curve" smooth="yes"/>
      <point x="234.75999999999996" y="111.31999999999998"/>
      <point x="183.79999999999998" y="152.95999999999998"/>
      <point x="183.79999999999998" y="213.28" type="curve" smooth="yes"/>
      <point x="183.79999999999998" y="259.43999999999994"/>
      <point x="204.92000000000002" y="287.4800000000001"/>
      <point x="246.88" y="310.72" type="curve"/>
      <point x="172.24" y="399.76" type="line"/>
      <point x="72.60000000000001" y="356.12000000000006"/>
      <point x="28.320000000000004" y="288.56"/>
      <point x="28.320000000000004" y="196.76" type="curve" smooth="yes"/>
      <point x="28.320000000000004" y="70.44000000000001"/>
      <point x="124.96" y="-10.0"/>
    </contour>
    <contour>
      <point x="587.1199999999999" y="119.00000000000001" type="line"/>
      <point x="631.36" y="173.35999999999999"/>
      <point x="657.0400000000001" y="237.64"/>
      <point x="657.0400000000001" y="309.44" type="curve" smooth="yes"/>
      <point x="657.0400000000001" y="331.03999999999996"/>
      <point x="655.44" y="346.48"/>
      <point x="652.9999999999999" y="364.0" type="curve"/>
      <point x="522.08" y="362.8" type="line"/>
      <point x="524.12" y="348.79999999999995"/>
      <point x="524.8000000000001" y="335.52"/>
      <point x="523.5600000000001" y="320.88" type="curve" smooth="yes"/>
      <point x="521.6800000000001" y="284.88"/>
      <point x="512.0" y="255.68000000000004"/>
      <point x="491.64000000000004" y="231.47999999999996" type="curve"/>
    </contour>
  </outline>
</glyph>
<glyph name="quotesingle" format="2">
  <advance width="212.26"/>
  <unicode hex="0027"/>
  <outline>
    <contour>
      <point x="40.0" y="427.0" type="line"/>
      <point x="171.0" y="427.0" type="line"/>
      <point x="179.07999999999998" y="700.0" type="line"/>
      <point x="33.18000000000001" y="700.0" type="line"/>
    </contour>
  </outline>
</glyph>
<glyph name="parenleft" format="2">
  <advance width="327.08000000000004"/>
  <unicode hex="0028"/>
  <outline>
    <contour>
      <point x="44.60000000000001" y="265.0" type="curve" smooth="yes"/>
      <point x="44.60000000000001" y="1.6799999999999997"/>
      <point x="121.42" y="-194.6"/>
      <point x="308.09999999999997" y="-220.18" type="curve"/>
      <point x="308.09999999999997" y="-99.88" type="line"/>
      <point x="213.90000000000003" y="-64.08000000000001"/>
      <point x="177.52" y="37.86"/>
      <point x="177.52" y="265.0" type="curve" smooth="yes"/>
      <point x="177.52" y="492.14000000000004"/>
      <point x="213.90000000000003" y="594.08"/>
      <point x="308.09999999999997" y="629.8800000000001" type="curve"/>
      <point x="308.09999999999997" y="750.18" type="line"/>
      <point x="121.42" y="724.6"/>
      <point x="44.60000000000001" y="528.32"/>
    </contour>
  </outline>
</glyph>
<glyph name="parenright" format="2">
  <advance width="327.08000000000004"/>
  <unicode hex="0029"/>
  <outline>
    <contour>
      <point x="18.980000000000004" y="-99.88" type="curve"/>
      <point x="18.980000000000004" y="-220.18" type="line"/>
      <point x="205.66" y="-194.6"/>
      <point x="282.48" y="1.6799999999999997"/>
      <point x="282.48" y="265.0" type="curve" smooth="yes"/>
      <point x="282.48" y="528.32"/>
      <point x="205.66" y="724.6"/>
      <point x="18.980000000000004" y="750.18" type="curve"/>
      <point x="18.980000000000004" y="629.8800000000001" type="line"/>
      <point x="113.18" y="594.08"/>
      <point x="149.56" y="492.14000000000004"/>
      <point x="149.56" y="265.0" type="curve" smooth="yes"/>
      <point x="149.56" y="37.86"/>
      <point x="113.18" y="-64.08000000000001"/>
    </contour>
  </outline>
</glyph>
<glyph name="asterisk" format="2">
  <advance width="371.48"/>
  <unicode hex="002A"/>
  <outline>
    <contour>
      <point x="111.24" y="367.68" type="line"/>
      <point x="185.86" y="457.52000000000004" type="line"/>
      <point x="260.0" y="367.56" type="line"/>
      <point x="318.58000000000004" y="408.23999999999995" type="line"/>
      <point x="259.46000000000004" y="510.62" type="line"/>
      <point x="363.47999999999996" y="558.0999999999999" type="line"/>
      <point x="341.04" y="625.36" type="line"/>
      <point x="231.23999999999998" y="598.22" type="line"/>
      <point x="222.42" y="716.02" type="line"/>
      <point x="149.3" y="716.02" type="line"/>
      <point x="140.48000000000002" y="598.22" type="line"/>
      <point x="30.439999999999994" y="625.36" type="line"/>
      <point x="7.999999999999998" y="558.0999999999999" type="line"/>
      <point x="112.26000000000002" y="510.62" type="line"/>
      <point x="52.540000000000006" y="408.47999999999996" type="line"/>
    </contour>
  </outline>
</glyph>
<glyph name="plus" format="2">
  <advance width="529.16"/>
  <unicode hex="002B"/>
  <outline>
    <contour>
      <point x="193.54" y="114.41999999999999" type="line"/>
      <point x="335.34" y="114.41999999999999" type="line"/>
      <point x="335.34" y="249.59999999999997" type="line"/>
      <point x="480.13999999999993" y="249.59999999999997" type="line"/>
      <point x="480.13999999999993" y="380.2" type="line"/>
      <point x="335.34" y="380.2" type="line"/>
      <point x="335.34" y="515.1" type="line"/>
      <point x="193.54" y="515.1" type="line"/>
      <point x="193.54" y="380.2" type="line"/>
      <point x="49.02" y="380.2" type="line"/>
      <point x="49.02" y="249.59999999999997" type="line"/>
      <point x="193.54" y="249.59999999999997" type="line"/>
    </contour>
  </outline>
</glyph>
<glyph name="comma" format="2">
  <advance width="235.92000000000002"/>
  <unicode hex="002C"/>
  <outline>
    <contour>
      <point x="41.86000000000001" y="87.18" type="line"/>
      <point x="47.400000000000006" y="57.8"/>
      <point x="49.120000000000005" y="30.299999999999997"/>
      <point x="49.120000000000005" y="12.859999999999996" type="curve" smooth="yes"/>
      <point x="49.120000000000005" y="-46.0"/>
      <point x="30.220000000000002" y="-111.39999999999999"/>
      <point x="-11.639999999999997" y="-164.57999999999998" type="curve"/>
      <point x="111.27999999999999" y="-191.06" type="line"/>
      <point x="174.2" y="-126.84000000000002"/>
      <point x="202.95999999999998" y="-59.10000000000001"/>
      <point x="202.95999999999998" y="13.239999999999997" type="curve" smooth="yes"/>
      <point x="202.95999999999998" y="43.64"/>
      <point x="198.06" y="68.97999999999999"/>
      <point x="191.14" y="90.22" type="curve"/>
    </contour>
  </outline>
</glyph>
<glyph name="hyphen" format="2">
  <advance width="353.46"/>
  <unicode hex="002D"/>
  <outline>
    <contour>
      <point x="37.94" y="240.3" type="line"/>
      <point x="315.52" y="240.3" type="line"/>
      <point x="315.52" y="377.62" type="line"/>
      <point x="37.94" y="377.62" type="line"/>
    </contour>
  </outline>
</glyph>
<glyph name="period" format="2">
  <advance width="240.4"/>
  <unicode hex="002E"/>
  <outline>
    <contour>
      <point x="31.000000000000007" y="80.14" type="curve" smooth="yes"/>
      <point x="31.000000000000007" y="21.58"/>
      <point x="55.78" y="-6.02"/>
      <point x="120.26" y="-6.02" type="curve" smooth="yes"/>
      <point x="185.03999999999996" y="-6.02"/>
      <point x="209.52" y="21.58"/>
      <point x="209.52" y="80.14" type="curve" smooth="yes"/>
      <point x="209.52" y="139.39999999999998"/>
      <point x="185.03999999999996" y="166.99999999999997"/>
      <point x="120.26" y="166.99999999999997" type="curve" smooth="yes"/>
      <point x="55.48" y="166.99999999999997"/>
      <point x="31.000000000000007" y="139.39999999999998"/>
    </contour>
  </outline>
</glyph>
<glyph name="slash" format="2">
  <advance width="431.64"/>
  <unicode hex="002F"/>
  <outline>
    <contour>
      <point x="0.16000000000000103" y="-210.0" type="line"/>
      <point x="131.8" y="-210.0" type="line"/>
      <point x="431.48" y="740.0" type="line"/>
      <point x="299.42" y="740.0" type="line"/>
    </contour>
  </outline>
</glyph>
<glyph name="zero" format="2">
  <advance width="639.48"/>
  <unicode hex="0030"/>
  <outline>
    <contour>
      <point x="26.840000000000003" y="350.0" type="curve" smooth="yes"/>
      <point x="26.840000000000003" y="75.47999999999999"/>
      <point x="143.58" y="-10.0"/>
      <point x="319.74" y="-10.0" type="curve" smooth="yes"/>
      <point x="494.88" y="-10.0"/>
      <point x="612.6400000000001" y="77.16"/>
      <point x="612.6400000000001" y="350.0" type="curve" smooth="yes"/>
      <point x="612.6400000000001" y="623.4399999999999"/>
      <point x="501.18" y="710.0"/>
      <point x="319.74" y="710.0" type="curve" smooth="yes"/>
      <point x="142.32000000000002" y="710.0"/>
      <point x="26.840000000000003" y="626.8"/>
    </contour>
    <contour>
      <point x="195.49999999999997" y="344.53999999999996" type="curve" smooth="yes"/>
      <point x="195.49999999999997" y="547.42"/>
      <point x="249.22" y="581.3199999999999"/>
      <point x="319.74" y="581.3199999999999" type="curve" smooth="yes"/>
      <point x="390.50000000000006" y="581.3199999999999"/>
      <point x="444.22" y="547.84"/>
      <point x="444.22" y="344.53999999999996" type="curve" smooth="yes"/>
      <point x="444.22" y="155.27999999999997"/>
      <point x="391.76000000000005" y="118.67999999999998"/>
      <point x="319.74" y="118.67999999999998" type="curve" smooth="yes"/>
      <point x="247.96" y="118.67999999999998"/>
      <point x="195.49999999999997" y="154.85999999999999"/>
    </contour>
  </outline>
</glyph>
<glyph name="one" format="2">
  <advance width="639.48"/>
  <unicode hex="0031"/>
  <outline>
    <contour>
      <point x="87.16" y="0.0" type="line"/>
      <point x="594.34" y="0.0" type="line"/>
      <point x="594.34" y="132.0" type="line"/>
      <point x="437.94000000000005" y="132.0" type="line"/>
      <point x="437.94000000000005" y="701.2" type="line"/>
      <point x="354.4" y="701.2" type="line"/>
      <point x="70.2" y="590.16" type="line"/>
      <point x="104.53999999999999" y="450.38" type="line"/>
      <point x="271.78000000000003" y="519.14" type="line"/>
      <point x="271.78000000000003" y="132.0" type="line"/>
      <point x="87.16" y="132.0" type="line"/>
    </contour>
  </outline>
</glyph>
<glyph name="two" format="2">
  <advance width="640.36"/>
  <unicode hex="0032"/>
  <outline>
    <contour>
      <point x="55.88" y="111.08" type="curve"/>
      <point x="57.84" y="0.0" type="line"/>
      <point x="590.84" y="0.0" type="line"/>
      <point x="590.84" y="132.6" type="line"/>
      <point x="295.15999999999997" y="132.6" type="line"/>
      <point x="502.72" y="316.79999999999995"/>
      <point x="540.2800000000001" y="382.52"/>
      <point x="540.2800000000001" y="491.32000000000005" type="curve" smooth="yes"/>
      <point x="540.2800000000001" y="622.84"/>
      <point x="449.20000000000005" y="710.0"/>
      <point x="295.28" y="710.0" type="curve" smooth="yes"/>
      <point x="208.84" y="710.0"/>
      <point x="117.92000000000002" y="684.6400000000001"/>
      <point x="51.16000000000001" y="642.12" type="curve"/>
      <point x="101.68" y="504.24000000000007" type="line"/>
      <point x="156.32" y="533.6"/>
      <point x="208.68" y="548.0"/>
      <point x="255.72000000000003" y="548.0" type="curve" smooth="yes"/>
      <point x="325.59999999999997" y="548.0"/>
      <point x="364.9600000000001" y="512.12"/>
      <point x="364.9600000000001" y="450.52000000000004" type="curve" smooth="yes"/>
      <point x="364.9600000000001" y="370.47999999999996"/>
      <point x="294.88" y="296.15999999999997"/>
    </contour>
  </outline>
</glyph>
<glyph name="three" format="2">
  <advance width="640.2"/>
  <unicode hex="0033"/>
  <outline>
    <contour>
      <point x="32.4" y="44.2" type="line"/>
      <point x="108.19999999999999" y="5.8"/>
      <point x="181.4" y="-10.0"/>
      <point x="286.4" y="-10.0" type="curve" smooth="yes"/>
      <point x="476.8" y="-10.0"/>
      <point x="583.1999999999999" y="69.0"/>
      <point x="583.1999999999999" y="205.79999999999998" type="curve" smooth="yes"/>
      <point x="583.1999999999999" y="285.59999999999997"/>
      <point x="538.4" y="344.8"/>
      <point x="454.8" y="370.0" type="curve"/>
      <point x="523.1999999999999" y="398.8"/>
      <point x="561.8000000000001" y="455.4"/>
      <point x="561.8000000000001" y="527.2" type="curve" smooth="yes"/>
      <point x="561.8000000000001" y="641.4"/>
      <point x="466.0" y="710.0"/>
      <point x="296.8" y="710.0" type="curve" smooth="yes"/>
      <point x="196.6" y="710.0"/>
      <point x="106.60000000000001" y="691.0"/>
      <point x="48.2" y="657.4" type="curve"/>
      <point x="86.6" y="532.8" type="line"/>
      <point x="143.00000000000003" y="556.3999999999999"/>
      <point x="206.0" y="566.6"/>
      <point x="264.2" y="566.6" type="curve" smooth="yes"/>
      <point x="352.40000000000003" y="566.6"/>
      <point x="398.4" y="538.6"/>
      <point x="398.4" y="490.79999999999995" type="curve" smooth="yes"/>
      <point x="398.4" y="443.4"/>
      <point x="361.0" y="415.4"/>
      <point x="277.40000000000003" y="415.4" type="curve" smooth="yes"/>
      <point x="169.6" y="415.4" type="line"/>
      <point x="169.6" y="295.4" type="line"/>
      <point x="275.2" y="295.4" type="line" smooth="yes"/>
      <point x="369.4" y="295.4"/>
      <point x="416.0" y="269.79999999999995"/>
      <point x="416.0" y="217.0" type="curve" smooth="yes"/>
      <point x="416.0" y="157.20000000000002"/>
      <point x="370.79999999999995" y="126.8"/>
      <point x="271.40000000000003" y="126.8" type="curve" smooth="yes"/>
      <point x="198.0" y="126.8"/>
      <point x="130.4" y="139.8"/>
      <point x="76.2" y="163.8" type="curve"/>
    </contour>
  </outline>
</glyph>
<glyph name="four" format="2">
  <advance width="640.2"/>
  <unicode hex="0034"/>
  <outline>
    <contour>
      <point x="20.000000000000007" y="115.39999999999999" type="line"/>
      <point x="343.80000000000007" y="115.39999999999999" type="line"/>
      <point x="343.80000000000007" y="0.0" type="line"/>
      <point x="513.6" y="0.0" type="line"/>
      <point x="513.6" y="115.39999999999999" type="line"/>
      <point x="611.5999999999999" y="115.39999999999999" type="line"/>
      <point x="611.5999999999999" y="241.39999999999998" type="line"/>
      <point x="513.6" y="241.39999999999998" type="line"/>
      <point x="513.6" y="700.0" type="line"/>
      <point x="366.8" y="701.8" type="line"/>
      <point x="18.799999999999997" y="234.6" type="line"/>
    </contour>
    <contour>
      <point x="152.6" y="241.39999999999998" type="line"/>
      <point x="347.99999999999994" y="499.00000000000006" type="line"/>
      <point x="347.99999999999994" y="241.39999999999998" type="line"/>
    </contour>
  </outline>
</glyph>
<glyph name="five" format="2">
  <advance width="640.2"/>
  <unicode hex="0035"/>
  <outline>
    <contour>
      <point x="37.92" y="38.28" type="line"/>
      <point x="112.32000000000001" y="5.08"/>
      <point x="185.4" y="-9.999999999999998"/>
      <point x="281.35999999999996" y="-9.999999999999998" type="curve" smooth="yes"/>
      <point x="464.67999999999995" y="-9.999999999999998"/>
      <point x="591.44" y="67.60000000000001"/>
      <point x="591.44" y="227.2" type="curve" smooth="yes"/>
      <point x="591.44" y="368.2799999999999"/>
      <point x="500.9199999999999" y="424.4"/>
      <point x="334.36" y="426.08000000000004" type="curve" smooth="yes"/>
      <point x="233.6" y="426.56" type="line"/>
      <point x="248.2" y="560.9200000000001" type="line"/>
      <point x="554.56" y="560.9200000000001" type="line"/>
      <point x="554.56" y="700.0" type="line"/>
      <point x="125.16000000000001" y="700.0" type="line"/>
      <point x="79.4" y="315.44000000000005" type="line"/>
      <point x="89.08" y="304.6000000000001" type="line"/>
      <point x="260.71999999999997" y="304.6000000000001" type="line" smooth="yes"/>
      <point x="389.32" y="304.6000000000001"/>
      <point x="424.52" y="276.56"/>
      <point x="424.52" y="220.79999999999998" type="curve" smooth="yes"/>
      <point x="424.52" y="164.27999999999997"/>
      <point x="379.12" y="130.96"/>
      <point x="268.03999999999996" y="130.96" type="curve" smooth="yes"/>
      <point x="186.48000000000002" y="130.96"/>
      <point x="125.20000000000002" y="145.48"/>
      <point x="75.16" y="164.52" type="curve"/>
    </contour>
  </outline>
</glyph>
<glyph name="six" format="2">
  <advance width="640.2"/>
  <unicode hex="0036"/>
  <outline>
    <contour>
      <point x="325.59999999999997" y="-10.0" type="curve" smooth="yes"/>
      <point x="511.2000000000001" y="-10.0"/>
      <point x="606.4000000000001" y="72.99999999999999"/>
      <point x="606.4000000000001" y="232.39999999999998" type="curve" smooth="yes"/>
      <point x="606.4000000000001" y="369.59999999999997"/>
      <point x="529.0" y="447.20000000000005"/>
      <point x="383.59999999999997" y="447.20000000000005" type="curve" smooth="yes"/>
      <point x="302.0" y="447.20000000000005"/>
      <point x="230.99999999999997" y="424.40000000000003"/>
      <point x="181.79999999999998" y="383.59999999999997" type="curve"/>
      <point x="184.2" y="267.2" type="line"/>
      <point x="227.8" y="302.0"/>
      <point x="276.6" y="325.0"/>
      <point x="327.00000000000006" y="325.0" type="curve" smooth="yes"/>
      <point x="401.0" y="325.0"/>
      <point x="446.00000000000006" y="289.79999999999995"/>
      <point x="446.00000000000006" y="226.20000000000002" type="curve" smooth="yes"/>
      <point x="446.00000000000006" y="153.99999999999997"/>
      <point x="403.79999999999995" y="118.79999999999998"/>
      <point x="334.59999999999997" y="118.79999999999998" type="curve" smooth="yes"/>
      <point x="251.6" y="118.79999999999998"/>
      <point x="199.4" y="166.2"/>
      <point x="199.4" y="348.0" type="curve" smooth="yes"/>
      <point x="199.4" y="498.79999999999995"/>
      <point x="243.2" y="571.4000000000001"/>
      <point x="387.2" y="571.4000000000001" type="curve" smooth="yes"/>
      <point x="443.79999999999995" y="571.4000000000001"/>
      <point x="493.6" y="560.5999999999999"/>
      <point x="552.8000000000001" y="543.0000000000001" type="curve"/>
      <point x="590.8000000000001" y="671.8" type="line"/>
      <point x="535.1999999999999" y="695.4000000000001"/>
      <point x="452.0" y="710.0"/>
      <point x="363.0" y="710.0" type="curve" smooth="yes"/>
      <point x="144.2" y="710.0"/>
      <point x="31.400000000000002" y="581.7999999999998"/>
      <point x="31.400000000000002" y="329.0" type="curve" smooth="yes"/>
      <point x="31.400000000000002" y="96.0"/>
      <point x="134.8" y="-10.0"/>
    </contour>
  </outline>
</glyph>
<glyph name="seven" format="2">
  <advance width="640.2"/>
  <unicode hex="0037"/>
  <outline>
    <contour>
      <point x="176.04000000000002" y="0.0" type="curve"/>
      <point x="347.1599999999999" y="0.0" type="line"/>
      <point x="349.64" y="119.4"/>
      <point x="381.32" y="211.00000000000003"/>
      <point x="453.15999999999997" y="341.92" type="curve" smooth="yes"/>
      <point x="591.64" y="592.24" type="line"/>
      <point x="591.64" y="700.0" type="line"/>
      <point x="54.8" y="700.0" type="line"/>
      <point x="54.8" y="556.5999999999999" type="line"/>
      <point x="400.08000000000004" y="556.5999999999999" type="line"/>
      <point x="285.04" y="365.84" type="line" smooth="yes"/>
      <point x="205.48000000000002" y="233.72"/>
      <point x="176.04000000000002" y="132.12"/>
    </contour>
  </outline>
</glyph>
<glyph name="eight" format="2">
  <advance width="640.36"/>
  <unicode hex="0038"/>
  <outline>
    <contour>
      <point x="355.36" y="399.79999999999995" type="curve"/>
      <point x="462.19999999999993" y="355.47999999999996" type="line"/>
      <point x="551.88" y="402.6"/>
      <point x="588.84" y="464.88"/>
      <point x="588.84" y="530.52" type="curve" smooth="yes"/>
      <point x="588.84" y="645.16"/>
      <point x="494.08" y="710.0"/>
      <point x="324.64" y="710.0" type="curve" smooth="yes"/>
      <point x="152.35999999999999" y="710.0"/>
      <point x="55.12" y="640.36"/>
      <point x="55.12" y="513.84" type="curve" smooth="yes"/>
      <point x="55.12" y="257.36"/>
      <point x="443.56000000000006" y="331.80000000000007"/>
      <point x="443.56000000000006" y="183.44" type="curve" smooth="yes"/>
      <point x="443.56000000000006" y="136.20000000000002"/>
      <point x="405.76" y="112.03999999999999"/>
      <point x="328.52" y="112.03999999999999" type="curve" smooth="yes"/>
      <point x="237.56" y="112.03999999999999"/>
      <point x="188.28" y="143.51999999999998"/>
      <point x="188.28" y="201.00000000000003" type="curve" smooth="yes"/>
      <point x="188.28" y="252.96000000000004"/>
      <point x="211.44" y="282.76000000000005"/>
      <point x="267.0" y="314.08" type="curve"/>
      <point x="165.92000000000002" y="371.08" type="line"/>
      <point x="67.92" y="332.88"/>
      <point x="22.919999999999998" y="267.44"/>
      <point x="22.919999999999998" y="189.52" type="curve" smooth="yes"/>
      <point x="22.919999999999998" y="61.6"/>
      <point x="126.4" y="-10.0"/>
      <point x="318.32" y="-10.0" type="curve" smooth="yes"/>
      <point x="520.36" y="-10.0"/>
      <point x="617.1999999999999" y="58.31999999999999"/>
      <point x="617.1999999999999" y="195.76" type="curve" smooth="yes"/>
      <point x="617.1999999999999" y="450.32"/>
      <point x="213.52" y="380.44"/>
      <point x="213.52" y="516.9599999999999" type="curve" smooth="yes"/>
      <point x="213.52" y="558.9200000000001"/>
      <point x="246.6" y="584.92"/>
      <point x="320.16" y="584.92" type="curve" smooth="yes"/>
      <point x="397.6" y="584.92"/>
      <point x="435.6" y="558.6"/>
      <point x="435.6" y="506.52" type="curve" smooth="yes"/>
      <point x="435.6" y="461.36"/>
      <point x="415.28000000000003" y="433.2"/>
    </contour>
  </outline>
</glyph>
<glyph name="nine" format="2">
  <advance width="640.2"/>
  <unicode hex="0039"/>
  <outline>
    <contour>
      <point x="274.2" y="-10.0" type="curve" smooth="yes"/>
      <point x="492.99999999999994" y="-10.0"/>
      <point x="604.8000000000001" y="116.4"/>
      <point x="604.8000000000001" y="366.79999999999995" type="curve" smooth="yes"/>
      <point x="604.8000000000001" y="601.6000000000001"/>
      <point x="510.40000000000015" y="710.0"/>
      <point x="314.99999999999994" y="710.0" type="curve" smooth="yes"/>
      <point x="128.8" y="710.0"/>
      <point x="29.799999999999997" y="626.1999999999999"/>
      <point x="29.799999999999997" y="466.8" type="curve" smooth="yes"/>
      <point x="29.799999999999997" y="327.99999999999994"/>
      <point x="109.8" y="252.79999999999998"/>
      <point x="256.8" y="252.79999999999998" type="curve" smooth="yes"/>
      <point x="331.9999999999999" y="252.79999999999998"/>
      <point x="406.40000000000003" y="274.40000000000003"/>
      <point x="454.4" y="314.00000000000006" type="curve"/>
      <point x="455.59999999999997" y="433.4000000000001" type="line"/>
      <point x="413.1999999999999" y="396.59999999999997"/>
      <point x="360.6" y="375.3999999999999"/>
      <point x="306.0" y="375.3999999999999" type="curve" smooth="yes"/>
      <point x="237.20000000000002" y="375.3999999999999"/>
      <point x="189.99999999999994" y="409.6"/>
      <point x="189.99999999999994" y="474.40000000000003" type="curve" smooth="yes"/>
      <point x="189.99999999999994" y="544.2"/>
      <point x="233.8" y="581.1999999999999"/>
      <point x="305.2" y="581.1999999999999" type="curve" smooth="yes"/>
      <point x="398.0" y="581.1999999999999"/>
      <point x="437.19999999999993" y="523.4"/>
      <point x="437.19999999999993" y="352.4" type="curve" smooth="yes"/>
      <point x="437.19999999999993" y="201.6"/>
      <point x="392.6" y="127.39999999999999"/>
      <point x="249.20000000000002" y="127.39999999999999" type="curve" smooth="yes"/>
      <point x="192.0" y="127.39999999999999"/>
      <point x="142.2" y="138.2"/>
      <point x="83.39999999999999" y="155.79999999999998" type="curve"/>
      <point x="45.39999999999999" y="29.400000000000002" type="line"/>
      <point x="101.00000000000001" y="5.800000000000001"/>
      <point x="185.20000000000002" y="-10.0"/>
    </contour>
  </outline>
</glyph>
<glyph name="less" format="2">
  <advance width="529.16"/>
  <unicode hex="003C"/>
  <outline>
    <contour>
      <point x="488.78000000000003" y="75.53999999999999" type="line"/>
      <point x="488.78000000000003" y="201.77999999999997" type="line"/>
      <point x="184.38" y="306.96" type="line"/>
      <point x="488.78000000000003" y="412.69999999999993" type="line"/>
      <point x="488.78000000000003" y="538.6" type="line"/>
      <point x="40.38" y="371.42" type="line"/>
      <point x="40.38" y="241.66" type="line"/>
    </contour>
  </outline>
</glyph>
<glyph name="equal" format="2">
  <advance width="520.76"/>
  <unicode hex="003D"/>
  <outline>
    <contour>
      <point x="471.73999999999995" y="259.72" type="line"/>
      <point x="49.02" y="259.72" type="line"/>
      <point x="49.02" y="129.12" type="line"/>
      <point x="471.73999999999995" y="129.12" type="line"/>
    </contour>
    <contour>
      <point x="471.73999999999995" y="486.04" type="line"/>
      <point x="49.02" y="486.04" type="line"/>
      <point x="49.02" y="355.44" type="line"/>
      <point x="471.73999999999995" y="355.44" type="line"/>
    </contour>
  </outline>
</glyph>
<glyph name="greater" format="2">
  <advance width="529.16"/>
  <unicode hex="003E"/>
  <outline>
    <contour>
      <point x="488.78000000000003" y="241.48000000000002" type="line"/>
      <point x="488.78000000000003" y="371.23999999999995" type="line"/>
      <point x="40.38" y="538.6" type="line"/>
      <point x="40.38" y="412.22" type="line"/>
      <point x="344.78" y="306.78000000000003" type="line"/>
      <point x="40.38" y="201.42000000000002" type="line"/>
      <point x="40.38" y="75.53999999999999" type="line"/>
    </contour>
  </outline>
</glyph>
<glyph name="question" format="2">
  <advance width="485.44"/>
  <unicode hex="003F"/>
  <outline>
    <contour>
      <point x="155.54000000000002" y="260.14" type="line"/>
      <point x="296.08" y="260.14" type="line"/>
      <point x="296.64" y="325.08" type="line"/>
      <point x="420.58000000000004" y="372.41999999999996"/>
      <point x="469.06" y="441.70000000000005"/>
      <point x="469.06" y="544.5" type="curve" smooth="yes"/>
      <point x="469.06" y="686.7"/>
      <point x="363.08" y="749.5799999999999"/>
      <point x="232.1" y="749.5799999999999" type="curve" smooth="yes"/>
      <point x="156.73999999999998" y="749.5799999999999"/>
      <point x="68.4" y="724.16"/>
      <point x="11.559999999999999" y="685.08" type="curve"/>
      <point x="60.13999999999999" y="556.2600000000001" type="line"/>
      <point x="112.66000000000001" y="587.72"/>
      <point x="161.4" y="601.24"/>
      <point x="205.64" y="601.24" type="curve" smooth="yes"/>
      <point x="260.24" y="601.24"/>
      <point x="299.08" y="575.46"/>
      <point x="299.08" y="525.26" type="curve" smooth="yes"/>
      <point x="299.08" y="479.85999999999996"/>
      <point x="277.64" y="441.06"/>
      <point x="151.9" y="398.34000000000003" type="curve"/>
    </contour>
    <contour>
      <point x="137.0" y="78.88" type="curve" smooth="yes"/>
      <point x="137.0" y="20.319999999999997"/>
      <point x="161.72" y="-7.28"/>
      <point x="226.44" y="-7.28" type="curve" smooth="yes"/>
      <point x="290.62" y="-7.28"/>
      <point x="315.7" y="20.319999999999997"/>
      <point x="315.7" y="78.88" type="curve" smooth="yes"/>
      <point x="315.7" y="138.14"/>
      <point x="290.62" y="165.73999999999998"/>
      <point x="226.44" y="165.73999999999998" type="curve" smooth="yes"/>
      <point x="161.24" y="165.73999999999998"/>
      <point x="137.0" y="138.14"/>
    </contour>
  </outline>
</glyph>
<glyph name="at" format="2">
  <advance width="863.5999999999999"/>
  <unicode hex="0040"/>
  <outline>
    <contour>
      <point x="417.4000000000001" y="-124.24" type="curve" smooth="yes"/>
      <point x="487.64" y="-124.24"/>
      <point x="570.4" y="-106.92"/>
      <point x="625.2" y="-83.03999999999999" type="curve"/>
      <point x="604.0799999999999" y="-14.88" type="line"/>
      <point x="551.7600000000001" y="-34.92000000000001"/>
      <point x="487.36000000000007" y="-48.240000000000016"/>
      <point x="424.11999999999995" y="-48.240000000000016" type="curve" smooth="yes"/>
      <point x="248.84000000000003" y="-48.240000000000016"/>
      <point x="118.47999999999999" y="29.519999999999996"/>
      <point x="118.47999999999999" y="263.72" type="curve" smooth="yes"/>
      <point x="118.47999999999999" y="478.55999999999995"/>
      <point x="231.44000000000003" y="637.6399999999999"/>
      <point x="444.96000000000004" y="637.6399999999999" type="curve" smooth="yes"/>
      <point x="657.1600000000001" y="637.6399999999999"/>
      <point x="750.9200000000001" y="529.8400000000001"/>
      <point x="750.9200000000001" y="334.28000000000003" type="curve" smooth="yes"/>
      <point x="750.9200000000001" y="214.12"/>
      <point x="713.44" y="139.0"/>
      <point x="670.44" y="139.8" type="curve" smooth="yes"/>
      <point x="638.96" y="139.8"/>
      <point x="617.48" y="162.76000000000002"/>
      <point x="623.28" y="243.04000000000002" type="curve" smooth="yes"/>
      <point x="643.32" y="505.1600000000001" type="line"/>
      <point x="583.9599999999999" y="527.7600000000001"/>
      <point x="519.0799999999999" y="540.84"/>
      <point x="456.2800000000001" y="540.84" type="curve" smooth="yes"/>
      <point x="296.88" y="540.84"/>
      <point x="214.76" y="419.0"/>
      <point x="214.76" y="258.4" type="curve" smooth="yes"/>
      <point x="214.76" y="116.68"/>
      <point x="274.52" y="55.080000000000005"/>
      <point x="360.36" y="55.080000000000005" type="curve" smooth="yes"/>
      <point x="429.12" y="55.080000000000005"/>
      <point x="477.9599999999999" y="96.47999999999999"/>
      <point x="512.32" y="164.40000000000003" type="curve"/>
      <point x="527.0799999999999" y="91.8"/>
      <point x="564.1600000000001" y="47.52"/>
      <point x="644.4399999999999" y="47.52" type="curve" smooth="yes"/>
      <point x="770.4" y="45.92"/>
      <point x="833.24" y="178.32000000000002"/>
      <point x="833.24" y="342.0" type="curve" smooth="yes"/>
      <point x="833.24" y="583.0"/>
      <point x="689.1199999999999" y="710.0"/>
      <point x="457.84000000000003" y="710.0" type="curve" smooth="yes"/>
      <point x="180.8" y="710.0"/>
      <point x="31.439999999999998" y="524.1999999999999"/>
      <point x="31.439999999999998" y="268.8" type="curve" smooth="yes"/>
      <point x="31.439999999999998" y="-11.48"/>
      <point x="189.08" y="-124.24"/>
    </contour>
    <contour>
      <point x="412.8" y="177.03999999999996" type="curve" smooth="yes"/>
      <point x="383.8" y="177.03999999999996"/>
      <point x="361.04" y="202.19999999999996"/>
      <point x="361.04" y="262.76" type="curve" smooth="yes"/>
      <point x="361.04" y="354.32"/>
      <point x="397.11999999999995" y="442.12"/>
      <point x="450.16" y="442.12" type="curve" smooth="yes"/>
      <point x="468.7600000000001" y="442.12"/>
      <point x="486.5200000000001" y="438.6000000000001"/>
      <point x="505.63999999999993" y="431.52000000000004" type="curve"/>
      <point x="492.2799999999999" y="287.76000000000005" type="line" smooth="yes"/>
      <point x="474.5600000000001" y="200.08"/>
      <point x="447.6" y="177.03999999999996"/>
    </contour>
  </outline>
</glyph>
<glyph name="A" format="2">
  <advance width="664.7399999999999"/>
  <unicode hex="0041"/>
  <anchor x="657.82" y="0.0" name="ogonek"/>
  <anchor x="327.71999999999997" y="0.0" name="bottom"/>
  <anchor x="332.59999999999997" y="700.0" name="top"/>
  <outline>
    <contour>
      <point x="7.16" y="0.0" type="line"/>
      <point x="183.8" y="0.0" type="line"/>
      <point x="221.12" y="130.0" type="line"/>
      <point x="434.6" y="130.0" type="line"/>
      <point x="472.82" y="0.0" type="line"/>
      <point x="657.82" y="0.0" type="line"/>
      <point x="433.38000000000005" y="703.0" type="line"/>
      <point x="229.62" y="703.0" type="line"/>
    </contour>
    <contour>
      <point x="253.64" y="271.21999999999997" type="line"/>
      <point x="328.28000000000003" y="572.24" type="line"/>
      <point x="402.08" y="271.21999999999997" type="line"/>
    </contour>
  </outline>
</glyph>
<glyph name="B" format="2">
  <advance width="659.24"/>
  <unicode hex="0042"/>
  <anchor x="326.55999999999995" y="700.0" name="top"/>
  <anchor x="326.55999999999995" y="0.0" name="bottom"/>
  <outline>
    <contour>
      <point x="55.080000000000005" y="3.1999999999999997" type="line"/>
      <point x="209.04000000000002" y="-8.0"/>
      <point x="226.76000000000002" y="-10.0"/>
      <point x="331.68" y="-10.0" type="curve" smooth="yes"/>
      <point x="558.72" y="-10.0"/>
      <point x="637.28" y="50.0"/>
      <point x="637.28" y="203.96" type="curve" smooth="yes"/>
      <point x="637.28" y="292.64"/>
      <point x="585.84" y="358.04"/>
      <point x="498.7200000000001" y="382.52000000000004" type="curve"/>
      <point x="498.7200000000001" y="384.52" type="line"/>
      <point x="567.2" y="413.15999999999997"/>
      <point x="600.16" y="465.99999999999994"/>
      <point x="600.16" y="540.04" type="curve" smooth="yes"/>
      <point x="600.16" y="659.9200000000001"/>
      <point x="524.8399999999999" y="710.0"/>
      <point x="329.28" y="710.0" type="curve" smooth="yes"/>
      <point x="257.8" y="710.0"/>
      <point x="171.60000000000002" y="705.6"/>
      <point x="55.080000000000005" y="696.2" type="curve"/>
    </contour>
    <contour>
      <point x="225.32" y="412.56" type="line"/>
      <point x="225.32" y="569.96" type="line"/>
      <point x="276.04" y="574.16"/>
      <point x="284.76000000000005" y="575.16"/>
      <point x="323.92" y="575.16" type="curve" smooth="yes"/>
      <point x="411.12000000000006" y="575.16"/>
      <point x="440.72" y="550.4799999999999"/>
      <point x="440.72" y="492.55999999999995" type="curve" smooth="yes"/>
      <point x="440.72" y="443.12"/>
      <point x="410.6" y="412.56"/>
      <point x="361.56000000000006" y="412.56" type="curve" smooth="yes"/>
    </contour>
    <contour>
      <point x="225.32" y="129.56" type="curve"/>
      <point x="225.32" y="292.64000000000004" type="line"/>
      <point x="360.48" y="292.64000000000004" type="line" smooth="yes"/>
      <point x="432.52000000000004" y="292.64000000000004"/>
      <point x="462.9200000000001" y="265.84000000000003"/>
      <point x="462.9200000000001" y="211.35999999999999" type="curve" smooth="yes"/>
      <point x="462.9200000000001" y="148.48"/>
      <point x="431.32" y="124.6"/>
      <point x="323.7200000000001" y="124.6" type="curve" smooth="yes"/>
      <point x="298.52000000000004" y="124.6"/>
      <point x="268.56000000000006" y="126.35999999999999"/>
    </contour>
  </outline>
</glyph>
<glyph name="C" format="2">
  <advance width="623.88"/>
  <unicode hex="0043"/>
  <anchor x="348.86" y="700.0" name="top"/>
  <anchor x="346.86" y="0.0" name="bottom"/>
  <outline>
    <contour>
      <point x="29.940000000000005" y="339.48" type="curve" smooth="yes"/>
      <point x="29.940000000000005" y="84.04000000000002"/>
      <point x="139.70000000000002" y="-10.0"/>
      <point x="354.8" y="-10.0" type="curve" smooth="yes"/>
      <point x="462.08" y="-10.0"/>
      <point x="533.24" y="3.4200000000000004"/>
      <point x="597.8" y="24.36" type="curve"/>
      <point x="568.0800000000002" y="156.60000000000002" type="line"/>
      <point x="511.52000000000004" y="142.0"/>
      <point x="441.88" y="132.14"/>
      <point x="382.84000000000003" y="132.14" type="curve" smooth="yes"/>
      <point x="256.54" y="132.14"/>
      <point x="202.39999999999998" y="185.0"/>
      <point x="202.39999999999998" y="340.46" type="curve" smooth="yes"/>
      <point x="202.39999999999998" y="509.32"/>
      <point x="257.02" y="566.7"/>
      <point x="386.5" y="566.7" type="curve" smooth="yes"/>
      <point x="440.28000000000003" y="566.7"/>
      <point x="491.9400000000001" y="559.84"/>
      <point x="553.04" y="545.78" type="curve"/>
      <point x="586.5400000000001" y="679.8000000000001" type="line"/>
      <point x="521.72" y="700.62"/>
      <point x="462.82" y="710.0"/>
      <point x="370.78000000000003" y="710.0" type="curve" smooth="yes"/>
      <point x="143.78000000000003" y="710.0"/>
      <point x="29.940000000000005" y="603.0600000000001"/>
    </contour>
  </outline>
</glyph>
<glyph name="D" format="2">
  <advance width="692.24"/>
  <unicode hex="0044"/>
  <anchor x="340.92" y="700.0" name="top"/>
  <outline>
    <contour>
      <point x="326.40000000000003" y="-10.0" type="curve" smooth="yes"/>
      <point x="551.7200000000001" y="-10.0"/>
      <point x="662.1199999999999" y="100.71999999999998"/>
      <point x="662.1199999999999" y="349.40000000000003" type="curve" smooth="yes"/>
      <point x="662.1199999999999" y="601.92"/>
      <point x="563.76" y="710.0"/>
      <point x="317.6" y="710.0" type="curve" smooth="yes"/>
      <point x="224.76" y="710.0"/>
      <point x="148.92000000000002" y="707.0"/>
      <point x="55.080000000000005" y="699.5199999999999" type="curve"/>
      <point x="55.080000000000005" y="-1.2000000000000002" type="line"/>
      <point x="137.44" y="-5.919999999999999"/>
      <point x="222.0" y="-10.0"/>
    </contour>
    <contour>
      <point x="338.96000000000004" y="123.0" type="curve" smooth="yes"/>
      <point x="298.76" y="123.0"/>
      <point x="261.36" y="124.92"/>
      <point x="225.08" y="127.27999999999999" type="curve"/>
      <point x="225.08" y="572.3199999999999" type="line"/>
      <point x="255.20000000000002" y="574.4799999999999"/>
      <point x="296.8" y="576.08"/>
      <point x="334.2" y="576.08" type="curve" smooth="yes"/>
      <point x="439.0400000000001" y="576.08"/>
      <point x="487.24" y="519.8"/>
      <point x="487.24" y="348.32" type="curve" smooth="yes"/>
      <point x="487.24" y="185.72"/>
      <point x="436.0" y="123.0"/>
    </contour>
  </outline>
</glyph>
<glyph name="E" format="2">
  <advance width="600.48"/>
  <unicode hex="0045"/>
  <anchor x="574.52" y="0.0" name="ogonek"/>
  <anchor x="314.64000000000004" y="0.0" name="bottom"/>
  <anchor x="316.28000000000003" y="700.0" name="top"/>
  <outline>
    <contour>
      <point x="55.080000000000005" y="0.0" type="line"/>
      <point x="575.12" y="0.0" type="line"/>
      <point x="575.12" y="142.72" type="line"/>
      <point x="224.31999999999996" y="142.72" type="line"/>
      <point x="224.31999999999996" y="288.12" type="line"/>
      <point x="532.0000000000001" y="288.12" type="line"/>
      <point x="532.0000000000001" y="423.84000000000003" type="line"/>
      <point x="224.31999999999996" y="423.84000000000003" type="line"/>
      <point x="224.31999999999996" y="556.0799999999999" type="line"/>
      <point x="557.04" y="556.0799999999999" type="line"/>
      <point x="557.04" y="700.0" type="line"/>
      <point x="55.080000000000005" y="700.0" type="line"/>
    </contour>
  </outline>
</glyph>
<glyph name="F" format="2">
  <advance width="570.48"/>
  <unicode hex="0046"/>
  <outline>
    <contour>
      <point x="55.080000000000005" y="0.0" type="line"/>
      <point x="226.15999999999997" y="0.0" type="line"/>
      <point x="226.15999999999997" y="234.67999999999998" type="line"/>
      <point x="509.44" y="234.67999999999998" type="line"/>
      <point x="509.44" y="378.2" type="line"/>
      <point x="225.08" y="378.2" type="line"/>
      <point x="225.08" y="552.48" type="line"/>
      <point x="553.4000000000001" y="552.48" type="line"/>
      <point x="553.4000000000001" y="700.0" type="line"/>
      <point x="55.080000000000005" y="700.0" type="line"/>
    </contour>
  </outline>
</glyph>
<glyph name="G" format="2">
  <advance width="661.8599999999999"/>
  <unicode hex="0047"/>
  <anchor x="348.0" y="700.0" name="top"/>
  <anchor x="345.40000000000003" y="0.0" name="bottom"/>
  <outline>
    <contour>
      <point x="29.940000000000005" y="340.32" type="curve" smooth="yes"/>
      <point x="29.940000000000005" y="101.82000000000001"/>
      <point x="131.08" y="-10.0"/>
      <point x="340.08000000000004" y="-10.0" type="curve" smooth="yes"/>
      <point x="450.12" y="-10.0"/>
      <point x="543.1800000000001" y="7.140000000000001"/>
      <point x="619.58" y="43.0" type="curve"/>
      <point x="619.58" y="394.03999999999996" type="line"/>
      <point x="348.2" y="394.03999999999996" type="line"/>
      <point x="348.2" y="263.2" type="line"/>
      <point x="467.56" y="263.2" type="line"/>
      <point x="467.56" y="136.94" type="line"/>
      <point x="440.08" y="128.14"/>
      <point x="402.84000000000003" y="123.45999999999998"/>
      <point x="360.28" y="123.45999999999998" type="curve" smooth="yes"/>
      <point x="254.14000000000004" y="123.45999999999998"/>
      <point x="201.55999999999997" y="182.72"/>
      <point x="201.55999999999997" y="337.52" type="curve" smooth="yes"/>
      <point x="201.55999999999997" y="497.74"/>
      <point x="257.59999999999997" y="567.5400000000001"/>
      <point x="381.7" y="567.5400000000001" type="curve" smooth="yes"/>
      <point x="436.06000000000006" y="567.5400000000001"/>
      <point x="501.1600000000001" y="558.84"/>
      <point x="563.36" y="543.8000000000001" type="curve"/>
      <point x="594.3399999999999" y="678.4200000000001" type="line"/>
      <point x="526.98" y="699.2"/>
      <point x="454.64" y="710.0"/>
      <point x="368.08" y="710.0" type="curve" smooth="yes"/>
      <point x="140.20000000000002" y="710.0"/>
      <point x="29.940000000000005" y="590.52"/>
    </contour>
  </outline>
</glyph>
<glyph name="H" format="2">
  <advance width="703.6600000000001"/>
  <unicode hex="0048"/>
  <anchor x="352.1" y="700.0" name="top"/>
  <outline>
    <contour>
      <point x="55.02000000000001" y="0.0" type="line"/>
      <point x="224.12" y="0.0" type="line"/>
      <point x="224.12" y="242.02" type="line"/>
      <point x="479.54" y="242.02" type="line"/>
      <point x="479.54" y="0.0" type="line"/>
      <point x="648.64" y="0.0" type="line"/>
      <point x="648.64" y="700.0" type="line"/>
      <point x="479.54" y="700.0" type="line"/>
      <point x="479.54" y="392.74" type="line"/>
      <point x="224.12" y="392.74" type="line"/>
      <point x="224.12" y="700.0" type="line"/>
      <point x="55.02000000000001" y="700.0" type="line"/>
    </contour>
  </outline>
</glyph>
<glyph name="I" format="2">
  <advance width="279.14"/>
  <unicode hex="0049"/>
  <anchor x="224.12" y="0.0" name="ogonek"/>
  <anchor x="139.78" y="0.0" name="bottom"/>
  <anchor x="139.78" y="700.0" name="top"/>
  <outline>
    <contour>
      <point x="55.02000000000001" y="0.0" type="line"/>
      <point x="224.12" y="0.0" type="line"/>
      <point x="224.12" y="700.0" type="line"/>
      <point x="55.02000000000001" y="700.0" type="line"/>
    </contour>
  </outline>
</glyph>
<glyph name="J" format="2">
  <advance width="516.0600000000001"/>
  <unicode hex="004A"/>
  <anchor x="264.02" y="700.0" name="top"/>
  <outline>
    <contour>
      <point x="7.740000000000002" y="25.819999999999993" type="line"/>
      <point x="80.72" y="2.88"/>
      <point x="159.8" y="-10.120000000000001"/>
      <point x="234.82" y="-10.120000000000001" type="curve" smooth="yes"/>
      <point x="396.68000000000006" y="-10.120000000000001"/>
      <point x="468.34000000000003" y="66.97999999999999"/>
      <point x="468.34000000000003" y="221.22" type="curve" smooth="yes"/>
      <point x="468.34000000000003" y="700.0" type="line"/>
      <point x="57.98" y="700.0" type="line"/>
      <point x="57.98" y="552.5" type="line"/>
      <point x="299.24" y="552.5" type="line"/>
      <point x="299.24" y="260.58000000000004" type="line" smooth="yes"/>
      <point x="299.24" y="163.11999999999998"/>
      <point x="263.06" y="132.33999999999997"/>
      <point x="185.96" y="132.33999999999997" type="curve" smooth="yes"/>
      <point x="147.98" y="132.33999999999997"/>
      <point x="95.54" y="141.37999999999997"/>
      <point x="39.17999999999999" y="155.5" type="curve"/>
    </contour>
  </outline>
</glyph>
<glyph name="K" format="2">
  <advance width="703.9999999999999"/>
  <unicode hex="004B"/>
  <anchor x="351.2" y="700.0" name="top"/>
  <anchor x="349.79999999999995" y="0.0" name="bottom"/>
  <outline>
    <contour>
      <point x="653.4000000000001" y="-10.0" type="curve" smooth="yes"/>
      <point x="661.1999999999999" y="-10.0"/>
      <point x="669.4000000000001" y="-10.0"/>
      <point x="679.2" y="-8.0" type="curve"/>
      <point x="679.2" y="158.0" type="line"/>
      <point x="674.2" y="157.99999999999997"/>
      <point x="668.5999999999999" y="157.99999999999997"/>
      <point x="664.6" y="157.99999999999997" type="curve" smooth="yes"/>
      <point x="623.1999999999999" y="158.39999999999998"/>
      <point x="584.1999999999999" y="176.6"/>
      <point x="495.4" y="244.6" type="curve" smooth="yes"/>
      <point x="209.8" y="464.0" type="line"/>
      <point x="209.8" y="700.0" type="line"/>
      <point x="62.599999999999994" y="700.0" type="line"/>
      <point x="62.599999999999994" y="0.0" type="line"/>
      <point x="209.8" y="0.0" type="line"/>
      <point x="209.8" y="259.6" type="line"/>
      <point x="451.59999999999997" y="72.60000000000001" type="line" smooth="yes"/>
      <point x="526.6" y="14.2"/>
      <point x="585.1999999999999" y="-10.0"/>
    </contour>
    <contour>
      <point x="342.4" y="287.59999999999997" type="line"/>
      <point x="479.4" y="380.6"/>
      <point x="616.4" y="500.2"/>
      <point x="679.8" y="658.5999999999999" type="curve"/>
      <point x="556.0" y="704.4" type="line"/>
      <point x="490.2" y="562.0"/>
      <point x="345.8" y="444.79999999999995"/>
      <point x="253.20000000000002" y="387.4" type="curve"/>
    </contour>
  </outline>
</glyph>
<glyph name="L" format="2">
  <advance width="557.0999999999999"/>
  <unicode hex="004C"/>
  <anchor x="278.82000000000005" y="350.0" name="center"/>
  <anchor x="139.78" y="700.0" name="top"/>
  <anchor x="343.3" y="700.0" name="topright"/>
  <anchor x="296.52" y="0.0" name="bottom"/>
  <outline>
    <contour>
      <point x="55.02000000000001" y="0.0" type="line"/>
      <point x="538.9" y="0.0" type="line"/>
      <point x="538.9" y="147.78000000000003" type="line"/>
      <point x="224.54" y="147.78000000000003" type="line"/>
      <point x="224.54" y="700.0" type="line"/>
      <point x="55.02000000000001" y="700.0" type="line"/>
    </contour>
  </outline>
</glyph>
<glyph name="M" format="2">
  <advance width="794.26"/>
  <unicode hex="004D"/>
  <outline>
    <contour>
      <point x="55.42" y="0.0" type="line"/>
      <point x="209.95999999999998" y="0.0" type="line"/>
      <point x="209.95999999999998" y="460.72" type="line"/>
      <point x="355.14" y="164.70000000000002" type="line"/>
      <point x="435.17999999999995" y="164.70000000000002" type="line"/>
      <point x="584.3000000000001" y="465.78" type="line"/>
      <point x="584.3000000000001" y="0.0" type="line"/>
      <point x="738.84" y="0.0" type="line"/>
      <point x="738.84" y="700.0" type="line"/>
      <point x="571.0" y="700.0" type="line"/>
      <point x="400.36" y="358.82" type="line"/>
      <point x="230.95999999999998" y="700.0" type="line"/>
      <point x="55.42" y="700.0" type="line"/>
    </contour>
  </outline>
</glyph>
<glyph name="N" format="2">
  <advance width="685.5999999999999"/>
  <unicode hex="004E"/>
  <anchor x="343.0" y="700.0" name="top"/>
  <anchor x="343.0" y="0.0" name="bottom"/>
  <outline>
    <contour>
      <point x="55.0" y="0.0" type="line"/>
      <point x="205.79999999999998" y="0.0" type="line"/>
      <point x="205.79999999999998" y="430.00000000000006" type="line"/>
      <point x="470.6" y="-1.2000000000000002" type="line"/>
      <point x="630.5999999999999" y="-1.2000000000000002" type="line"/>
      <point x="630.5999999999999" y="700.0" type="line"/>
      <point x="480.20000000000005" y="700.0" type="line"/>
      <point x="480.20000000000005" y="260.2" type="line"/>
      <point x="215.39999999999998" y="701.2" type="line"/>
      <point x="55.0" y="701.2" type="line"/>
    </contour>
  </outline>
</glyph>
<glyph name="O" format="2">
  <advance width="702.5"/>
  <unicode hex="004F"/>
  <anchor x="440.00000000000006" y="4.199999999999999" name="ogonek"/>
  <anchor x="351.2" y="700.0" name="top"/>
  <anchor x="543.6999999999999" y="689.6" name="topright"/>
  <anchor x="351.5" y="0.0" name="bottom"/>
  <outline>
    <contour>
      <point x="351.2" y="123.4" type="curve" smooth="yes"/>
      <point x="263.3" y="123.4"/>
      <point x="203.1" y="170.4"/>
      <point x="203.1" y="349.7" type="curve" smooth="yes"/>
      <point x="203.1" y="530.3000000000001"/>
      <point x="262.29999999999995" y="577.2"/>
      <point x="351.2" y="577.2" type="curve" smooth="yes"/>
      <point x="442.5" y="577.2"/>
      <point x="499.5" y="529.2"/>
      <point x="499.5" y="350.40000000000003" type="curve" smooth="yes"/>
      <point x="499.5" y="172.79999999999998"/>
      <point x="442.1" y="123.4"/>
    </contour>
    <contour>
      <point x="351.5" y="-10.0" type="curve" smooth="yes"/>
      <point x="553.7" y="-10.0"/>
      <point x="672.0" y="81.19999999999999"/>
      <point x="672.0" y="352.7" type="curve" smooth="yes"/>
      <point x="672.0" y="617.4"/>
      <point x="558.1" y="710.0"/>
      <point x="351.2" y="710.0" type="curve" smooth="yes"/>
      <point x="144.29999999999998" y="710.0"/>
      <point x="30.5" y="616.4000000000001"/>
      <point x="30.5" y="350.0" type="curve" smooth="yes"/>
      <point x="30.5" y="82.6"/>
      <point x="150.20000000000002" y="-10.0"/>
    </contour>
  </outline>
</glyph>
<glyph name="P" format="2">
  <advance width="669.0"/>
  <unicode hex="0050"/>
  <outline>
    <contour>
      <point x="55.02000000000001" y="0.0" type="line"/>
      <point x="224.54" y="0.0" type="line"/>
      <point x="224.54" y="195.8" type="line"/>
      <point x="302.62" y="192.34000000000003"/>
      <point x="298.71999999999997" y="192.22000000000003"/>
      <point x="373.0" y="192.22000000000003" type="curve" smooth="yes"/>
      <point x="574.56" y="192.22000000000003"/>
      <point x="646.62" y="270.67999999999995"/>
      <point x="646.62" y="456.71999999999997" type="curve" smooth="yes"/>
      <point x="646.62" y="637.66"/>
      <point x="580.74" y="710.0"/>
      <point x="328.82000000000005" y="710.0" type="curve" smooth="yes"/>
      <point x="289.58" y="710.0"/>
      <point x="198.82000000000002" y="708.1400000000001"/>
      <point x="55.02000000000001" y="701.56" type="curve"/>
    </contour>
    <contour>
      <point x="224.95999999999998" y="572.1" type="line"/>
      <point x="288.54" y="575.98"/>
      <point x="307.92" y="576.4000000000001"/>
      <point x="341.6" y="576.4000000000001" type="curve" smooth="yes"/>
      <point x="448.38000000000005" y="576.4000000000001"/>
      <point x="475.14" y="541.24"/>
      <point x="475.14" y="460.94" type="curve" smooth="yes"/>
      <point x="475.14" y="361.78000000000003"/>
      <point x="450.62000000000006" y="325.76"/>
      <point x="319.84000000000003" y="325.76" type="curve" smooth="yes"/>
      <point x="286.98" y="325.76"/>
      <point x="267.50000000000006" y="326.40000000000003"/>
      <point x="224.95999999999998" y="328.9" type="curve"/>
    </contour>
  </outline>
</glyph>
<glyph name="Q" format="2">
  <advance width="702.92"/>
  <unicode hex="0051"/>
  <outline>
    <contour>
      <point x="482.08" y="37.559999999999995" type="curve"/>
      <point x="339.6" y="7.28" type="line"/>
      <point x="379.64" y="-125.79999999999998"/>
      <point x="435.36" y="-188.84"/>
      <point x="534.0" y="-188.84" type="curve" smooth="yes"/>
      <point x="565.56" y="-188.84"/>
      <point x="599.64" y="-182.84"/>
      <point x="632.36" y="-170.92" type="curve"/>
      <point x="613.5999999999999" y="-33.080000000000005" type="line"/>
      <point x="597.48" y="-40.08000000000001"/>
      <point x="580.4" y="-43.440000000000005"/>
      <point x="564.0" y="-43.440000000000005" type="curve" smooth="yes"/>
      <point x="527.28" y="-43.440000000000005"/>
      <point x="503.2" y="-17.24000000000002"/>
    </contour>
    <component base="O"/>
  </outline>
</glyph>
<glyph name="R" format="2">
  <advance width="722.4"/>
  <unicode hex="0052"/>
  <anchor x="348.2" y="700.0" name="top"/>
  <anchor x="355.6" y="0.0" name="bottom"/>
  <outline>
    <contour>
      <point x="665.8" y="-10.0" type="curve" smooth="yes"/>
      <point x="685.4" y="-10.0"/>
      <point x="697.8" y="-8.4"/>
      <point x="707.3999999999999" y="-7.0" type="curve"/>
      <point x="707.5999999999999" y="147.0" type="line"/>
      <point x="703.2" y="147.0"/>
      <point x="695.5999999999999" y="146.4"/>
      <point x="692.1999999999999" y="146.4" type="curve" smooth="yes"/>
      <point x="636.0" y="146.4"/>
      <point x="564.5999999999999" y="208.6"/>
      <point x="489.40000000000003" y="276.6" type="curve"/>
      <point x="594.6" y="304.6"/>
      <point x="649.4" y="374.79999999999995"/>
      <point x="649.4" y="490.6" type="curve" smooth="yes"/>
      <point x="649.4" y="646.0"/>
      <point x="555.4" y="709.6"/>
      <point x="336.0" y="709.6" type="curve" smooth="yes"/>
      <point x="243.8" y="709.6"/>
      <point x="166.00000000000003" y="706.1999999999999"/>
      <point x="62.599999999999994" y="699.8" type="curve"/>
      <point x="62.599999999999994" y="0.0" type="line"/>
      <point x="209.0" y="0.0" type="line"/>
      <point x="209.0" y="234.0" type="line"/>
      <point x="246.0" y="233.0"/>
      <point x="282.8" y="232.6"/>
      <point x="314.99999999999994" y="232.6" type="curve" smooth="yes"/>
      <point x="325.0" y="232.6"/>
      <point x="344.2" y="232.60000000000002"/>
      <point x="354.6" y="232.80000000000004" type="curve"/>
      <point x="467.79999999999995" y="63.8"/>
      <point x="569.4" y="-10.0"/>
    </contour>
    <contour>
      <point x="336.2" y="349.20000000000005" type="curve" smooth="yes"/>
      <point x="294.40000000000003" y="349.20000000000005"/>
      <point x="257.2" y="350.59999999999997"/>
      <point x="209.0" y="352.59999999999997" type="curve"/>
      <point x="209.0" y="576.8" type="line"/>
      <point x="264.0" y="580.8"/>
      <point x="286.0" y="581.2"/>
      <point x="335.40000000000003" y="581.2" type="curve" smooth="yes"/>
      <point x="460.6" y="581.2"/>
      <point x="499.8" y="551.6000000000001"/>
      <point x="499.8" y="469.20000000000005" type="curve" smooth="yes"/>
      <point x="499.8" y="381.40000000000003"/>
      <point x="451.79999999999995" y="349.20000000000005"/>
    </contour>
  </outline>
</glyph>
<glyph name="S" format="2">
  <advance width="621.6"/>
  <unicode hex="0053"/>
  <anchor x="315.4" y="700.0" name="top"/>
  <anchor x="304.96000000000004" y="0.0" name="bottom"/>
  <outline>
    <contour>
      <point x="569.9599999999999" y="675.16" type="line"/>
      <point x="518.56" y="692.4"/>
      <point x="420.08" y="710.0"/>
      <point x="328.00000000000006" y="710.0" type="curve" smooth="yes"/>
      <point x="121.60000000000001" y="710.0"/>
      <point x="29.880000000000003" y="617.84"/>
      <point x="29.880000000000003" y="495.56" type="curve" smooth="yes"/>
      <point x="29.880000000000003" y="397.20000000000005"/>
      <point x="71.2" y="339.08"/>
      <point x="211.08" y="295.68" type="curve" smooth="yes"/>
      <point x="373.44" y="250.4"/>
      <point x="425.52000000000004" y="235.28"/>
      <point x="425.52000000000004" y="194.32" type="curve" smooth="yes"/>
      <point x="425.52000000000004" y="150.23999999999998"/>
      <point x="387.64" y="120.88"/>
      <point x="297.48" y="120.88" type="curve" smooth="yes"/>
      <point x="227.07999999999998" y="120.88"/>
      <point x="127.04" y="135.56"/>
      <point x="43.48" y="164.20000000000002" type="curve"/>
      <point x="10.760000000000003" y="35.080000000000005" type="line"/>
      <point x="96.52" y="3.7200000000000015"/>
      <point x="207.76000000000002" y="-10.0"/>
      <point x="287.76000000000005" y="-10.0" type="curve" smooth="yes"/>
      <point x="493.20000000000005" y="-10.0"/>
      <point x="601.84" y="72.27999999999999"/>
      <point x="601.84" y="207.2" type="curve" smooth="yes"/>
      <point x="601.84" y="313.04"/>
      <point x="553.88" y="367.12"/>
      <point x="389.12" y="409.6" type="curve" smooth="yes"/>
      <point x="237.28" y="448.2"/>
      <point x="207.0" y="465.52"/>
      <point x="207.0" y="503.64" type="curve" smooth="yes"/>
      <point x="207.0" y="550.24"/>
      <point x="252.84000000000003" y="575.4399999999999"/>
      <point x="328.56" y="575.4399999999999" type="curve" smooth="yes"/>
      <point x="397.47999999999996" y="575.4399999999999"/>
      <point x="485.68" y="563.4399999999999"/>
      <point x="538.64" y="544.8000000000001" type="curve"/>
    </contour>
  </outline>
</glyph>
<glyph name="T" format="2">
  <advance width="612.2800000000001"/>
  <unicode hex="0054"/>
  <anchor x="306.14000000000004" y="700.0" name="top"/>
  <anchor x="306.14000000000004" y="0.0" name="bottom"/>
  <outline>
    <contour>
      <point x="596.66" y="550.66" type="line"/>
      <point x="596.66" y="700.0" type="line"/>
      <point x="15.62" y="700.0" type="line"/>
      <point x="15.62" y="550.66" type="line"/>
      <point x="221.79999999999998" y="550.66" type="line"/>
      <point x="221.79999999999998" y="0.0" type="line"/>
      <point x="390.90000000000003" y="0.0" type="line"/>
      <point x="390.90000000000003" y="550.66" type="line"/>
    </contour>
  </outline>
</glyph>
<glyph name="U" format="2">
  <advance width="686.2"/>
  <unicode hex="0055"/>
  <anchor x="427.58" y="0.84" name="ogonek"/>
  <anchor x="343.40000000000003" y="700.0" name="top"/>
  <anchor x="638.48" y="700.0" name="topright"/>
  <anchor x="343.40000000000003" y="0.0" name="bottom"/>
  <outline>
    <contour>
      <point x="47.72" y="226.96" type="line"/>
      <point x="47.72" y="54.4"/>
      <point x="157.68" y="-10.0"/>
      <point x="342.56000000000006" y="-10.0" type="curve" smooth="yes"/>
      <point x="530.38" y="-10.0"/>
      <point x="638.48" y="54.4"/>
      <point x="638.48" y="226.96" type="curve" smooth="yes"/>
      <point x="638.48" y="700.0" type="line"/>
      <point x="470.7800000000001" y="700.0" type="line"/>
      <point x="470.7800000000001" y="225.42" type="line" smooth="yes"/>
      <point x="470.7800000000001" y="152.18"/>
      <point x="418.17999999999995" y="126.47999999999999"/>
      <point x="343.40000000000003" y="126.47999999999999" type="curve" smooth="yes"/>
      <point x="271.00000000000006" y="126.47999999999999"/>
      <point x="214.57999999999998" y="149.66"/>
      <point x="214.57999999999998" y="225.42" type="curve" smooth="yes"/>
      <point x="214.57999999999998" y="700.0" type="line"/>
      <point x="47.72" y="700.0" type="line"/>
    </contour>
  </outline>
</glyph>
<glyph name="V" format="2">
  <advance width="654.04"/>
  <unicode hex="0056"/>
  <outline>
    <contour>
      <point x="229.28000000000003" y="0.0" type="line"/>
      <point x="428.0" y="0.0" type="line"/>
      <point x="653.2399999999999" y="699.4" type="line"/>
      <point x="469.88" y="701.48" type="line"/>
      <point x="329.2" y="145.2" type="line"/>
      <point x="185.39999999999998" y="701.48" type="line"/>
      <point x="0.8000000000000007" y="699.4" type="line"/>
    </contour>
  </outline>
</glyph>
<glyph name="W" format="2">
  <advance width="829.4"/>
  <unicode hex="0057"/>
  <anchor x="414.4" y="700.0" name="top"/>
  <anchor x="414.4" y="0.0" name="bottom"/>
  <outline>
    <contour>
      <point x="681.96" y="0.0" type="line"/>
      <point x="827.48" y="699.84" type="line"/>
      <point x="645.36" y="701.0400000000001" type="line"/>
      <point x="592.0800000000002" y="171.44" type="line"/>
      <point x="491.08" y="661.48" type="line"/>
      <point x="343.79999999999995" y="661.48" type="line"/>
      <point x="238.03999999999996" y="170.71999999999997" type="line"/>
      <point x="182.36" y="701.0400000000001" type="line"/>
      <point x="1.9200000000000017" y="699.84" type="line"/>
      <point x="143.64000000000001" y="0.0" type="line"/>
      <point x="312.8" y="0.0" type="line"/>
      <point x="411.96" y="431.19999999999993" type="line"/>
      <point x="503.91999999999996" y="0.0" type="line"/>
    </contour>
  </outline>
</glyph>
<glyph name="X" format="2">
  <advance width="641.5200000000001"/>
  <unicode hex="0058"/>
  <outline>
    <contour>
      <point x="1.919999999999999" y="1.0400000000000005" type="line"/>
      <point x="205.67999999999998" y="-1.96" type="line"/>
      <point x="322.04" y="249.52" type="line"/>
      <point x="437.6" y="-1.96" type="line"/>
      <point x="637.4399999999999" y="1.0400000000000005" type="line"/>
      <point x="434.79999999999995" y="361.44" type="line"/>
      <point x="626.4399999999999" y="698.9599999999999" type="line"/>
      <point x="433.64" y="701.36" type="line"/>
      <point x="328.12000000000006" y="465.2" type="line"/>
      <point x="221.32" y="701.36" type="line"/>
      <point x="19.880000000000003" y="698.9599999999999" type="line"/>
      <point x="212.92000000000002" y="357.87999999999994" type="line"/>
    </contour>
  </outline>
</glyph>
<glyph name="Y" format="2">
  <advance width="649.6"/>
  <unicode hex="0059"/>
  <anchor x="324.97999999999996" y="700.0" name="top"/>
  <anchor x="325.64" y="0.0" name="bottom"/>
  <outline>
    <contour>
      <point x="241.06000000000003" y="0.0" type="line"/>
      <point x="410.16" y="0.0" type="line"/>
      <point x="410.16" y="244.9" type="line"/>
      <point x="648.6600000000001" y="698.5" type="line"/>
      <point x="459.88" y="701.5" type="line"/>
      <point x="326.38" y="350.28000000000003" type="line"/>
      <point x="190.11999999999998" y="701.5" type="line"/>
      <point x="0.22000000000000108" y="698.5" type="line"/>
      <point x="241.06000000000003" y="244.9" type="line"/>
    </contour>
  </outline>
</glyph>
<glyph name="Z" format="2">
  <advance width="616.2000000000002"/>
  <unicode hex="005A"/>
  <anchor x="309.6" y="350.0" name="center"/>
  <anchor x="309.6" y="0.0" name="bottom"/>
  <anchor x="311.64" y="700.0" name="top"/>
  <outline>
    <contour>
      <point x="22.720000000000002" y="0.0" type="line"/>
      <point x="594.5600000000001" y="0.0" type="line"/>
      <point x="594.5600000000001" y="137.28000000000003" type="line"/>
      <point x="230.83999999999997" y="137.28000000000003" type="line"/>
      <point x="230.83999999999997" y="139.04" type="line"/>
      <point x="575.56" y="565.8" type="line"/>
      <point x="575.56" y="700.0" type="line"/>
      <point x="40.239999999999995" y="700.0" type="line"/>
      <point x="40.239999999999995" y="562.72" type="line"/>
      <point x="372.20000000000005" y="562.72" type="line"/>
      <point x="372.20000000000005" y="560.96" type="line"/>
      <point x="22.720000000000002" y="134.20000000000002" type="line"/>
    </contour>
  </outline>
</glyph>
<glyph name="bracketleft" format="2">
  <advance width="327.08000000000004"/>
  <unicode hex="005B"/>
  <outline>
    <contour>
      <point x="169.66" y="-97.60000000000001" type="line"/>
      <point x="169.66" y="627.6" type="line"/>
      <point x="306.48" y="627.6" type="line"/>
      <point x="306.48" y="740.0" type="line"/>
      <point x="43.400000000000006" y="740.0" type="line"/>
      <point x="43.400000000000006" y="-210.0" type="line"/>
      <point x="306.48" y="-210.0" type="line"/>
      <point x="306.48" y="-97.60000000000001" type="line"/>
    </contour>
  </outline>
</glyph>
<glyph name="backslash" format="2">
  <advance width="431.64"/>
  <unicode hex="005C"/>
  <outline>
    <contour>
      <point x="132.22" y="740.0" type="line"/>
      <point x="0.16000000000000103" y="740.0" type="line"/>
      <point x="299.84000000000003" y="-210.0" type="line"/>
      <point x="431.48" y="-210.0" type="line"/>
    </contour>
  </outline>
</glyph>
<glyph name="bracketright" format="2">
  <advance width="327.08000000000004"/>
  <unicode hex="005D"/>
  <outline>
    <contour>
      <point x="20.599999999999998" y="-97.60000000000001" type="line"/>
      <point x="20.599999999999998" y="-210.0" type="line"/>
      <point x="283.68000000000006" y="-210.0" type="line"/>
      <point x="283.68000000000006" y="740.0" type="line"/>
      <point x="20.599999999999998" y="740.0" type="line"/>
      <point x="20.599999999999998" y="627.6" type="line"/>
      <point x="157.42000000000002" y="627.6" type="line"/>
      <point x="157.42000000000002" y="-97.60000000000001" type="line"/>
    </contour>
  </outline>
</glyph>
<glyph name="asciicircum" format="2">
  <advance width="529.16"/>
  <unicode hex="005E"/>
  <outline>
    <contour>
      <point x="46.2" y="241.54000000000002" type="line"/>
      <point x="171.03999999999996" y="241.54000000000002" type="line"/>
      <point x="264.58" y="536.84" type="line"/>
      <point x="358.82000000000005" y="241.54000000000002" type="line"/>
      <point x="482.96" y="241.54000000000002" type="line"/>
      <point x="338.56" y="703.0" type="line"/>
      <point x="190.6" y="703.0" type="line"/>
    </contour>
  </outline>
</glyph>
<glyph name="underscore" format="2">
  <advance width="783.5600000000001"/>
  <unicode hex="005F"/>
  <outline>
    <contour>
      <point x="14.0" y="-187.38" type="line"/>
      <point x="769.5600000000001" y="-187.38" type="line"/>
      <point x="769.5600000000001" y="-63.78" type="line"/>
      <point x="14.0" y="-63.78" type="line"/>
    </contour>
  </outline>
</glyph>
<glyph name="a" format="2">
  <advance width="576.9999999999999"/>
  <unicode hex="0061"/>
  <anchor x="570.4" y="12.6" name="ogonek"/>
  <anchor x="289.8" y="0.0" name="bottom"/>
  <anchor x="284.2" y="544.0" name="top"/>
  <outline>
    <contour>
      <point x="27.799999999999997" y="151.4" type="curve" smooth="yes"/>
      <point x="27.799999999999997" y="57.599999999999994"/>
      <point x="80.6" y="-10.0"/>
      <point x="175.2" y="-10.0" type="curve" smooth="yes"/>
      <point x="263.4" y="-10.0"/>
      <point x="324.0" y="22.800000000000004"/>
      <point x="374.4" y="64.2" type="curve"/>
      <point x="389.8" y="12.4"/>
      <point x="422.40000000000003" y="-10.0"/>
      <point x="480.0" y="-10.0" type="curve" smooth="yes"/>
      <point x="518.4000000000001" y="-10.0"/>
      <point x="546.5999999999999" y="-0.4000000000000008"/>
      <point x="570.4" y="13.2" type="curve"/>
      <point x="559.8000000000001" y="131.2" type="line"/>
      <point x="553.4" y="128.4"/>
      <point x="544.5999999999999" y="127.39999999999998"/>
      <point x="538.0" y="127.39999999999998" type="curve" smooth="yes"/>
      <point x="519.2" y="127.39999999999998"/>
      <point x="506.0" y="138.2"/>
      <point x="506.0" y="181.6" type="curve" smooth="yes"/>
      <point x="506.0" y="351.4" type="line" smooth="yes"/>
      <point x="506.0" y="484.6"/>
      <point x="428.79999999999995" y="554.0"/>
      <point x="261.2" y="554.0" type="curve" smooth="yes"/>
      <point x="199.2" y="554.0"/>
      <point x="119.8" y="540.2"/>
      <point x="56.8" y="519.8" type="curve"/>
      <point x="83.80000000000001" y="393.40000000000003" type="line"/>
      <point x="152.0" y="413.59999999999997"/>
      <point x="208.2" y="419.6"/>
      <point x="250.39999999999998" y="419.6" type="curve" smooth="yes"/>
      <point x="320.8" y="419.6"/>
      <point x="363.2" y="395.6"/>
      <point x="363.2" y="349.6" type="curve" smooth="yes"/>
      <point x="363.2" y="329.8" type="line"/>
      <point x="135.6" y="313.6"/>
      <point x="27.799999999999997" y="288.0"/>
    </contour>
    <contour>
      <point x="171.2" y="163.4" type="curve" smooth="yes"/>
      <point x="171.2" y="231.60000000000002"/>
      <point x="241.4" y="241.0"/>
      <point x="363.2" y="245.6" type="curve"/>
      <point x="363.2" y="144.6" type="line"/>
      <point x="325.40000000000003" y="112.2"/>
      <point x="273.59999999999997" y="95.0"/>
      <point x="231.79999999999998" y="95.0" type="curve" smooth="yes"/>
      <point x="195.4" y="95.0"/>
      <point x="171.2" y="114.19999999999999"/>
    </contour>
  </outline>
</glyph>
<glyph name="b" format="2">
  <advance width="583.8199999999999"/>
  <unicode hex="0062"/>
  <outline>
    <contour>
      <point x="45.900000000000006" y="17.66" type="line"/>
      <point x="131.2" y="0.04000000000000026"/>
      <point x="212.0" y="-10.0"/>
      <point x="277.68" y="-10.0" type="curve" smooth="yes"/>
      <point x="475.22" y="-10.0"/>
      <point x="557.4" y="74.24"/>
      <point x="557.4" y="285.48" type="curve" smooth="yes"/>
      <point x="557.4" y="462.47999999999996"/>
      <point x="491.8" y="554.0"/>
      <point x="369.2" y="554.0" type="curve" smooth="yes"/>
      <point x="315.68000000000006" y="554.0"/>
      <point x="262.47999999999996" y="537.4399999999999"/>
      <point x="209.4" y="504.3" type="curve"/>
      <point x="209.4" y="740.0" type="line"/>
      <point x="45.900000000000006" y="740.0" type="line"/>
    </contour>
    <contour>
      <point x="209.4" y="117.6" type="curve"/>
      <point x="209.4" y="387.6" type="line"/>
      <point x="247.42000000000002" y="408.78"/>
      <point x="276.97999999999996" y="417.6"/>
      <point x="307.4" y="417.6" type="curve" smooth="yes"/>
      <point x="360.16" y="417.6"/>
      <point x="388.15999999999997" y="375.73999999999995"/>
      <point x="388.15999999999997" y="272.74" type="curve" smooth="yes"/>
      <point x="388.15999999999997" y="148.08"/>
      <point x="355.62" y="107.33999999999999"/>
      <point x="284.34" y="107.33999999999999" type="curve" smooth="yes"/>
      <point x="261.84" y="107.33999999999999"/>
      <point x="237.0" y="110.6"/>
    </contour>
  </outline>
</glyph>
<glyph name="c" format="2">
  <advance width="518.48"/>
  <unicode hex="0063"/>
  <anchor x="298.80000000000007" y="544.0" name="top"/>
  <anchor x="301.08" y="0.0" name="bottom"/>
  <outline>
    <contour>
      <point x="26.72" y="263.84" type="curve" smooth="yes"/>
      <point x="26.72" y="78.56"/>
      <point x="114.55999999999999" y="-10.0"/>
      <point x="294.87999999999994" y="-10.0" type="curve" smooth="yes"/>
      <point x="363.96000000000004" y="-10.0"/>
      <point x="443.64000000000004" y="0.8000000000000007"/>
      <point x="500.9200000000001" y="16.84" type="curve"/>
      <point x="475.48" y="141.72" type="line"/>
      <point x="423.48" y="131.48000000000002"/>
      <point x="377.48" y="125.72"/>
      <point x="330.76" y="125.72" type="curve" smooth="yes"/>
      <point x="244.07999999999998" y="125.72"/>
      <point x="194.76" y="162.64"/>
      <point x="194.76" y="268.76" type="curve" smooth="yes"/>
      <point x="194.76" y="378.71999999999997"/>
      <point x="240.23999999999998" y="416.7600000000001"/>
      <point x="327.48" y="416.7600000000001" type="curve" smooth="yes"/>
      <point x="370.20000000000005" y="416.7600000000001"/>
      <point x="419.68" y="411.40000000000003"/>
      <point x="467.88" y="401.6" type="curve"/>
      <point x="490.19999999999993" y="532.76" type="line"/>
      <point x="442.0" y="545.9999999999999"/>
      <point x="371.96000000000004" y="554.0"/>
      <point x="309.40000000000003" y="554.0" type="curve" smooth="yes"/>
      <point x="125.67999999999999" y="554.0"/>
      <point x="26.72" y="456.52000000000004"/>
    </contour>
  </outline>
</glyph>
<glyph name="d" format="2">
  <advance width="584.64"/>
  <unicode hex="0064"/>
  <anchor x="292.64" y="275.0" name="center"/>
  <anchor x="286.8" y="740.0" name="top"/>
  <anchor x="589.24" y="740.0" name="topright"/>
  <anchor x="292.64" y="0.0" name="bottom"/>
  <outline>
    <contour>
      <point x="395.28" y="-1.2399999999999998" type="line"/>
      <point x="539.04" y="-1.2399999999999998" type="line"/>
      <point x="539.04" y="740.0" type="line"/>
      <point x="374.40000000000003" y="740.0" type="line"/>
      <point x="374.40000000000003" y="546.92" type="line"/>
      <point x="346.12" y="551.5600000000001"/>
      <point x="315.2" y="554.0"/>
      <point x="287.71999999999997" y="554.0" type="curve" smooth="yes"/>
      <point x="109.92000000000002" y="554.0"/>
      <point x="26.240000000000002" y="459.68"/>
      <point x="26.240000000000002" y="262.35999999999996" type="curve" smooth="yes"/>
      <point x="26.240000000000002" y="85.88"/>
      <point x="92.96000000000001" y="-10.0"/>
      <point x="212.28" y="-10.0" type="curve" smooth="yes"/>
      <point x="269.64" y="-10.0"/>
      <point x="322.24" y="6.200000000000001"/>
      <point x="376.04" y="40.24" type="curve"/>
    </contour>
    <contour>
      <point x="374.24" y="154.23999999999998" type="line"/>
      <point x="337.6" y="134.92"/>
      <point x="306.96" y="125.79999999999998"/>
      <point x="277.20000000000005" y="125.79999999999998" type="curve" smooth="yes"/>
      <point x="224.67999999999998" y="125.79999999999998"/>
      <point x="196.56" y="169.39999999999998"/>
      <point x="196.56" y="278.15999999999997" type="curve" smooth="yes"/>
      <point x="196.56" y="395.92"/>
      <point x="228.68" y="434.68"/>
      <point x="299.12" y="434.68" type="curve" smooth="yes"/>
      <point x="322.68" y="434.68"/>
      <point x="346.52" y="431.84"/>
      <point x="374.24" y="423.64" type="curve"/>
    </contour>
  </outline>
</glyph>
<glyph name="e" format="2">
  <advance width="560.12"/>
  <unicode hex="0065"/>
  <anchor x="480.0400000000001" y="11.319999999999999" name="ogonek"/>
  <anchor x="286.32" y="0.0" name="bottom"/>
  <anchor x="290.04" y="544.0" name="top"/>
  <outline>
    <contour>
      <point x="292.84" y="-10.0" type="curve" smooth="yes"/>
      <point x="384.2399999999999" y="-10.0"/>
      <point x="457.56" y="0.9199999999999999"/>
      <point x="528.1600000000001" y="24.08" type="curve"/>
      <point x="508.75999999999993" y="142.11999999999998" type="line"/>
      <point x="445.48" y="127.95999999999998"/>
      <point x="379.24000000000007" y="117.84"/>
      <point x="322.92" y="117.84" type="curve" smooth="yes"/>
      <point x="233.76" y="117.84"/>
      <point x="195.4" y="147.88"/>
      <point x="195.07999999999998" y="215.16000000000003" type="curve" smooth="yes"/>
      <point x="195.07999999999998" y="219.64"/>
      <point x="195.08" y="223.11999999999998"/>
      <point x="195.68" y="227.60000000000002" type="curve"/>
      <point x="331.96000000000004" y="230.32000000000002"/>
      <point x="462.31999999999994" y="242.07999999999998"/>
      <point x="530.1600000000001" y="247.56" type="curve"/>
      <point x="531.32" y="265.84000000000003"/>
      <point x="532.16" y="289.99999999999994"/>
      <point x="532.16" y="302.92" type="curve" smooth="yes"/>
      <point x="532.16" y="479.96"/>
      <point x="458.84000000000003" y="554.0"/>
      <point x="299.4" y="554.0" type="curve" smooth="yes"/>
      <point x="141.6" y="554.0"/>
      <point x="26.24" y="475.1600000000001"/>
      <point x="26.24" y="260.56" type="curve" smooth="yes"/>
      <point x="26.24" y="68.92000000000002"/>
      <point x="124.16" y="-10.0"/>
    </contour>
    <contour>
      <point x="196.44" y="325.11999999999995" type="curve"/>
      <point x="205.60000000000002" y="416.03999999999996"/>
      <point x="243.60000000000002" y="438.91999999999996"/>
      <point x="289.44" y="438.91999999999996" type="curve" smooth="yes"/>
      <point x="342.15999999999997" y="438.91999999999996"/>
      <point x="366.31999999999994" y="411.92"/>
      <point x="368.79999999999995" y="332.4000000000001" type="curve"/>
      <point x="338.28" y="330.03999999999996"/>
      <point x="267.4" y="326.03999999999996"/>
    </contour>
  </outline>
</glyph>
<glyph name="f" format="2">
  <advance width="399.54"/>
  <unicode hex="0066"/>
  <outline>
    <contour>
      <point x="88.18" y="0.0" type="line"/>
      <point x="248.88" y="0.0" type="line"/>
      <point x="248.88" y="383.96000000000004" type="line"/>
      <point x="379.5" y="383.96000000000004" type="line"/>
      <point x="379.5" y="502.9" type="line"/>
      <point x="249.3" y="502.9" type="line"/>
      <point x="249.3" y="518.54" type="line" smooth="yes"/>
      <point x="249.3" y="592.36"/>
      <point x="278.54" y="621.52"/>
      <point x="333.3" y="621.52" type="curve" smooth="yes"/>
      <point x="359.62" y="621.52"/>
      <point x="390.85999999999996" y="616.82"/>
      <point x="420.28000000000003" y="608.24" type="curve"/>
      <point x="441.90000000000003" y="723.36" type="line"/>
      <point x="392.67999999999995" y="741.9599999999999"/>
      <point x="345.08000000000004" y="750.12"/>
      <point x="294.32" y="750.12" type="curve" smooth="yes"/>
      <point x="161.07999999999998" y="750.12"/>
      <point x="88.18" y="672.88"/>
      <point x="88.18" y="521.06" type="curve" smooth="yes"/>
      <point x="88.18" y="502.9" type="line"/>
      <point x="13.400000000000002" y="492.68" type="line"/>
      <point x="13.400000000000002" y="383.96000000000004" type="line"/>
      <point x="88.18" y="383.96000000000004" type="line"/>
    </contour>
  </outline>
</glyph>
<glyph name="g" format="2">
  <advance width="578.0800000000002"/>
  <unicode hex="0067"/>
  <anchor x="273.16" y="544.0" name="top"/>
  <anchor x="275.56000000000006" y="-214.0" name="bottom"/>
  <outline>
    <contour>
      <point x="255.72000000000003" y="-220.0" type="curve" smooth="yes"/>
      <point x="453.40000000000003" y="-220.0"/>
      <point x="559.04" y="-149.52"/>
      <point x="559.04" y="-25.000000000000004" type="curve" smooth="yes"/>
      <point x="559.04" y="68.32000000000001"/>
      <point x="497.2" y="122.92"/>
      <point x="385.24" y="122.92" type="curve" smooth="yes"/>
      <point x="217.32" y="122.92" type="line" smooth="yes"/>
      <point x="178.47999999999996" y="122.92"/>
      <point x="160.48000000000002" y="136.0"/>
      <point x="160.48000000000002" y="160.39999999999998" type="curve" smooth="yes"/>
      <point x="160.48000000000002" y="183.43999999999997"/>
      <point x="174.20000000000002" y="197.32000000000002"/>
      <point x="200.68" y="211.04" type="curve"/>
      <point x="116.71999999999998" y="234.59999999999997" type="line"/>
      <point x="67.0" y="208.39999999999998"/>
      <point x="35.88" y="171.56"/>
      <point x="35.88" y="115.28000000000003" type="curve" smooth="yes"/>
      <point x="35.88" y="33.4"/>
      <point x="106.75999999999999" y="-6.559999999999997"/>
      <point x="221.44" y="-6.559999999999997" type="curve" smooth="yes"/>
      <point x="330.88" y="-6.559999999999997" type="line" smooth="yes"/>
      <point x="390.44" y="-6.559999999999997"/>
      <point x="405.44" y="-17.119999999999997"/>
      <point x="405.44" y="-44.76" type="curve" smooth="yes"/>
      <point x="405.44" y="-82.84"/>
      <point x="356.12" y="-104.96000000000002"/>
      <point x="267.35999999999996" y="-104.96000000000002" type="curve" smooth="yes"/>
      <point x="174.67999999999998" y="-104.96000000000002"/>
      <point x="141.88" y="-86.52000000000001"/>
      <point x="141.88" y="-46.56000000000001" type="curve" smooth="yes"/>
      <point x="141.88" y="-20.520000000000003"/>
      <point x="155.95999999999998" y="-6.519999999999998"/>
      <point x="182.44" y="8.000000000000004" type="curve"/>
      <point x="98.64" y="38.519999999999996" type="line"/>
      <point x="41.2" y="12.600000000000001"/>
      <point x="11.88" y="-27.439999999999998"/>
      <point x="11.88" y="-82.36" type="curve" smooth="yes"/>
      <point x="11.88" y="-173.6"/>
      <point x="94.43999999999998" y="-220.0"/>
    </contour>
    <contour>
      <point x="272.2" y="183.56" type="curve" smooth="yes"/>
      <point x="425.52" y="183.56"/>
      <point x="504.68" y="246.23999999999995"/>
      <point x="504.68" y="368.56" type="curve" smooth="yes"/>
      <point x="504.68" y="491.48"/>
      <point x="425.52" y="554.16"/>
      <point x="272.2" y="554.16" type="curve" smooth="yes"/>
      <point x="118.88" y="554.16"/>
      <point x="39.72" y="491.48"/>
      <point x="39.72" y="368.56" type="curve" smooth="yes"/>
      <point x="39.72" y="246.23999999999995"/>
      <point x="118.88" y="183.56"/>
    </contour>
    <contour>
      <point x="272.2" y="286.99999999999994" type="curve" smooth="yes"/>
      <point x="220.2" y="286.99999999999994"/>
      <point x="195.12" y="308.12000000000006"/>
      <point x="195.12" y="368.56" type="curve" smooth="yes"/>
      <point x="195.12" y="430.2"/>
      <point x="220.2" y="451.32"/>
      <point x="272.2" y="451.32" type="curve" smooth="yes"/>
      <point x="324.2" y="451.32"/>
      <point x="349.28000000000003" y="430.2"/>
      <point x="349.28000000000003" y="368.56" type="curve" smooth="yes"/>
      <point x="349.28000000000003" y="308.12000000000006"/>
      <point x="324.2" y="286.99999999999994"/>
    </contour>
    <contour>
      <point x="468.40000000000003" y="423.67999999999995" type="line"/>
      <point x="479.8" y="444.12"/>
      <point x="496.5199999999999" y="453.6"/>
      <point x="517.9599999999999" y="453.6" type="curve" smooth="yes"/>
      <point x="530.6800000000001" y="453.6"/>
      <point x="543.5600000000001" y="452.20000000000005"/>
      <point x="554.36" y="449.28000000000003" type="curve"/>
      <point x="573.16" y="572.92" type="line"/>
      <point x="558.0400000000001" y="577.9599999999999"/>
      <point x="540.3999999999999" y="580.76"/>
      <point x="520.68" y="580.76" type="curve" smooth="yes"/>
      <point x="463.80000000000007" y="580.76"/>
      <point x="424.84" y="556.4799999999999"/>
      <point x="406.20000000000005" y="507.64000000000004" type="curve"/>
    </contour>
  </outline>
</glyph>
<glyph name="h" format="2">
  <advance width="579.16"/>
  <unicode hex="0068"/>
  <anchor x="286.48" y="395.0" name="center"/>
  <anchor x="289.28000000000003" y="0.0" name="bottom"/>
  <anchor x="292.36" y="740.0" name="top"/>
  <outline>
    <contour>
      <point x="45.60000000000001" y="0.0" type="line"/>
      <point x="210.0" y="0.0" type="line"/>
      <point x="210.0" y="389.52" type="line"/>
      <point x="243.79999999999998" y="405.4"/>
      <point x="272.56000000000006" y="415.72"/>
      <point x="304.67999999999995" y="415.72" type="curve" smooth="yes"/>
      <point x="345.72" y="415.72"/>
      <point x="369.4" y="394.28"/>
      <point x="369.4" y="344.08" type="curve" smooth="yes"/>
      <point x="369.4" y="0.0" type="line"/>
      <point x="534.0400000000001" y="0.0" type="line"/>
      <point x="534.0400000000001" y="395.56" type="line" smooth="yes"/>
      <point x="534.0400000000001" y="497.24000000000007"/>
      <point x="478.4800000000001" y="554.0"/>
      <point x="375.0" y="554.0" type="curve" smooth="yes"/>
      <point x="316.28" y="554.0"/>
      <point x="266.36000000000007" y="536.4399999999999"/>
      <point x="210.0" y="501.11999999999995" type="curve"/>
      <point x="210.0" y="740.0" type="line"/>
      <point x="45.60000000000001" y="740.0" type="line"/>
    </contour>
  </outline>
</glyph>
<glyph name="i" format="2">
  <advance width="255.3"/>
  <unicode hex="0069"/>
  <anchor x="209.28" y="0.0" name="ogonek"/>
  <anchor x="127.86" y="0.0" name="bottom"/>
  <outline>
    <contour>
      <point x="127.86" y="601.68" type="curve" smooth="yes"/>
      <point x="195.58" y="601.68"/>
      <point x="223.97999999999996" y="628.16"/>
      <point x="223.97999999999996" y="683.78" type="curve" smooth="yes"/>
      <point x="223.97999999999996" y="740.24"/>
      <point x="194.74" y="766.3"/>
      <point x="127.86" y="766.3" type="curve" smooth="yes"/>
      <point x="60.56" y="766.3"/>
      <point x="31.320000000000007" y="740.24"/>
      <point x="31.320000000000007" y="683.78" type="curve" smooth="yes"/>
      <point x="31.320000000000007" y="627.74"/>
      <point x="60.860000000000014" y="601.68"/>
    </contour>
    <contour>
      <point x="45.900000000000006" y="0.0" type="line"/>
      <point x="209.4" y="0.0" type="line"/>
      <point x="209.4" y="544.0" type="line"/>
      <point x="45.900000000000006" y="544.0" type="line"/>
    </contour>
  </outline>
</glyph>
<glyph name="j" format="2">
  <advance width="263.2"/>
  <unicode hex="006A"/>
  <outline>
    <contour>
      <point x="217.42" y="544.0" type="line"/>
      <point x="53.92" y="544.0" type="line"/>
      <point x="53.92" y="36.81999999999999" type="line" smooth="yes"/>
      <point x="53.92" y="-30.020000000000003"/>
      <point x="36.2" y="-59.82"/>
      <point x="-4.559999999999999" y="-69.42" type="curve" smooth="yes"/>
      <point x="-13.099999999999996" y="-71.04"/>
      <point x="-20.799999999999997" y="-71.1"/>
      <point x="-30.900000000000002" y="-70.02000000000001" type="curve"/>
      <point x="-42.22" y="-207.38" type="line"/>
      <point x="-15.819999999999997" y="-211.6"/>
      <point x="16.28" y="-213.16"/>
      <point x="39.459999999999994" y="-211.35999999999999" type="curve" smooth="yes"/>
      <point x="165.83999999999997" y="-200.5"/>
      <point x="217.42" y="-120.24"/>
      <point x="217.42" y="28.139999999999997" type="curve" smooth="yes"/>
    </contour>
    <contour>
      <point x="135.64" y="601.68" type="curve" smooth="yes"/>
      <point x="203.18" y="601.68"/>
      <point x="231.76" y="628.16"/>
      <point x="231.76" y="683.78" type="curve" smooth="yes"/>
      <point x="231.76" y="740.24"/>
      <point x="202.34" y="766.3"/>
      <point x="135.64" y="766.3" type="curve" smooth="yes"/>
      <point x="68.34" y="766.3"/>
      <point x="39.10000000000001" y="740.24"/>
      <point x="39.10000000000001" y="683.78" type="curve" smooth="yes"/>
      <point x="39.10000000000001" y="627.74"/>
      <point x="68.64" y="601.68"/>
    </contour>
  </outline>
</glyph>
<glyph name="l" format="2">
  <advance width="314.24"/>
  <unicode hex="006C"/>
  <anchor x="157.20000000000002" y="395.0" name="center"/>
  <anchor x="127.86" y="740.0" name="top"/>
  <anchor x="259.9" y="740.0" name="topright"/>
  <anchor x="178.4" y="0.0" name="bottom"/>
  <outline>
    <contour>
      <point x="209.4" y="740.0" type="line"/>
      <point x="45.900000000000006" y="740.0" type="line"/>
      <point x="45.900000000000006" y="176.55999999999997" type="line" smooth="yes"/>
      <point x="45.900000000000006" y="37.3"/>
      <point x="99.84" y="-10.0"/>
      <point x="205.35999999999999" y="-10.0" type="curve" smooth="yes"/>
      <point x="249.12" y="-10.0"/>
      <point x="286.58000000000004" y="0.9999999999999987"/>
      <point x="315.65999999999997" y="13.899999999999999" type="curve"/>
      <point x="300.74" y="138.57999999999998" type="line"/>
      <point x="282.46" y="133.66"/>
      <point x="267.26" y="130.82"/>
      <point x="254.78" y="130.82" type="curve" smooth="yes"/>
      <point x="227.64" y="130.82"/>
      <point x="209.4" y="141.07999999999998"/>
      <point x="209.4" y="191.82000000000002" type="curve" smooth="yes"/>
    </contour>
  </outline>
</glyph>
<glyph name="m" format="2">
  <advance width="863.32"/>
  <unicode hex="006D"/>
  <outline>
    <contour>
      <point x="45.900000000000006" y="0.0" type="line"/>
      <point x="209.82" y="0.0" type="line"/>
      <point x="209.82" y="389.64000000000004" type="line"/>
      <point x="236.92000000000002" y="404.78"/>
      <point x="261.96000000000004" y="414.62"/>
      <point x="290.09999999999997" y="414.62" type="curve" smooth="yes"/>
      <point x="334.54" y="414.62"/>
      <point x="350.42" y="383.84"/>
      <point x="350.42" y="343.78000000000003" type="curve" smooth="yes"/>
      <point x="350.42" y="0.0" type="line"/>
      <point x="514.3399999999999" y="0.0" type="line"/>
      <point x="514.3399999999999" y="356.66" type="line" smooth="yes"/>
      <point x="514.3399999999999" y="367.26"/>
      <point x="513.56" y="379.04"/>
      <point x="511.06" y="389.7" type="curve"/>
      <point x="536.3600000000001" y="403.18"/>
      <point x="563.96" y="415.5"/>
      <point x="594.66" y="415.5" type="curve" smooth="yes"/>
      <point x="639.3000000000001" y="415.5"/>
      <point x="654.34" y="384.88"/>
      <point x="654.34" y="344.26" type="curve" smooth="yes"/>
      <point x="654.34" y="0.0" type="line"/>
      <point x="818.26" y="0.0" type="line"/>
      <point x="818.26" y="397.59999999999997" type="line" smooth="yes"/>
      <point x="818.26" y="488.78"/>
      <point x="769.9000000000001" y="554.0"/>
      <point x="670.82" y="554.0" type="curve" smooth="yes"/>
      <point x="605.5" y="554.0"/>
      <point x="552.44" y="533.8000000000001"/>
      <point x="486.12000000000006" y="491.98" type="curve"/>
      <point x="463.38000000000005" y="531.92"/>
      <point x="426.2" y="553.4"/>
      <point x="363.17999999999995" y="553.4" type="curve" smooth="yes"/>
      <point x="307.0" y="553.4"/>
      <point x="253.54" y="535.68"/>
      <point x="194.0" y="496.91999999999996" type="curve"/>
      <point x="194.0" y="544.0" type="line"/>
      <point x="45.900000000000006" y="544.0" type="line"/>
    </contour>
  </outline>
</glyph>
<glyph name="n" format="2">
  <advance width="579.04"/>
  <unicode hex="006E"/>
  <anchor x="289.0" y="544.0" name="top"/>
  <anchor x="289.6" y="0.0" name="bottom"/>
  <outline>
    <contour>
      <point x="45.900000000000006" y="0.0" type="line"/>
      <point x="209.82" y="0.0" type="line"/>
      <point x="209.82" y="389.76" type="line"/>
      <point x="243.44" y="405.58000000000004"/>
      <point x="272.68" y="416.62"/>
      <point x="305.22" y="416.62" type="curve" smooth="yes"/>
      <point x="346.26000000000005" y="416.62"/>
      <point x="370.06000000000006" y="394.76"/>
      <point x="370.06000000000006" y="344.38" type="curve" smooth="yes"/>
      <point x="370.06000000000006" y="0.0" type="line"/>
      <point x="533.9800000000001" y="0.0" type="line"/>
      <point x="533.9800000000001" y="397.72" type="line" smooth="yes"/>
      <point x="533.9800000000001" y="492.97999999999996"/>
      <point x="481.6600000000001" y="554.0"/>
      <point x="374.94000000000005" y="554.0" type="curve" smooth="yes"/>
      <point x="311.47999999999996" y="554.0"/>
      <point x="259.62" y="536.1800000000001"/>
      <point x="194.0" y="496.85999999999996" type="curve"/>
      <point x="194.0" y="544.0" type="line"/>
      <point x="45.900000000000006" y="544.0" type="line"/>
    </contour>
  </outline>
</glyph>
<glyph name="o" format="2">
  <advance width="580.6"/>
  <unicode hex="006F"/>
  <anchor x="383.78000000000003" y="4.6000000000000005" name="ogonek"/>
  <anchor x="290.3" y="544.0" name="top"/>
  <anchor x="439.76" y="535.2" name="topright"/>
  <anchor x="290.46" y="0.0" name="bottom"/>
  <outline>
    <contour>
      <point x="26.540000000000003" y="273.22" type="curve" smooth="yes"/>
      <point x="26.540000000000003" y="92.62"/>
      <point x="94.62" y="-10.0"/>
      <point x="290.46" y="-10.0" type="curve" smooth="yes"/>
      <point x="485.98" y="-10.0"/>
      <point x="554.06" y="92.62"/>
      <point x="554.06" y="273.22" type="curve" smooth="yes"/>
      <point x="554.06" y="448.61999999999995"/>
      <point x="492.94000000000005" y="554.0"/>
      <point x="290.46" y="554.0" type="curve" smooth="yes"/>
      <point x="87.42000000000002" y="554.0"/>
      <point x="26.540000000000003" y="448.61999999999995"/>
    </contour>
    <contour>
      <point x="195.1" y="273.06" type="curve" smooth="yes"/>
      <point x="195.1" y="391.34"/>
      <point x="218.54000000000002" y="429.15999999999997"/>
      <point x="290.3" y="429.15999999999997" type="curve" smooth="yes"/>
      <point x="361.8" y="429.15999999999997"/>
      <point x="385.26" y="391.34"/>
      <point x="385.26" y="273.06" type="curve" smooth="yes"/>
      <point x="385.26" y="151.81999999999996"/>
      <point x="358.20000000000005" y="115.25999999999999"/>
      <point x="290.3" y="115.25999999999999" type="curve" smooth="yes"/>
      <point x="221.98" y="115.25999999999999"/>
      <point x="195.1" y="151.81999999999996"/>
    </contour>
  </outline>
</glyph>
<glyph name="p" format="2">
  <advance width="584.24"/>
  <unicode hex="0070"/>
  <outline>
    <contour>
      <point x="45.900000000000006" y="-210.0" type="line"/>
      <point x="210.1" y="-210.0" type="line"/>
      <point x="210.1" y="-2.379999999999998" type="line"/>
      <point x="240.68" y="-7.4399999999999995"/>
      <point x="270.34000000000003" y="-10.0"/>
      <point x="296.16" y="-10.0" type="curve" smooth="yes"/>
      <point x="473.96000000000004" y="-10.0"/>
      <point x="557.8199999999999" y="84.74000000000001"/>
      <point x="557.8199999999999" y="282.12" type="curve" smooth="yes"/>
      <point x="557.8199999999999" y="458.28"/>
      <point x="491.38" y="554.0"/>
      <point x="372.14000000000004" y="554.0" type="curve" smooth="yes"/>
      <point x="313.71999999999997" y="554.0"/>
      <point x="258.98" y="537.02"/>
      <point x="199.04" y="499.54" type="curve"/>
      <point x="194.0" y="545.8" type="line"/>
      <point x="45.900000000000006" y="545.8" type="line"/>
    </contour>
    <contour>
      <point x="284.76" y="109.02" type="curve" smooth="yes"/>
      <point x="261.84" y="109.02"/>
      <point x="237.0" y="112.69999999999999"/>
      <point x="209.82" y="120.53999999999999" type="curve"/>
      <point x="209.82" y="390.54" type="line"/>
      <point x="247.0" y="410.88"/>
      <point x="276.97999999999996" y="419.28"/>
      <point x="306.98" y="419.28" type="curve" smooth="yes"/>
      <point x="360.16" y="419.28"/>
      <point x="388.15999999999997" y="376.58000000000004"/>
      <point x="388.15999999999997" y="266.02000000000004" type="curve" smooth="yes"/>
      <point x="388.15999999999997" y="148.92000000000002"/>
      <point x="355.62" y="109.02"/>
    </contour>
  </outline>
</glyph>
<glyph name="q" format="2">
  <advance width="584.6600000000001"/>
  <unicode hex="0071"/>
  <outline>
    <contour>
      <point x="538.76" y="528.1999999999999" type="line"/>
      <point x="456.28" y="544.98"/>
      <point x="375.6" y="554.0"/>
      <point x="306.97999999999996" y="554.0" type="curve" smooth="yes"/>
      <point x="113.64000000000001" y="554.0"/>
      <point x="26.42" y="466.82000000000005"/>
      <point x="26.42" y="270.28" type="curve" smooth="yes"/>
      <point x="26.42" y="83.80000000000001"/>
      <point x="91.78" y="-10.0"/>
      <point x="215.46" y="-10.0" type="curve" smooth="yes"/>
      <point x="269.82" y="-10.0"/>
      <point x="323.02" y="6.560000000000002"/>
      <point x="375.26" y="39.28" type="curve"/>
      <point x="375.26" y="-210.0" type="line"/>
      <point x="538.76" y="-210.0" type="line"/>
    </contour>
    <contour>
      <point x="374.84000000000003" y="425.38" type="curve"/>
      <point x="374.84000000000003" y="155.56" type="line"/>
      <point x="337.66" y="134.79999999999998"/>
      <point x="307.67999999999995" y="125.56"/>
      <point x="277.26" y="125.56" type="curve" smooth="yes"/>
      <point x="224.67999999999998" y="125.56"/>
      <point x="196.5" y="167.78"/>
      <point x="196.5" y="270.41999999999996" type="curve" smooth="yes"/>
      <point x="196.5" y="395.08"/>
      <point x="229.04" y="435.82"/>
      <point x="300.32000000000005" y="435.82" type="curve" smooth="yes"/>
      <point x="322.50000000000006" y="435.82"/>
      <point x="347.66" y="432.56"/>
    </contour>
  </outline>
</glyph>
<glyph name="r" format="2">
  <advance width="418.64"/>
  <unicode hex="0072"/>
  <anchor x="221.54" y="544.0" name="top"/>
  <anchor x="127.44" y="0.0" name="bottom"/>
  <outline>
    <contour>
      <point x="193.57999999999998" y="544.0" type="line"/>
      <point x="45.900000000000006" y="544.0" type="line"/>
      <point x="45.900000000000006" y="0.0" type="line"/>
      <point x="208.98000000000002" y="0.0" type="line"/>
      <point x="208.98000000000002" y="365.14000000000004" type="line"/>
      <point x="250.5" y="394.09999999999997"/>
      <point x="285.23999999999995" y="403.88"/>
      <point x="319.56" y="403.88" type="curve" smooth="yes"/>
      <point x="340.04" y="403.88"/>
      <point x="364.8" y="400.88"/>
      <point x="389.32000000000005" y="394.76" type="curve"/>
      <point x="414.91999999999996" y="543.1600000000001" type="line"/>
      <point x="390.34000000000003" y="550.7400000000001"/>
      <point x="366.38" y="554.0"/>
      <point x="344.56000000000006" y="554.0" type="curve" smooth="yes"/>
      <point x="287.06" y="554.0"/>
      <point x="249.62" y="533.4399999999999"/>
      <point x="193.57999999999998" y="480.72" type="curve"/>
    </contour>
  </outline>
</glyph>
<glyph name="s" format="2">
  <advance width="474.8"/>
  <unicode hex="0073"/>
  <anchor x="239.20000000000002" y="544.0" name="top"/>
  <anchor x="240.6" y="0.0" name="bottom"/>
  <outline>
    <contour>
      <point x="19.8" y="20.599999999999998" type="line"/>
      <point x="82.4" y="-0.7999999999999998"/>
      <point x="147.8" y="-10.0"/>
      <point x="219.8" y="-10.0" type="curve" smooth="yes"/>
      <point x="349.40000000000003" y="-10.0"/>
      <point x="457.79999999999995" y="35.8"/>
      <point x="457.79999999999995" y="170.0" type="curve" smooth="yes"/>
      <point x="457.79999999999995" y="278.8"/>
      <point x="388.2" y="315.2"/>
      <point x="292.2" y="335.40000000000003" type="curve" smooth="yes"/>
      <point x="220.0" y="350.4"/>
      <point x="181.99999999999997" y="355.6"/>
      <point x="181.99999999999997" y="389.0" type="curve" smooth="yes"/>
      <point x="181.99999999999997" y="417.2"/>
      <point x="207.0" y="429.99999999999994"/>
      <point x="253.60000000000002" y="429.99999999999994" type="curve" smooth="yes"/>
      <point x="319.40000000000003" y="429.99999999999994"/>
      <point x="364.0" y="420.0"/>
      <point x="409.19999999999993" y="406.2" type="curve"/>
      <point x="429.2" y="526.4000000000001" type="line"/>
      <point x="381.8" y="542.5999999999999"/>
      <point x="321.4" y="554.0"/>
      <point x="253.60000000000002" y="554.0" type="curve" smooth="yes"/>
      <point x="104.2" y="554.0"/>
      <point x="27.8" y="494.0"/>
      <point x="27.8" y="373.99999999999994" type="curve" smooth="yes"/>
      <point x="27.8" y="287.8"/>
      <point x="74.2" y="238.4"/>
      <point x="163.6" y="217.59999999999997" type="curve" smooth="yes"/>
      <point x="245.4" y="198.4"/>
      <point x="299.0" y="190.20000000000002"/>
      <point x="299.0" y="154.39999999999998" type="curve" smooth="yes"/>
      <point x="299.0" y="125.6"/>
      <point x="275.4" y="110.19999999999997"/>
      <point x="223.0" y="110.19999999999997" type="curve" smooth="yes"/>
      <point x="167.6" y="110.19999999999997"/>
      <point x="86.6" y="122.2"/>
      <point x="38.199999999999996" y="138.8" type="curve"/>
    </contour>
  </outline>
</glyph>
<glyph name="t" format="2">
  <advance width="412.94"/>
  <unicode hex="0074"/>
  <anchor x="201.42" y="275.0" name="center"/>
  <anchor x="175.15999999999997" y="660.38" name="top"/>
  <anchor x="317.38" y="771.1" name="topright"/>
  <anchor x="233.48000000000002" y="0.0" name="bottom"/>
  <outline>
    <contour>
      <point x="249.12000000000006" y="-10.0" type="curve" smooth="yes"/>
      <point x="297.72" y="-10.0"/>
      <point x="349.62" y="-3.1799999999999993"/>
      <point x="405.8400000000001" y="15.640000000000004" type="curve"/>
      <point x="383.96000000000004" y="140.29999999999998" type="line"/>
      <point x="353.86" y="133.0"/>
      <point x="329.6" y="128.4"/>
      <point x="306.71999999999997" y="128.4" type="curve" smooth="yes"/>
      <point x="265.92" y="128.4"/>
      <point x="247.1" y="146.96"/>
      <point x="247.1" y="200.88000000000002" type="curve" smooth="yes"/>
      <point x="247.1" y="425.06000000000006" type="line"/>
      <point x="384.24" y="425.06000000000006" type="line"/>
      <point x="384.24" y="544.0" type="line"/>
      <point x="247.1" y="544.0" type="line"/>
      <point x="247.1" y="660.38" type="line"/>
      <point x="103.03999999999999" y="660.38" type="line"/>
      <point x="83.6" y="544.0" type="line"/>
      <point x="6.1" y="534.1999999999999" type="line"/>
      <point x="6.1" y="425.48" type="line"/>
      <point x="83.6" y="425.48" type="line"/>
      <point x="83.6" y="187.72" type="line" smooth="yes"/>
      <point x="83.6" y="48.78000000000001"/>
      <point x="141.10000000000002" y="-10.0"/>
    </contour>
  </outline>
</glyph>
<glyph name="u" format="2">
  <advance width="591.1600000000001"/>
  <unicode hex="0075"/>
  <anchor x="588.64" y="16.36" name="ogonek"/>
  <anchor x="289.85999999999996" y="544.0" name="top"/>
  <anchor x="527.5600000000001" y="544.0" name="topright"/>
  <anchor x="296.15999999999997" y="0.0" name="bottom"/>
  <outline>
    <contour>
      <point x="205.96" y="-10.0" type="curve" smooth="yes"/>
      <point x="272.98" y="-10.0"/>
      <point x="326.52000000000004" y="10.760000000000002"/>
      <point x="383.74" y="45.24" type="curve"/>
      <point x="403.70000000000005" y="9.82"/>
      <point x="434.99999999999994" y="-10.0"/>
      <point x="484.72" y="-10.0" type="curve" smooth="yes"/>
      <point x="525.84" y="-10.0"/>
      <point x="563.9200000000001" y="1.6399999999999997"/>
      <point x="588.64" y="16.36" type="curve"/>
      <point x="575.3199999999999" y="133.76" type="line"/>
      <point x="568.4200000000001" y="130.72"/>
      <point x="560.76" y="129.29999999999998"/>
      <point x="553.5" y="129.29999999999998" type="curve" smooth="yes"/>
      <point x="538.46" y="129.29999999999998"/>
      <point x="527.5600000000001" y="138.7"/>
      <point x="527.5600000000001" y="168.82" type="curve" smooth="yes"/>
      <point x="527.5600000000001" y="544.0" type="line"/>
      <point x="364.06000000000006" y="544.0" type="line"/>
      <point x="364.06000000000006" y="152.44" type="line"/>
      <point x="330.48" y="135.6"/>
      <point x="304.38" y="126.25999999999999"/>
      <point x="272.74" y="126.25999999999999" type="curve" smooth="yes"/>
      <point x="233.05999999999997" y="126.25999999999999"/>
      <point x="208.98000000000002" y="147.51999999999998"/>
      <point x="208.98000000000002" y="193.29999999999998" type="curve" smooth="yes"/>
      <point x="208.98000000000002" y="544.0" type="line"/>
      <point x="45.06" y="544.0" type="line"/>
      <point x="45.06" y="154.38" type="line" smooth="yes"/>
      <point x="45.06" y="42.2"/>
      <point x="109.66000000000001" y="-10.0"/>
    </contour>
  </outline>
</glyph>
<glyph name="v" format="2">
  <advance width="583.5399999999998"/>
  <unicode hex="0076"/>
  <outline>
    <contour>
      <point x="197.44000000000003" y="0.0" type="line"/>
      <point x="383.88" y="0.0" type="line"/>
      <point x="576.6600000000001" y="542.92" type="line"/>
      <point x="404.5400000000001" y="545.08" type="line"/>
      <point x="296.38" y="140.72" type="line"/>
      <point x="180.39999999999998" y="545.08" type="line"/>
      <point x="6.18" y="542.92" type="line"/>
    </contour>
  </outline>
</glyph>
<glyph name="w" format="2">
  <advance width="800.36"/>
  <unicode hex="0077"/>
  <anchor x="399.82" y="544.0" name="top"/>
  <anchor x="399.82" y="0.0" name="bottom"/>
  <outline>
    <contour>
      <point x="131.52" y="0.0" type="line"/>
      <point x="324.34" y="0.0" type="line"/>
      <point x="397.58" y="365.08" type="line"/>
      <point x="475.03999999999996" y="0.0" type="line"/>
      <point x="662.96" y="0.0" type="line"/>
      <point x="791.14" y="542.66" type="line"/>
      <point x="630.32" y="545.18" type="line"/>
      <point x="565.66" y="145.7" type="line"/>
      <point x="486.68" y="544.0" type="line"/>
      <point x="312.68" y="544.0" type="line"/>
      <point x="235.3" y="145.54" type="line"/>
      <point x="173.26" y="545.18" type="line"/>
      <point x="8.22" y="542.66" type="line"/>
    </contour>
  </outline>
</glyph>
<glyph name="x" format="2">
  <advance width="583.2800000000001"/>
  <unicode hex="0078"/>
  <outline>
    <contour>
      <point x="4.680000000000001" y="0.15999999999999995" type="line"/>
      <point x="200.12" y="-2.32" type="line"/>
      <point x="294.0" y="182.12" type="line"/>
      <point x="388.12000000000006" y="-2.32" type="line"/>
      <point x="579.24" y="0.15999999999999995" type="line"/>
      <point x="398.03999999999996" y="278.44000000000005" type="line"/>
      <point x="569.36" y="542.9599999999999" type="line"/>
      <point x="387.04" y="546.0400000000001" type="line"/>
      <point x="297.03999999999996" y="364.91999999999996" type="line"/>
      <point x="209.24" y="545.8" type="line"/>
      <point x="18.599999999999998" y="542.8" type="line"/>
      <point x="189.12" y="274.71999999999997" type="line"/>
    </contour>
  </outline>
</glyph>
<glyph name="y" format="2">
  <advance width="587.3800000000001"/>
  <unicode hex="0079"/>
  <anchor x="279.98" y="544.0" name="top"/>
  <anchor x="483.4200000000001" y="0.0" name="bottom"/>
  <outline>
    <contour>
      <point x="162.24" y="-209.16" type="line"/>
      <point x="333.56" y="-211.44000000000003" type="line"/>
      <point x="581.02" y="543.64" type="line"/>
      <point x="409.98" y="545.56" type="line"/>
      <point x="300.76" y="132.48" type="line"/>
      <point x="186.31999999999996" y="545.5600000000001" type="line"/>
      <point x="6.36" y="543.4" type="line"/>
      <point x="206.49999999999997" y="0.0" type="line"/>
      <point x="229.24" y="0.0" type="line"/>
    </contour>
  </outline>
</glyph>
<glyph name="z" format="2">
  <advance width="521.36"/>
  <unicode hex="007A"/>
  <anchor x="263.8" y="544.0" name="top"/>
  <outline>
    <contour>
      <point x="24.880000000000003" y="0.0" type="line"/>
      <point x="498.32000000000005" y="0.0" type="line"/>
      <point x="498.32000000000005" y="127.08" type="line"/>
      <point x="227.36" y="127.08" type="line"/>
      <point x="483.68" y="432.6" type="line"/>
      <point x="483.68" y="544.0" type="line"/>
      <point x="36.040000000000006" y="544.0" type="line"/>
      <point x="36.040000000000006" y="418.0" type="line"/>
      <point x="285.2" y="418.0" type="line"/>
      <point x="24.880000000000003" y="112.72" type="line"/>
    </contour>
  </outline>
</glyph>
<glyph name="braceleft" format="2">
  <advance width="331.22"/>
  <unicode hex="007B"/>
  <outline>
    <contour>
      <point x="64.98000000000002" y="-44.94" type="curve" smooth="yes"/>
      <point x="64.98000000000002" y="-157.48"/>
      <point x="131.01999999999998" y="-210.42"/>
      <point x="220.89999999999998" y="-210.42" type="curve" smooth="yes"/>
      <point x="305.28" y="-210.42" type="line"/>
      <point x="305.28" y="-98.02000000000001" type="line"/>
      <point x="262.9" y="-98.02000000000001" type="line" smooth="yes"/>
      <point x="220.3" y="-98.02000000000001"/>
      <point x="204.54000000000002" y="-67.68"/>
      <point x="204.54000000000002" y="-26.04" type="curve" smooth="yes"/>
      <point x="204.54000000000002" y="28.240000000000002"/>
      <point x="235.72" y="79.32"/>
      <point x="235.72" y="140.68" type="curve" smooth="yes"/>
      <point x="235.72" y="185.26"/>
      <point x="223.16" y="234.46"/>
      <point x="166.96000000000004" y="265.0" type="curve"/>
      <point x="223.04000000000002" y="296.21999999999997"/>
      <point x="235.72" y="344.08000000000004"/>
      <point x="235.72" y="388.65999999999997" type="curve" smooth="yes"/>
      <point x="235.72" y="449.24"/>
      <point x="204.54000000000002" y="499.72"/>
      <point x="204.54000000000002" y="555.38" type="curve" smooth="yes"/>
      <point x="204.54000000000002" y="597.02"/>
      <point x="220.3" y="627.6"/>
      <point x="262.9" y="627.6" type="curve" smooth="yes"/>
      <point x="305.28" y="627.6" type="line"/>
      <point x="305.28" y="740.0" type="line"/>
      <point x="220.89999999999998" y="740.0" type="line" smooth="yes"/>
      <point x="131.01999999999998" y="740.0"/>
      <point x="64.98000000000002" y="686.8199999999999"/>
      <point x="64.98000000000002" y="574.28" type="curve" smooth="yes"/>
      <point x="64.98000000000002" y="486.5"/>
      <point x="101.06" y="436.92"/>
      <point x="101.06" y="383.76" type="curve" smooth="yes"/>
      <point x="101.06" y="349.3"/>
      <point x="92.12000000000002" y="322.6"/>
      <point x="60.379999999999995" y="322.6" type="curve" smooth="yes"/>
      <point x="42.32" y="322.6" type="line"/>
      <point x="42.32" y="206.98" type="line"/>
      <point x="60.379999999999995" y="206.98" type="line" smooth="yes"/>
      <point x="92.12000000000002" y="206.98"/>
      <point x="101.06" y="180.22"/>
      <point x="101.06" y="145.58" type="curve" smooth="yes"/>
      <point x="101.06" y="92.11999999999999"/>
      <point x="64.98000000000002" y="41.339999999999996"/>
    </contour>
  </outline>
</glyph>
<glyph name="bar" format="2">
  <advance width="228.12"/>
  <unicode hex="007C"/>
  <outline>
    <contour>
      <point x="180.76" y="790.4200000000001" type="line"/>
      <point x="47.36000000000001" y="790.4200000000001" type="line"/>
      <point x="47.36000000000001" y="-210.0" type="line"/>
      <point x="180.76" y="-210.0" type="line"/>
    </contour>
  </outline>
</glyph>
<glyph name="braceright" format="2">
  <advance width="331.22"/>
  <unicode hex="007D"/>
  <outline>
    <contour>
      <point x="25.94" y="-98.02000000000001" type="line"/>
      <point x="25.94" y="-210.42" type="line"/>
      <point x="110.5" y="-210.42" type="line" smooth="yes"/>
      <point x="200.38" y="-210.42"/>
      <point x="266.42" y="-157.48"/>
      <point x="266.42" y="-44.94" type="curve" smooth="yes"/>
      <point x="266.42" y="41.339999999999996"/>
      <point x="230.34" y="92.11999999999999"/>
      <point x="230.34" y="145.58" type="curve" smooth="yes"/>
      <point x="230.34" y="180.22"/>
      <point x="239.28" y="206.98"/>
      <point x="271.02" y="206.98" type="curve" smooth="yes"/>
      <point x="288.9" y="206.98" type="line"/>
      <point x="288.9" y="322.6" type="line"/>
      <point x="271.02" y="322.6" type="line" smooth="yes"/>
      <point x="239.1" y="322.6"/>
      <point x="230.34" y="349.3"/>
      <point x="230.34" y="383.76" type="curve" smooth="yes"/>
      <point x="230.34" y="436.92"/>
      <point x="266.42" y="486.5"/>
      <point x="266.42" y="574.28" type="curve" smooth="yes"/>
      <point x="266.42" y="686.8199999999999"/>
      <point x="200.38" y="740.0"/>
      <point x="110.5" y="740.0" type="curve" smooth="yes"/>
      <point x="25.94" y="740.0" type="line"/>
      <point x="25.94" y="627.6" type="line"/>
      <point x="61.36000000000001" y="627.6" type="line" smooth="yes"/>
      <point x="103.78" y="627.6"/>
      <point x="119.72" y="597.02"/>
      <point x="119.72" y="555.38" type="curve" smooth="yes"/>
      <point x="119.72" y="499.72"/>
      <point x="88.53999999999999" y="449.24"/>
      <point x="88.53999999999999" y="388.65999999999997" type="curve" smooth="yes"/>
      <point x="88.53999999999999" y="344.08000000000004"/>
      <point x="101.03999999999999" y="296.21999999999997"/>
      <point x="157.29999999999998" y="265.0" type="curve"/>
      <point x="100.92" y="234.46"/>
      <point x="88.53999999999999" y="185.26"/>
      <point x="88.53999999999999" y="140.68" type="curve" smooth="yes"/>
      <point x="88.53999999999999" y="79.32"/>
      <point x="119.72" y="28.240000000000002"/>
      <point x="119.72" y="-26.04" type="curve" smooth="yes"/>
      <point x="119.72" y="-67.68"/>
      <point x="103.78" y="-98.02000000000001"/>
      <point x="61.36000000000001" y="-98.02000000000001" type="curve" smooth="yes"/>
    </contour>
  </outline>
</glyph>
<glyph name="asciitilde" format="2">
  <advance width="529.16"/>
  <unicode hex="007E"/>
  <outline>
    <contour>
      <point x="471.8" y="237.72" type="curve"/>
      <point x="471.8" y="368.3" type="line"/>
      <point x="445.74" y="343.02000000000004"/>
      <point x="416.52" y="330.8"/>
      <point x="379.84000000000003" y="330.8" type="curve" smooth="yes"/>
      <point x="284.21999999999997" y="330.8"/>
      <point x="237.44000000000003" y="415.22"/>
      <point x="153.82" y="415.22" type="curve" smooth="yes"/>
      <point x="102.02" y="415.22"/>
      <point x="69.26" y="390.66"/>
      <point x="57.82" y="379.34" type="curve"/>
      <point x="57.82" y="248.64000000000001" type="line"/>
      <point x="76.82" y="264.86"/>
      <point x="106.42" y="284.90000000000003"/>
      <point x="150.8" y="284.90000000000003" type="curve" smooth="yes"/>
      <point x="234.55999999999997" y="284.90000000000003"/>
      <point x="284.88" y="200.2"/>
      <point x="380.18" y="200.2" type="curve" smooth="yes"/>
      <point x="416.4" y="200.2"/>
      <point x="447.74" y="214.22"/>
    </contour>
  </outline>
</glyph>
<glyph name="exclamdown" format="2">
  <advance width="254.04"/>
  <unicode hex="00A1"/>
  <outline>
    <contour>
      <point x="198.48000000000002" y="283.22" type="line"/>
      <point x="58.36" y="283.22" type="line"/>
      <point x="46.04000000000001" y="-196.28" type="line"/>
      <point x="209.54" y="-196.28" type="line"/>
    </contour>
    <contour>
      <point x="216.27999999999997" y="464.84" type="curve" smooth="yes"/>
      <point x="216.27999999999997" y="523.4"/>
      <point x="191.8" y="551.0"/>
      <point x="127.02" y="551.0" type="curve" smooth="yes"/>
      <point x="62.54000000000001" y="551.0"/>
      <point x="37.760000000000005" y="523.4"/>
      <point x="37.760000000000005" y="464.84" type="curve" smooth="yes"/>
      <point x="37.760000000000005" y="405.58"/>
      <point x="62.24" y="377.98"/>
      <point x="127.02" y="377.98" type="curve" smooth="yes"/>
      <point x="191.8" y="377.98"/>
      <point x="216.27999999999997" y="405.58"/>
    </contour>
  </outline>
</glyph>
<glyph name="cent" format="2">
  <advance width="639.48"/>
  <unicode hex="00A2"/>
  <outline>
    <contour>
      <point x="342.65999999999997" y="-10.42" type="curve" smooth="yes"/>
      <point x="412.66" y="-10.42"/>
      <point x="487.82000000000005" y="-0.7000000000000002"/>
      <point x="545.2600000000001" y="16.299999999999997" type="curve"/>
      <point x="520.4" y="145.8" type="line"/>
      <point x="470.80000000000007" y="135.26000000000002"/>
      <point x="425.76" y="130.22"/>
      <point x="382.78" y="130.22" type="curve" smooth="yes"/>
      <point x="302.94" y="130.22"/>
      <point x="258.74" y="174.0"/>
      <point x="258.74" y="266.24" type="curve" smooth="yes"/>
      <point x="258.74" y="366.52"/>
      <point x="301.34" y="411.96000000000004"/>
      <point x="381.0" y="411.96000000000004" type="curve" smooth="yes"/>
      <point x="426.58000000000004" y="411.96000000000004"/>
      <point x="467.20000000000005" y="406.6"/>
      <point x="512.5999999999999" y="396.68" type="curve"/>
      <point x="535.1199999999999" y="532.76" type="line"/>
      <point x="484.36" y="545.1800000000001"/>
      <point x="428.76" y="554.84"/>
      <point x="355.94" y="554.84" type="curve" smooth="yes"/>
      <point x="164.92000000000002" y="554.84"/>
      <point x="93.42000000000002" y="428.2"/>
      <point x="93.42000000000002" y="262.03999999999996" type="curve" smooth="yes"/>
      <point x="93.42000000000002" y="82.44"/>
      <point x="178.36" y="-10.42"/>
    </contour>
    <contour>
      <point x="269.96000000000004" y="-105.42" type="line"/>
      <point x="399.86" y="-105.42" type="line"/>
      <point x="399.86" y="6.739999999999999" type="line"/>
      <point x="269.96000000000004" y="12.620000000000001" type="line"/>
    </contour>
    <contour>
      <point x="269.96000000000004" y="528.84" type="line"/>
      <point x="399.86" y="538.92" type="line"/>
      <point x="399.86" y="648.5799999999999" type="line"/>
      <point x="269.96000000000004" y="648.5799999999999" type="line"/>
    </contour>
  </outline>
</glyph>
<glyph name="sterling" format="2">
  <advance width="640.2"/>
  <unicode hex="00A3"/>
  <outline>
    <contour>
      <point x="78.60000000000001" y="0.0" type="line"/>
      <point x="572.88" y="0.0" type="line"/>
      <point x="572.88" y="129.8" type="line"/>
      <point x="265.79999999999995" y="129.8" type="line"/>
      <point x="308.68" y="168.64"/>
      <point x="339.11999999999995" y="209.68"/>
      <point x="339.11999999999995" y="266.23999999999995" type="curve" smooth="yes"/>
      <point x="339.11999999999995" y="339.87999999999994"/>
      <point x="281.3999999999999" y="401.88000000000005"/>
      <point x="281.3999999999999" y="468.59999999999997" type="curve" smooth="yes"/>
      <point x="281.3999999999999" y="540.6800000000001"/>
      <point x="332.20000000000005" y="567.9999999999999"/>
      <point x="395.4" y="567.9999999999999" type="curve" smooth="yes"/>
      <point x="447.56" y="567.9999999999999"/>
      <point x="500.32000000000005" y="560.56"/>
      <point x="542.64" y="548.4" type="curve"/>
      <point x="565.52" y="675.3599999999999" type="line"/>
      <point x="509.88" y="697.6000000000001"/>
      <point x="443.1600000000001" y="710.0"/>
      <point x="370.6000000000001" y="710.0" type="curve" smooth="yes"/>
      <point x="201.32" y="710.0"/>
      <point x="111.88000000000001" y="634.2400000000001"/>
      <point x="111.88000000000001" y="516.64" type="curve" smooth="yes"/>
      <point x="111.88000000000001" y="405.04"/>
      <point x="182.2" y="350.04"/>
      <point x="182.2" y="257.92" type="curve" smooth="yes"/>
      <point x="182.2" y="202.56000000000003"/>
      <point x="152.92" y="161.04"/>
      <point x="78.60000000000001" y="103.2" type="curve"/>
    </contour>
    <contour>
      <point x="71.28" y="304.16" type="line"/>
      <point x="497.12" y="304.16" type="line"/>
      <point x="497.12" y="395.96" type="line"/>
      <point x="71.28" y="395.96" type="line"/>
    </contour>
  </outline>
</glyph>
<glyph name="currency" format="2">
  <advance width="479.3"/>
  <unicode hex="00A4"/>
  <outline>
    <contour>
      <point x="38.739999999999995" y="415.15999999999997" type="line"/>
      <point x="95.66" y="357.24" type="line"/>
      <point x="87.16" y="340.12"/>
      <point x="82.02" y="320.62"/>
      <point x="82.02" y="299.36" type="curve" smooth="yes"/>
      <point x="82.02" y="277.4"/>
      <point x="87.16" y="256.78"/>
      <point x="96.66" y="239.24" type="curve"/>
      <point x="38.739999999999995" y="181.32000000000002" type="line"/>
      <point x="122.88" y="97.18" type="line"/>
      <point x="189.33999999999997" y="163.36" type="line"/>
      <point x="203.66" y="155.96"/>
      <point x="221.2" y="152.66"/>
      <point x="239.92" y="152.66" type="curve" smooth="yes"/>
      <point x="258.36" y="152.66"/>
      <point x="275.22" y="156.24"/>
      <point x="289.68" y="163.22" type="curve"/>
      <point x="356.41999999999996" y="97.18" type="line"/>
      <point x="440.56" y="181.32000000000002" type="line"/>
      <point x="382.92" y="238.54000000000002" type="line"/>
      <point x="392.28000000000003" y="256.64"/>
      <point x="397.84000000000003" y="277.12"/>
      <point x="397.84000000000003" y="299.36" type="curve" smooth="yes"/>
      <point x="397.84000000000003" y="320.47999999999996"/>
      <point x="392.56" y="340.26"/>
      <point x="383.34" y="357.94" type="curve"/>
      <point x="440.56" y="415.15999999999997" type="line"/>
      <point x="356.41999999999996" y="499.3" type="line"/>
      <point x="291.36" y="434.24" type="line"/>
      <point x="276.48" y="441.5"/>
      <point x="259.08" y="445.8"/>
      <point x="239.92" y="445.8" type="curve" smooth="yes"/>
      <point x="220.06" y="445.8"/>
      <point x="202.51999999999998" y="441.08"/>
      <point x="187.35999999999999" y="434.1" type="curve"/>
      <point x="122.88" y="499.3" type="line"/>
    </contour>
    <contour>
      <point x="239.64" y="243.35999999999999" type="curve" smooth="yes"/>
      <point x="207.46" y="243.35999999999999"/>
      <point x="184.06" y="266.47999999999996"/>
      <point x="184.06" y="298.94" type="curve" smooth="yes"/>
      <point x="184.06" y="330.02"/>
      <point x="207.18" y="354.68"/>
      <point x="239.64" y="354.68" type="curve" smooth="yes"/>
      <point x="272.4" y="354.68"/>
      <point x="295.79999999999995" y="330.02"/>
      <point x="295.79999999999995" y="298.94" type="curve" smooth="yes"/>
      <point x="295.79999999999995" y="266.47999999999996"/>
      <point x="272.12" y="243.35999999999999"/>
    </contour>
  </outline>
</glyph>
<glyph name="yen" format="2">
  <advance width="665.0"/>
  <unicode hex="00A5"/>
  <outline>
    <contour>
      <point x="78.4" y="304.8" type="line"/>
      <point x="261.2" y="304.8" type="line"/>
      <point x="261.2" y="256.0" type="line"/>
      <point x="78.4" y="256.0" type="line"/>
      <point x="78.4" y="177.6" type="line"/>
      <point x="261.2" y="177.6" type="line"/>
      <point x="261.2" y="0.0" type="line"/>
      <point x="408.6" y="0.0" type="line"/>
      <point x="408.6" y="177.6" type="line"/>
      <point x="592.5999999999999" y="177.6" type="line"/>
      <point x="592.5999999999999" y="256.0" type="line"/>
      <point x="408.6" y="256.0" type="line"/>
      <point x="408.6" y="304.8" type="line"/>
      <point x="592.5999999999999" y="304.8" type="line"/>
      <point x="592.5999999999999" y="383.2" type="line"/>
      <point x="408.6" y="383.2" type="line"/>
      <point x="632.3999999999999" y="698.0000000000001" type="line"/>
      <point x="474.59999999999997" y="702.5999999999999" type="line"/>
      <point x="334.79999999999995" y="471.59999999999997" type="line"/>
      <point x="191.0" y="702.5999999999999" type="line"/>
      <point x="33.2" y="698.0000000000001" type="line"/>
      <point x="261.2" y="383.2" type="line"/>
      <point x="78.4" y="383.2" type="line"/>
    </contour>
  </outline>
</glyph>
<glyph name="brokenbar" format="2">
  <advance width="227.7"/>
  <unicode hex="00A6"/>
  <outline>
    <contour>
      <point x="180.33999999999997" y="391.0" type="line"/>
      <point x="180.33999999999997" y="790.4200000000001" type="line"/>
      <point x="47.36000000000001" y="790.4200000000001" type="line"/>
      <point x="47.36000000000001" y="391.0" type="line"/>
    </contour>
    <contour>
      <point x="47.36000000000001" y="190.42" type="line"/>
      <point x="47.36000000000001" y="-210.0" type="line"/>
      <point x="180.33999999999997" y="-210.0" type="line"/>
      <point x="180.33999999999997" y="190.42" type="line"/>
    </contour>
  </outline>
</glyph>
<glyph name="section" format="2">
  <advance width="569.4799999999999"/>
  <unicode hex="00A7"/>
  <outline>
    <contour>
      <point x="235.32" y="-220.83999999999997" type="curve" smooth="yes"/>
      <point x="403.28000000000003" y="-220.83999999999997"/>
      <point x="522.56" y="-103.24000000000001"/>
      <point x="522.56" y="69.80000000000001" type="curve" smooth="yes"/>
      <point x="522.56" y="151.79999999999998"/>
      <point x="498.64000000000004" y="236.6"/>
      <point x="430.11999999999995" y="363.11999999999995" type="curve" smooth="yes"/>
      <point x="378.71999999999997" y="465.99999999999994"/>
      <point x="360.52" y="504.03999999999996"/>
      <point x="360.52" y="536.0799999999999" type="curve" smooth="yes"/>
      <point x="360.52" y="573.16"/>
      <point x="382.96000000000004" y="595.96"/>
      <point x="421.24" y="595.96" type="curve" smooth="yes"/>
      <point x="435.96" y="595.96"/>
      <point x="451.40000000000003" y="593.36"/>
      <point x="471.12000000000006" y="585.32" type="curve"/>
      <point x="497.56000000000006" y="725.12" type="line"/>
      <point x="452.96" y="741.6800000000001"/>
      <point x="402.20000000000005" y="750.0"/>
      <point x="352.48" y="750.0" type="curve" smooth="yes"/>
      <point x="158.00000000000003" y="750.0"/>
      <point x="46.480000000000004" y="642.88"/>
      <point x="49.36" y="469.79999999999995" type="curve" smooth="yes"/>
      <point x="50.68" y="384.64"/>
      <point x="70.16" y="308.35999999999996"/>
      <point x="142.92000000000002" y="168.4" type="curve" smooth="yes"/>
      <point x="190.88000000000002" y="69.92"/>
      <point x="213.56000000000003" y="30.479999999999997"/>
      <point x="213.56000000000003" y="-10.120000000000001" type="curve" smooth="yes"/>
      <point x="213.56000000000003" y="-46.32"/>
      <point x="188.72000000000003" y="-67.32"/>
      <point x="148.51999999999998" y="-67.32" type="curve" smooth="yes"/>
      <point x="122.72000000000001" y="-67.32"/>
      <point x="100.92" y="-60.00000000000001"/>
      <point x="71.27999999999999" y="-41.28000000000001" type="curve"/>
      <point x="42.16" y="-177.04000000000002" type="line"/>
      <point x="101.03999999999999" y="-206.48"/>
      <point x="162.32" y="-220.83999999999997"/>
    </contour>
    <contour>
      <point x="236.35999999999999" y="-129.32000000000002" type="curve" smooth="yes"/>
      <point x="211.64000000000001" y="-129.32000000000002"/>
      <point x="188.35999999999999" y="-125.07999999999998"/>
      <point x="167.00000000000003" y="-114.64" type="curve"/>
      <point x="200.72" y="-138.16" type="line"/>
      <point x="280.96000000000004" y="-139.84"/>
      <point x="335.56000000000006" y="-85.00000000000001"/>
      <point x="335.56000000000006" y="-9.00000000000001" type="curve" smooth="yes"/>
      <point x="335.56000000000006" y="43.999999999999986"/>
      <point x="315.96" y="104.0"/>
      <point x="257.08" y="221.0" type="curve" smooth="yes"/>
      <point x="194.08" y="347.24"/>
      <point x="171.64" y="413.03999999999996"/>
      <point x="171.64" y="489.99999999999994" type="curve" smooth="yes"/>
      <point x="171.64" y="584.8799999999999"/>
      <point x="222.28" y="638.3600000000001"/>
      <point x="293.12" y="638.3600000000001" type="curve" smooth="yes"/>
      <point x="315.64" y="638.3600000000001"/>
      <point x="329.36" y="635.0"/>
      <point x="349.0" y="625.76" type="curve"/>
      <point x="324.8399999999999" y="652.76" type="line"/>
      <point x="275.35999999999996" y="649.12"/>
      <point x="240.16" y="595.8000000000001"/>
      <point x="239.56000000000003" y="542.0400000000001" type="curve" smooth="yes"/>
      <point x="239.56000000000003" y="487.15999999999997"/>
      <point x="255.80000000000004" y="438.23999999999995"/>
      <point x="314.04" y="319.71999999999997" type="curve" smooth="yes"/>
      <point x="384.0" y="176.48000000000002"/>
      <point x="404.40000000000003" y="116.12"/>
      <point x="404.40000000000003" y="50.43999999999999" type="curve" smooth="yes"/>
      <point x="404.4" y="-44.440000000000005"/>
      <point x="351.32" y="-129.32"/>
    </contour>
  </outline>
</glyph>
<glyph name="copyright" format="2">
  <advance width="739.76"/>
  <unicode hex="00A9"/>
  <outline>
    <contour>
      <point x="370.0" y="46.239999999999995" type="curve" smooth="yes"/>
      <point x="197.10000000000002" y="46.239999999999995"/>
      <point x="104.02000000000001" y="154.92"/>
      <point x="104.02000000000001" y="349.86" type="curve" smooth="yes"/>
      <point x="104.02000000000001" y="545.54"/>
      <point x="197.50000000000003" y="652.5199999999999"/>
      <point x="370.0" y="652.5199999999999" type="curve" smooth="yes"/>
      <point x="543.52" y="652.5199999999999"/>
      <point x="635.32" y="545.54"/>
      <point x="635.32" y="349.86" type="curve" smooth="yes"/>
      <point x="635.32" y="154.92"/>
      <point x="543.9200000000001" y="46.239999999999995"/>
    </contour>
    <contour>
      <point x="370.0" y="710.0" type="curve" smooth="yes"/>
      <point x="162.72000000000003" y="710.0"/>
      <point x="42.0" y="574.36"/>
      <point x="42.0" y="349.86" type="curve" smooth="yes"/>
      <point x="42.0" y="126.28"/>
      <point x="162.0" y="-10.0"/>
      <point x="370.0" y="-10.0" type="curve" smooth="yes"/>
      <point x="577.7599999999999" y="-10.0"/>
      <point x="697.7600000000001" y="126.28"/>
      <point x="697.7600000000001" y="349.86" type="curve" smooth="yes"/>
      <point x="697.7600000000001" y="574.36"/>
      <point x="577.28" y="710.0"/>
    </contour>
    <contour>
      <point x="210.12000000000003" y="346.08" type="curve" smooth="yes"/>
      <point x="210.12000000000003" y="205.7"/>
      <point x="276.08" y="146.32"/>
      <point x="374.94" y="146.32" type="curve" smooth="yes"/>
      <point x="421.68" y="146.32"/>
      <point x="468.06" y="154.7"/>
      <point x="503.9" y="170.82" type="curve"/>
      <point x="488.32" y="255.44" type="line"/>
      <point x="461.88" y="247.48"/>
      <point x="427.38" y="240.22"/>
      <point x="392.84" y="240.22" type="curve" smooth="yes"/>
      <point x="341.08000000000004" y="240.22"/>
      <point x="319.93999999999994" y="269.24000000000007"/>
      <point x="319.93999999999994" y="344.90000000000003" type="curve" smooth="yes"/>
      <point x="319.93999999999994" y="433.96000000000004"/>
      <point x="345.48" y="462.35999999999996"/>
      <point x="398.90000000000003" y="462.35999999999996" type="curve" smooth="yes"/>
      <point x="425.24000000000007" y="462.35999999999996"/>
      <point x="459.48" y="455.67999999999995"/>
      <point x="483.3200000000001" y="448.98" type="curve"/>
      <point x="501.28" y="533.68" type="line"/>
      <point x="468.42" y="549.64"/>
      <point x="424.09999999999997" y="556.8199999999999"/>
      <point x="382.2600000000001" y="556.8199999999999" type="curve" smooth="yes"/>
      <point x="282.44" y="556.8199999999999"/>
      <point x="210.12000000000003" y="501.8400000000001"/>
    </contour>
  </outline>
</glyph>
<glyph name="ordfeminine" format="2">
  <advance width="398.02"/>
  <unicode hex="00AA"/>
  <outline>
    <contour>
      <point x="42.22" y="228.06" type="line"/>
      <point x="369.56" y="228.06" type="line"/>
      <point x="369.56" y="312.46" type="line"/>
      <point x="42.22" y="312.46" type="line"/>
    </contour>
    <component base="a.superior" xOffset="9.559999999999999"/>
  </outline>
</glyph>
<glyph name="logicalnot" format="2">
  <advance width="529.16"/>
  <unicode hex="00AC"/>
  <outline>
    <contour>
      <point x="49.739999999999995" y="314.42" type="line"/>
      <point x="349.0" y="314.42" type="line"/>
      <point x="349.0" y="170.84" type="line"/>
      <point x="479.6" y="170.84" type="line"/>
      <point x="479.6" y="445.02000000000004" type="line"/>
      <point x="49.739999999999995" y="445.02000000000004" type="line"/>
    </contour>
  </outline>
</glyph>
<glyph name="registered" format="2">
  <advance width="708.5600000000002"/>
  <unicode hex="00AE"/>
  <outline>
    <contour>
      <point x="350.16" y="207.3" type="curve" smooth="yes"/>
      <point x="552.3000000000001" y="207.3"/>
      <point x="666.5600000000001" y="335.28"/>
      <point x="666.5600000000001" y="550.12" type="curve" smooth="yes"/>
      <point x="666.5600000000001" y="763.5"/>
      <point x="552.4200000000001" y="892.9399999999999"/>
      <point x="350.16" y="892.9399999999999" type="curve" smooth="yes"/>
      <point x="153.4" y="892.9399999999999"/>
      <point x="42.0" y="763.5"/>
      <point x="42.0" y="550.12" type="curve" smooth="yes"/>
      <point x="42.0" y="337.74"/>
      <point x="152.58" y="207.3"/>
    </contour>
    <contour>
      <point x="350.16" y="260.59999999999997" type="curve" smooth="yes"/>
      <point x="186.38000000000002" y="260.59999999999997"/>
      <point x="100.86" y="365.25999999999993"/>
      <point x="100.86" y="550.12" type="curve" smooth="yes"/>
      <point x="100.86" y="735.8599999999999"/>
      <point x="186.26" y="838.0000000000001"/>
      <point x="350.16" y="838.0000000000001" type="curve" smooth="yes"/>
      <point x="520.6000000000001" y="838.0000000000001"/>
      <point x="607.1800000000001" y="735.9799999999999"/>
      <point x="607.1800000000001" y="550.12" type="curve" smooth="yes"/>
      <point x="607.1800000000001" y="364.44"/>
      <point x="519.9000000000001" y="260.59999999999997"/>
    </contour>
    <contour>
      <point x="506.34000000000003" y="369.09999999999997" type="curve" smooth="yes"/>
      <point x="510.6199999999999" y="369.09999999999997"/>
      <point x="515.4800000000001" y="369.09999999999997"/>
      <point x="519.4199999999998" y="369.28" type="curve"/>
      <point x="518.88" y="462.53999999999996" type="line"/>
      <point x="517.7" y="462.36"/>
      <point x="515.7600000000001" y="462.36"/>
      <point x="513.76" y="462.36" type="curve" smooth="yes"/>
      <point x="488.02" y="462.94"/>
      <point x="462.62" y="486.96000000000004"/>
      <point x="439.96" y="520.8399999999999" type="curve"/>
      <point x="484.22" y="532.72"/>
      <point x="509.54" y="570.3599999999999"/>
      <point x="509.54" y="628.84" type="curve" smooth="yes"/>
      <point x="509.54" y="707.9"/>
      <point x="463.46000000000004" y="743.0999999999999"/>
      <point x="354.17999999999995" y="743.0999999999999" type="curve" smooth="yes"/>
      <point x="317.74" y="743.0999999999999"/>
      <point x="271.76000000000005" y="741.22"/>
      <point x="212.02" y="737.4599999999999" type="curve"/>
      <point x="212.02" y="373.08" type="line"/>
      <point x="308.54" y="373.08" type="line"/>
      <point x="308.54" y="491.9599999999999" type="line"/>
      <point x="317.5199999999999" y="491.7799999999999"/>
      <point x="325.18000000000006" y="491.3599999999999"/>
      <point x="333.38" y="491.3599999999999" type="curve" smooth="yes"/>
      <point x="338.56" y="491.3599999999999"/>
      <point x="342.46000000000004" y="491.3599999999999"/>
      <point x="346.94" y="491.53999999999996" type="curve"/>
      <point x="397.78" y="393.41999999999996"/>
      <point x="450.5799999999999" y="369.79999999999995"/>
    </contour>
    <contour>
      <point x="344.84" y="553.7800000000001" type="curve" smooth="yes"/>
      <point x="334.36" y="553.7800000000001"/>
      <point x="325.24000000000007" y="553.9000000000001"/>
      <point x="308.54" y="554.7800000000002" type="curve"/>
      <point x="308.54" y="663.0800000000002" type="line"/>
      <point x="331.58000000000004" y="665.2000000000002"/>
      <point x="338.54" y="665.3800000000001"/>
      <point x="355.66" y="665.3800000000001" type="curve" smooth="yes"/>
      <point x="401.24" y="665.3800000000001"/>
      <point x="410.1" y="648.6800000000001"/>
      <point x="410.1" y="615.04" type="curve" smooth="yes"/>
      <point x="410.1" y="570.6"/>
      <point x="398.35999999999996" y="553.7800000000001"/>
    </contour>
  </outline>
</glyph>
<glyph name="degree" format="2">
  <advance width="345.79999999999995"/>
  <unicode hex="00B0"/>
  <outline>
    <contour>
      <point x="172.72" y="399.59999999999997" type="curve" smooth="yes"/>
      <point x="270.82" y="399.59999999999997"/>
      <point x="317.76" y="473.02000000000004"/>
      <point x="317.76" y="557.2" type="curve" smooth="yes"/>
      <point x="317.76" y="636.6"/>
      <point x="275.74" y="715.4"/>
      <point x="172.72" y="715.4" type="curve" smooth="yes"/>
      <point x="69.46000000000001" y="715.4"/>
      <point x="28.04" y="636.6"/>
      <point x="28.04" y="557.2" type="curve" smooth="yes"/>
      <point x="28.04" y="473.02000000000004"/>
      <point x="74.62" y="399.59999999999997"/>
    </contour>
    <contour>
      <point x="172.72" y="501.24" type="curve" smooth="yes"/>
      <point x="145.82000000000002" y="501.24"/>
      <point x="129.68" y="524.0600000000001"/>
      <point x="129.68" y="556.62" type="curve" smooth="yes"/>
      <point x="129.68" y="587.54"/>
      <point x="144.84" y="611.1999999999999"/>
      <point x="172.72" y="611.1999999999999" type="curve" smooth="yes"/>
      <point x="200.35999999999999" y="611.1999999999999"/>
      <point x="216.36" y="587.54"/>
      <point x="216.36" y="556.62" type="curve" smooth="yes"/>
      <point x="216.36" y="524.0600000000001"/>
      <point x="199.62" y="501.24"/>
    </contour>
  </outline>
</glyph>
<glyph name="plusminus" format="2">
  <advance width="534.92"/>
  <unicode hex="00B1"/>
  <outline>
    <contour>
      <point x="49.02" y="21.32" type="line"/>
      <point x="485.90000000000003" y="21.32" type="line"/>
      <point x="485.90000000000003" y="151.92" type="line"/>
      <point x="338.22" y="151.92" type="line"/>
      <point x="338.22" y="277.14000000000004" type="line"/>
      <point x="485.90000000000003" y="277.14000000000004" type="line"/>
      <point x="485.90000000000003" y="407.74" type="line"/>
      <point x="338.22" y="407.74" type="line"/>
      <point x="338.22" y="538.5" type="line"/>
      <point x="196.42000000000002" y="538.5" type="line"/>
      <point x="196.42000000000002" y="407.74" type="line"/>
      <point x="49.02" y="407.74" type="line"/>
      <point x="49.02" y="277.14000000000004" type="line"/>
      <point x="196.42000000000002" y="277.14000000000004" type="line"/>
      <point x="196.42000000000002" y="151.92" type="line"/>
      <point x="49.02" y="151.92" type="line"/>
    </contour>
  </outline>
</glyph>
<glyph name="uni00B2" format="2">
  <advance width="400.82"/>
  <unicode hex="00B2"/>
  <outline>
    <contour>
      <point x="42.480000000000004" y="370.0" type="line"/>
      <point x="363.65999999999997" y="370.0" type="line"/>
      <point x="363.65999999999997" y="448.02" type="line"/>
      <point x="202.44" y="448.02" type="line"/>
      <point x="304.78000000000003" y="537.72"/>
      <point x="330.86" y="584.3199999999999"/>
      <point x="330.86" y="645.64" type="curve" smooth="yes"/>
      <point x="330.86" y="726.9599999999999"/>
      <point x="274.8" y="774.02"/>
      <point x="183.6" y="774.02" type="curve" smooth="yes"/>
      <point x="132.9" y="774.02"/>
      <point x="77.18" y="759.66"/>
      <point x="36.980000000000004" y="734.8" type="curve"/>
      <point x="69.66" y="651.32" type="line"/>
      <point x="105.12" y="669.6"/>
      <point x="129.22" y="675.9"/>
      <point x="156.86" y="675.9" type="curve" smooth="yes"/>
      <point x="191.24" y="675.9"/>
      <point x="211.26000000000005" y="653.9"/>
      <point x="211.26000000000005" y="622.18" type="curve" smooth="yes"/>
      <point x="211.26000000000005" y="578.04"/>
      <point x="160.94" y="522.6400000000001"/>
      <point x="41.58" y="439.86" type="curve"/>
    </contour>
  </outline>
</glyph>
<glyph name="uni00B3" format="2">
  <advance width="403.96000000000004"/>
  <unicode hex="00B3"/>
  <outline>
    <contour>
      <point x="26.0" y="393.64000000000004" type="line"/>
      <point x="77.02" y="370.78"/>
      <point x="126.16000000000001" y="363.36"/>
      <point x="184.90000000000003" y="363.36" type="curve" smooth="yes"/>
      <point x="298.08" y="363.36"/>
      <point x="371.46000000000004" y="405.38"/>
      <point x="371.46000000000004" y="486.90000000000003" type="curve" smooth="yes"/>
      <point x="371.46000000000004" y="533.5"/>
      <point x="346.22" y="566.04"/>
      <point x="295.12" y="582.08" type="curve"/>
      <point x="333.2" y="596.86"/>
      <point x="358.52000000000004" y="630.06"/>
      <point x="358.52000000000004" y="671.8199999999999" type="curve" smooth="yes"/>
      <point x="358.52000000000004" y="734.96"/>
      <point x="302.56" y="774.7400000000001"/>
      <point x="189.84" y="774.7400000000001" type="curve" smooth="yes"/>
      <point x="123.02" y="774.7400000000001"/>
      <point x="66.78" y="764.14"/>
      <point x="33.580000000000005" y="747.54" type="curve"/>
      <point x="58.620000000000005" y="671.7199999999999" type="line"/>
      <point x="70.38000000000001" y="677.12"/>
      <point x="100.12" y="686.92"/>
      <point x="160.52000000000004" y="686.92" type="curve" smooth="yes"/>
      <point x="211.42000000000002" y="686.92"/>
      <point x="248.20000000000002" y="670.9999999999999"/>
      <point x="248.20000000000002" y="645.0" type="curve" smooth="yes"/>
      <point x="248.20000000000002" y="621.96"/>
      <point x="229.8" y="607.1600000000001"/>
      <point x="191.64000000000001" y="607.1600000000001" type="curve" smooth="yes"/>
      <point x="109.14" y="607.1600000000001" type="line"/>
      <point x="109.14" y="535.84" type="line"/>
      <point x="182.84000000000003" y="535.84" type="line" smooth="yes"/>
      <point x="241.18000000000006" y="535.84"/>
      <point x="257.28000000000003" y="521.04"/>
      <point x="257.28000000000003" y="495.3" type="curve" smooth="yes"/>
      <point x="257.28000000000003" y="464.38"/>
      <point x="228.56" y="445.76000000000005"/>
      <point x="171.28" y="445.76000000000005" type="curve" smooth="yes"/>
      <point x="112.34" y="445.76000000000005"/>
      <point x="83.74" y="452.26"/>
      <point x="54.42" y="466.6" type="curve"/>
    </contour>
  </outline>
</glyph>
<glyph name="uni00B5" format="2">
  <advance width="592.0"/>
  <unicode hex="00B5"/>
  <outline>
    <contour>
      <point x="45.900000000000006" y="-210.0" type="line"/>
      <point x="205.61999999999998" y="-210.0" type="line"/>
      <point x="205.61999999999998" y="10.020000000000003" type="line"/>
      <point x="218.01999999999998" y="-2.5199999999999996"/>
      <point x="236.77999999999997" y="-9.16"/>
      <point x="261.82" y="-9.16" type="curve" smooth="yes"/>
      <point x="310.64" y="-9.16"/>
      <point x="350.18" y="10.760000000000002"/>
      <point x="389.2" y="40.2" type="curve"/>
      <point x="408.74" y="7.720000000000001"/>
      <point x="432.48" y="-10.0"/>
      <point x="485.56000000000006" y="-10.0" type="curve" smooth="yes"/>
      <point x="526.68" y="-10.0"/>
      <point x="564.76" y="1.6399999999999997"/>
      <point x="589.48" y="16.36" type="curve"/>
      <point x="576.1600000000001" y="129.14" type="line"/>
      <point x="569.26" y="126.1"/>
      <point x="561.6" y="124.68"/>
      <point x="554.34" y="124.68" type="curve" smooth="yes"/>
      <point x="539.3000000000001" y="124.68"/>
      <point x="528.4" y="134.07999999999998"/>
      <point x="528.4" y="164.20000000000002" type="curve" smooth="yes"/>
      <point x="528.4" y="544.0" type="line"/>
      <point x="364.9" y="544.0" type="line"/>
      <point x="364.9" y="150.33999999999997" type="line"/>
      <point x="331.32000000000005" y="133.5"/>
      <point x="305.22" y="124.16"/>
      <point x="273.58" y="124.16" type="curve" smooth="yes"/>
      <point x="233.9" y="124.16"/>
      <point x="209.82" y="145.42"/>
      <point x="209.82" y="191.2" type="curve" smooth="yes"/>
      <point x="209.82" y="544.0" type="line"/>
      <point x="45.900000000000006" y="544.0" type="line"/>
    </contour>
  </outline>
</glyph>
<glyph name="paragraph" format="2">
  <advance width="672.4799999999999"/>
  <unicode hex="00B6"/>
  <outline>
    <contour>
      <point x="483.06000000000006" y="-210.0" type="line"/>
      <point x="610.5799999999999" y="-210.0" type="line"/>
      <point x="610.5799999999999" y="740.0" type="line"/>
      <point x="483.06000000000006" y="740.0" type="line"/>
    </contour>
    <contour>
      <point x="268.16" y="312.52" type="line"/>
      <point x="216.94" y="322.46"/>
      <point x="184.25999999999996" y="377.86"/>
      <point x="184.25999999999996" y="466.2" type="curve" smooth="yes"/>
      <point x="184.25999999999996" y="556.66"/>
      <point x="220.10000000000002" y="607.6600000000001"/>
      <point x="297.62" y="608.9200000000001" type="curve"/>
      <point x="297.62" y="-210.0" type="line"/>
      <point x="425.13999999999993" y="-210.0" type="line"/>
      <point x="425.13999999999993" y="740.0" type="line"/>
      <point x="338.0" y="740.0" type="line" smooth="yes"/>
      <point x="117.24" y="740.0"/>
      <point x="43.019999999999996" y="633.06"/>
      <point x="43.019999999999996" y="477.82" type="curve" smooth="yes"/>
      <point x="43.019999999999996" y="333.96"/>
      <point x="108.72" y="238.70000000000002"/>
      <point x="252.20000000000002" y="217.06" type="curve"/>
    </contour>
  </outline>
</glyph>
<glyph name="periodcentered" format="2">
  <advance width="236.39999999999998"/>
  <unicode hex="00B7"/>
  <outline>
    <contour>
      <point x="28.400000000000002" y="312.28" type="curve" smooth="yes"/>
      <point x="28.400000000000002" y="253.36000000000004"/>
      <point x="53.720000000000006" y="225.76000000000002"/>
      <point x="118.2" y="225.76000000000002" type="curve" smooth="yes"/>
      <point x="183.27999999999994" y="225.76000000000002"/>
      <point x="207.99999999999997" y="253.36000000000004"/>
      <point x="207.99999999999997" y="312.28" type="curve" smooth="yes"/>
      <point x="207.99999999999997" y="372.2"/>
      <point x="183.27999999999994" y="399.80000000000007"/>
      <point x="118.2" y="399.80000000000007" type="curve" smooth="yes"/>
      <point x="53.12000000000001" y="399.80000000000007"/>
      <point x="28.400000000000002" y="372.2"/>
    </contour>
  </outline>
</glyph>
<glyph name="uni00B9" format="2">
  <advance width="374.64"/>
  <unicode hex="00B9"/>
  <outline>
    <contour>
      <point x="41.699999999999996" y="370.0" type="line"/>
      <point x="354.85999999999996" y="370.0" type="line"/>
      <point x="354.85999999999996" y="449.6" type="line"/>
      <point x="264.32" y="449.6" type="line"/>
      <point x="264.32" y="767.66" type="line"/>
      <point x="205.06" y="767.66" type="line"/>
      <point x="23.160000000000004" y="703.98" type="line"/>
      <point x="48.699999999999996" y="615.78" type="line"/>
      <point x="145.22000000000003" y="651.9200000000001" type="line"/>
      <point x="145.22000000000003" y="449.6" type="line"/>
      <point x="41.699999999999996" y="449.6" type="line"/>
    </contour>
  </outline>
</glyph>
<glyph name="ordmasculine" format="2">
  <advance width="402.76"/>
  <unicode hex="00BA"/>
  <outline>
    <contour>
      <point x="38.84" y="228.18" type="line"/>
      <point x="367.14" y="228.18" type="line"/>
      <point x="367.14" y="312.58" type="line"/>
      <point x="38.84" y="312.58" type="line"/>
    </contour>
    <component base="o.superior" xOffset="10.16"/>
  </outline>
</glyph>
<glyph name="questiondown" format="2">
  <advance width="493.38"/>
  <unicode hex="00BF"/>
  <outline>
    <contour>
      <point x="345.4" y="278.96" type="line"/>
      <point x="204.86" y="278.96" type="line"/>
      <point x="204.3" y="214.02" type="line"/>
      <point x="80.36" y="166.68"/>
      <point x="31.880000000000003" y="97.4"/>
      <point x="31.880000000000003" y="-5.400000000000001" type="curve" smooth="yes"/>
      <point x="31.880000000000003" y="-147.6"/>
      <point x="137.86" y="-210.48"/>
      <point x="268.84000000000003" y="-210.48" type="curve" smooth="yes"/>
      <point x="344.20000000000005" y="-210.48"/>
      <point x="432.54" y="-185.06"/>
      <point x="489.38000000000005" y="-145.98" type="curve"/>
      <point x="440.8" y="-17.160000000000007" type="line"/>
      <point x="388.28000000000003" y="-48.62000000000001"/>
      <point x="339.53999999999996" y="-62.13999999999999"/>
      <point x="295.29999999999995" y="-62.13999999999999" type="curve" smooth="yes"/>
      <point x="240.7" y="-62.13999999999999"/>
      <point x="201.86" y="-36.360000000000014"/>
      <point x="201.86" y="13.839999999999995" type="curve" smooth="yes"/>
      <point x="201.86" y="59.24000000000001"/>
      <point x="223.29999999999998" y="98.03999999999999"/>
      <point x="349.04" y="140.76" type="curve"/>
    </contour>
    <contour>
      <point x="363.94" y="460.22" type="curve" smooth="yes"/>
      <point x="363.94" y="518.7800000000001"/>
      <point x="339.22" y="546.38"/>
      <point x="274.5" y="546.38" type="curve" smooth="yes"/>
      <point x="210.32000000000002" y="546.38"/>
      <point x="185.24" y="518.7800000000001"/>
      <point x="185.24" y="460.22" type="curve" smooth="yes"/>
      <point x="185.24" y="400.96"/>
      <point x="210.32000000000002" y="373.36"/>
      <point x="274.5" y="373.36" type="curve" smooth="yes"/>
      <point x="339.69999999999993" y="373.36"/>
      <point x="363.94" y="400.96"/>
    </contour>
  </outline>
</glyph>
<glyph name="AE" format="2">
  <advance width="998.1600000000001"/>
  <unicode hex="00C6"/>
  <anchor x="540.9200000000001" y="700.0" name="top"/>
  <outline>
    <contour>
      <point x="4.08" y="0.0" type="line"/>
      <point x="193.99999999999997" y="-0.6000000000000001" type="line"/>
      <point x="290.76" y="179.2" type="line"/>
      <point x="463.96" y="179.2" type="line"/>
      <point x="463.96" y="0.0" type="line"/>
      <point x="972.8000000000001" y="0.0" type="line"/>
      <point x="972.8000000000001" y="142.72" type="line"/>
      <point x="625.64" y="142.72" type="line"/>
      <point x="625.64" y="276.12" type="line"/>
      <point x="930.2800000000001" y="276.12" type="line"/>
      <point x="930.2800000000001" y="411.84000000000003" type="line"/>
      <point x="625.64" y="411.84000000000003" type="line"/>
      <point x="625.64" y="556.0799999999999" type="line"/>
      <point x="955.32" y="556.0799999999999" type="line"/>
      <point x="955.32" y="700.0" type="line"/>
      <point x="372.88000000000005" y="700.0" type="line"/>
    </contour>
    <contour>
      <point x="350.63999999999993" y="314.0" type="line"/>
      <point x="462.88" y="577.6799999999998" type="line"/>
      <point x="462.88" y="314.0" type="line"/>
    </contour>
  </outline>
</glyph>
<glyph name="multiply" format="2">
  <advance width="497.56"/>
  <unicode hex="00D7"/>
  <outline>
    <contour>
      <point x="131.92" y="105.19999999999999" type="line"/>
      <point x="248.72" y="228.78" type="line"/>
      <point x="365.52000000000004" y="105.74000000000001" type="line"/>
      <point x="454.02" y="201.29999999999998" type="line"/>
      <point x="345.65999999999997" y="318.66" type="line"/>
      <point x="454.08000000000004" y="436.9" type="line"/>
      <point x="365.58" y="532.4599999999999" type="line"/>
      <point x="248.72" y="408.72" type="line"/>
      <point x="131.8" y="532.6999999999999" type="line"/>
      <point x="43.300000000000004" y="437.14" type="line"/>
      <point x="151.68" y="318.66" type="line"/>
      <point x="43.42000000000001" y="200.76" type="line"/>
    </contour>
  </outline>
</glyph>
<glyph name="Oslash" format="2">
  <advance width="740.2"/>
  <unicode hex="00D8"/>
  <anchor x="368.99999999999994" y="700.0" name="top"/>
  <outline>
    <contour>
      <point x="133.6" y="-11.2" type="line"/>
      <point x="208.79999999999998" y="99.79999999999998" type="line"/>
      <point x="212.20000000000002" y="95.39999999999999" type="line"/>
      <point x="591.8" y="576.1999999999999" type="line"/>
      <point x="595.2" y="571.0" type="line"/>
      <point x="696.1999999999999" y="717.0" type="line"/>
      <point x="604.8" y="717.0" type="line"/>
      <point x="534.4000000000001" y="616.4000000000001" type="line"/>
      <point x="530.6" y="620.4000000000001" type="line"/>
      <point x="154.39999999999998" y="142.6" type="line"/>
      <point x="150.60000000000002" y="146.2" type="line"/>
      <point x="42.800000000000004" y="-11.2" type="line"/>
    </contour>
    <contour>
      <point x="368.99999999999994" y="112.60000000000001" type="curve" smooth="yes"/>
      <point x="269.8" y="112.60000000000001"/>
      <point x="180.0" y="156.20000000000002"/>
      <point x="180.0" y="349.6" type="curve" smooth="yes"/>
      <point x="180.0" y="546.8"/>
      <point x="270.2" y="587.4"/>
      <point x="368.99999999999994" y="587.4" type="curve" smooth="yes"/>
      <point x="468.2" y="587.4"/>
      <point x="559.0" y="548.0"/>
      <point x="559.0" y="350.40000000000003" type="curve" smooth="yes"/>
      <point x="559.0" y="153.4"/>
      <point x="467.8" y="112.60000000000001"/>
    </contour>
    <contour>
      <point x="368.59999999999997" y="-10.0" type="curve" smooth="yes"/>
      <point x="565.8" y="-10.0"/>
      <point x="703.4" y="73.19999999999999"/>
      <point x="703.4" y="352.79999999999995" type="curve" smooth="yes"/>
      <point x="703.4" y="626.9999999999999"/>
      <point x="565.3999999999999" y="710.0"/>
      <point x="368.99999999999994" y="710.0" type="curve" smooth="yes"/>
      <point x="171.20000000000002" y="710.0"/>
      <point x="35.599999999999994" y="625.2"/>
      <point x="35.599999999999994" y="349.20000000000005" type="curve" smooth="yes"/>
      <point x="35.599999999999994" y="77.0"/>
      <point x="173.2" y="-10.0"/>
    </contour>
  </outline>
</glyph>
<glyph name="Thorn" format="2">
  <advance width="674.8199999999999"/>
  <unicode hex="00DE"/>
  <outline>
    <contour>
      <point x="55.02000000000001" y="0.0" type="line"/>
      <point x="224.54" y="0.0" type="line"/>
      <point x="224.54" y="121.14000000000001" type="line"/>
      <point x="302.62" y="117.67999999999999"/>
      <point x="298.71999999999997" y="117.56"/>
      <point x="373.0" y="117.56" type="curve" smooth="yes"/>
      <point x="574.56" y="117.56"/>
      <point x="646.62" y="196.02"/>
      <point x="646.62" y="382.06" type="curve" smooth="yes"/>
      <point x="646.62" y="562.9999999999999"/>
      <point x="580.74" y="635.3399999999999"/>
      <point x="328.82000000000005" y="635.3399999999999" type="curve" smooth="yes"/>
      <point x="307.38" y="635.3399999999999"/>
      <point x="273.32000000000005" y="634.64"/>
      <point x="224.95999999999998" y="633.04" type="curve"/>
      <point x="224.95999999999998" y="700.0" type="line"/>
      <point x="55.02000000000001" y="700.0" type="line"/>
    </contour>
    <contour>
      <point x="319.84000000000003" y="255.29999999999998" type="curve" smooth="yes"/>
      <point x="287.82000000000005" y="255.29999999999998"/>
      <point x="268.76" y="255.94"/>
      <point x="224.95999999999998" y="258.44" type="curve"/>
      <point x="224.95999999999998" y="497.44000000000005" type="line"/>
      <point x="288.54" y="501.32000000000005"/>
      <point x="307.92" y="501.74"/>
      <point x="341.6" y="501.74" type="curve" smooth="yes"/>
      <point x="448.38000000000005" y="501.74"/>
      <point x="475.14" y="466.58000000000004"/>
      <point x="475.14" y="386.28" type="curve" smooth="yes"/>
      <point x="475.14" y="301.82"/>
      <point x="453.14" y="255.29999999999998"/>
    </contour>
  </outline>
</glyph>
<glyph name="germandbls" format="2">
  <advance width="721.0799999999999"/>
  <unicode hex="00DF"/>
  <outline>
    <contour>
      <point x="87.19999999999999" y="0.0" type="line"/>
      <point x="250.52" y="0.0" type="line"/>
      <point x="250.52" y="498.84000000000003" type="line" smooth="yes"/>
      <point x="250.52" y="584.24"/>
      <point x="301.72" y="623.92"/>
      <point x="396.52000000000004" y="623.92" type="curve" smooth="yes"/>
      <point x="477.35999999999996" y="623.92"/>
      <point x="500.8" y="608.28"/>
      <point x="500.8" y="573.24" type="curve" smooth="yes"/>
      <point x="500.8" y="545.5200000000001"/>
      <point x="485.88000000000005" y="535.7199999999999"/>
      <point x="432.15999999999997" y="513.4799999999999" type="curve" smooth="yes"/>
      <point x="355.64" y="488.72"/>
      <point x="317.96000000000004" y="443.32000000000005"/>
      <point x="317.96000000000004" y="373.32" type="curve" smooth="yes"/>
      <point x="317.96000000000004" y="277.32"/>
      <point x="357.15999999999997" y="234.24"/>
      <point x="480.2" y="212.08" type="curve" smooth="yes"/>
      <point x="548.12" y="198.11999999999998"/>
      <point x="567.04" y="192.0"/>
      <point x="567.04" y="160.43999999999997" type="curve" smooth="yes"/>
      <point x="567.04" y="124.0"/>
      <point x="528.4" y="109.68"/>
      <point x="479.68" y="109.68" type="curve" smooth="yes"/>
      <point x="422.72" y="109.68"/>
      <point x="359.8" y="121.51999999999998"/>
      <point x="306.52" y="136.16" type="curve"/>
      <point x="288.04" y="19.08" type="line"/>
      <point x="349.4" y="-1.2400000000000002"/>
      <point x="411.84" y="-9.84"/>
      <point x="478.32" y="-9.84" type="curve" smooth="yes"/>
      <point x="602.76" y="-9.84"/>
      <point x="718.1599999999999" y="37.599999999999994"/>
      <point x="718.1599999999999" y="171.55999999999997" type="curve" smooth="yes"/>
      <point x="718.1599999999999" y="269.84000000000003"/>
      <point x="669.5999999999999" y="313.28"/>
      <point x="551.0" y="334.55999999999995" type="curve" smooth="yes"/>
      <point x="483.0" y="346.35999999999996"/>
      <point x="467.12" y="358.71999999999997"/>
      <point x="467.12" y="382.4" type="curve" smooth="yes"/>
      <point x="467.12" y="407.15999999999997"/>
      <point x="485.0" y="410.24"/>
      <point x="524.1999999999998" y="424.88" type="curve" smooth="yes"/>
      <point x="614.92" y="458.47999999999996"/>
      <point x="659.28" y="493.20000000000005"/>
      <point x="659.28" y="574.2" type="curve" smooth="yes"/>
      <point x="659.28" y="693.24"/>
      <point x="566.6800000000001" y="750.0"/>
      <point x="390.32" y="750.0" type="curve" smooth="yes"/>
      <point x="190.71999999999997" y="750.0"/>
      <point x="87.0" y="675.04"/>
      <point x="87.19999999999999" y="525.44" type="curve" smooth="yes"/>
      <point x="87.19999999999999" y="502.47999999999996" type="line"/>
      <point x="13.920000000000002" y="491.8" type="line"/>
      <point x="13.920000000000002" y="383.48" type="line"/>
      <point x="87.19999999999999" y="383.48" type="line"/>
    </contour>
  </outline>
</glyph>
<glyph name="ae" format="2">
  <advance width="853.32"/>
  <unicode hex="00E6"/>
  <anchor x="432.64" y="544.0" name="top"/>
  <outline>
    <contour>
      <point x="177.88" y="-10.0" type="curve" smooth="yes"/>
      <point x="267.48" y="-10.0"/>
      <point x="329.64" y="27.0"/>
      <point x="386.24" y="72.32000000000001" type="curve"/>
      <point x="388.0" y="72.32000000000001" type="line"/>
      <point x="436.23999999999995" y="12.84"/>
      <point x="495.15999999999997" y="-10.0"/>
      <point x="600.96" y="-10.0" type="curve" smooth="yes"/>
      <point x="683.96" y="-10.0"/>
      <point x="751.56" y="0.6000000000000001"/>
      <point x="823.1200000000001" y="23.080000000000002" type="curve"/>
      <point x="803.04" y="147.44" type="line"/>
      <point x="742.68" y="133.11999999999998"/>
      <point x="673.84" y="123.51999999999998"/>
      <point x="621.1600000000001" y="123.51999999999998" type="curve" smooth="yes"/>
      <point x="532.92" y="123.51999999999998"/>
      <point x="501.00000000000006" y="136.51999999999998"/>
      <point x="498.68" y="216.79999999999998" type="curve" smooth="yes"/>
      <point x="497.9200000000001" y="220.12"/>
      <point x="497.9200000000001" y="228.23999999999998"/>
      <point x="498.6000000000001" y="228.12" type="curve"/>
      <point x="640.0" y="231.92"/>
      <point x="761.24" y="243.88"/>
      <point x="823.8" y="249.2" type="curve"/>
      <point x="824.0400000000001" y="265.55999999999995"/>
      <point x="825.2" y="286.76"/>
      <point x="825.2" y="302.32" type="curve" smooth="yes"/>
      <point x="825.2" y="483.44"/>
      <point x="749.4" y="554.0"/>
      <point x="590.52" y="554.0" type="curve" smooth="yes"/>
      <point x="526.8800000000001" y="554.0"/>
      <point x="469.92" y="540.7199999999999"/>
      <point x="427.32" y="485.04" type="curve"/>
      <point x="426.15999999999997" y="485.04" type="line"/>
      <point x="384.68" y="533.0"/>
      <point x="336.68" y="554.0"/>
      <point x="249.23999999999998" y="554.0" type="curve" smooth="yes"/>
      <point x="189.32" y="554.0"/>
      <point x="112.60000000000001" y="541.96"/>
      <point x="49.8" y="523.0" type="curve"/>
      <point x="75.32" y="394.68" type="line"/>
      <point x="137.68" y="412.56"/>
      <point x="200.28000000000003" y="417.76"/>
      <point x="236.88000000000002" y="417.76" type="curve" smooth="yes"/>
      <point x="302.76000000000005" y="417.76"/>
      <point x="330.67999999999995" y="395.67999999999995"/>
      <point x="330.67999999999995" y="360.32" type="curve" smooth="yes"/>
      <point x="330.67999999999995" y="330.28000000000003" type="line"/>
      <point x="126.27999999999999" y="319.2"/>
      <point x="20.280000000000005" y="283.28"/>
      <point x="20.280000000000005" y="148.56" type="curve" smooth="yes"/>
      <point x="20.280000000000005" y="46.279999999999994"/>
      <point x="81.0" y="-10.0"/>
    </contour>
    <contour>
      <point x="236.28" y="98.71999999999998" type="curve" smooth="yes"/>
      <point x="207.35999999999999" y="98.71999999999998"/>
      <point x="185.51999999999998" y="117.79999999999998"/>
      <point x="185.51999999999998" y="158.6" type="curve" smooth="yes"/>
      <point x="185.51999999999998" y="225.64"/>
      <point x="253.40000000000003" y="236.52"/>
      <point x="331.0" y="242.48" type="curve"/>
      <point x="331.16" y="232.92"/>
      <point x="331.16" y="221.07999999999998"/>
      <point x="331.16" y="212.84" type="curve" smooth="yes"/>
      <point x="331.16" y="186.92"/>
      <point x="331.8" y="165.04"/>
      <point x="335.6" y="144.55999999999997" type="curve"/>
      <point x="314.96" y="124.76"/>
      <point x="273.71999999999997" y="98.71999999999998"/>
    </contour>
    <contour>
      <point x="498.2" y="319.88" type="curve"/>
      <point x="497.0800000000001" y="422.0"/>
      <point x="544.52" y="438.0400000000001"/>
      <point x="580.8000000000001" y="438.0400000000001" type="curve" smooth="yes"/>
      <point x="630.8400000000001" y="438.0400000000001"/>
      <point x="653.5999999999999" y="408.71999999999997"/>
      <point x="659.2" y="327.67999999999995" type="curve"/>
      <point x="627.4" y="326.20000000000005"/>
      <point x="567.0" y="320.04"/>
    </contour>
  </outline>
</glyph>
<glyph name="eth" format="2">
  <advance width="601.1999999999999"/>
  <unicode hex="00F0"/>
  <outline>
    <contour>
      <point x="443.6" y="393.59999999999997" type="curve"/>
      <point x="449.2" y="495.4" type="line"/>
      <point x="401.2" y="522.8"/>
      <point x="348.4" y="532.4"/>
      <point x="286.6" y="532.4" type="curve" smooth="yes"/>
      <point x="110.0" y="532.4"/>
      <point x="29.799999999999997" y="438.4"/>
      <point x="29.799999999999997" y="251.79999999999998" type="curve" smooth="yes"/>
      <point x="29.799999999999997" y="75.4"/>
      <point x="114.39999999999999" y="-10.0"/>
      <point x="283.4" y="-10.0" type="curve" smooth="yes"/>
      <point x="492.4" y="-10.0"/>
      <point x="569.9999999999999" y="87.80000000000001"/>
      <point x="569.9999999999999" y="354.4" type="curve" smooth="yes"/>
      <point x="569.9999999999999" y="614.8000000000001"/>
      <point x="449.2" y="740.4"/>
      <point x="227.6" y="740.4" type="curve" smooth="yes"/>
      <point x="162.60000000000002" y="740.4"/>
      <point x="102.6" y="729.6"/>
      <point x="40.0" y="711.6000000000001" type="curve"/>
      <point x="54.6" y="615.4" type="line"/>
      <point x="106.0" y="628.0"/>
      <point x="147.0" y="637.2"/>
      <point x="195.2" y="637.2" type="curve" smooth="yes"/>
      <point x="362.4" y="637.2"/>
      <point x="424.8" y="573.8"/>
      <point x="424.8" y="368.8" type="curve" smooth="yes"/>
      <point x="424.8" y="143.4"/>
      <point x="386.59999999999997" y="99.0"/>
      <point x="294.0" y="99.0" type="curve" smooth="yes"/>
      <point x="217.0" y="99.0"/>
      <point x="178.4" y="139.2"/>
      <point x="178.4" y="253.2" type="curve" smooth="yes"/>
      <point x="178.4" y="391.6"/>
      <point x="226.2" y="427.2"/>
      <point x="311.2" y="427.2" type="curve" smooth="yes"/>
      <point x="360.6" y="427.2"/>
      <point x="402.6" y="417.40000000000003"/>
    </contour>
    <contour>
      <point x="201.6" y="557.1999999999999" type="line"/>
      <point x="378.8" y="642.8000000000001" type="line"/>
      <point x="384.0" y="649.1999999999999" type="line"/>
      <point x="555.4" y="743.2" type="line"/>
      <point x="433.79999999999995" y="743.6" type="line"/>
      <point x="322.8" y="684.4" type="line"/>
      <point x="320.00000000000006" y="678.6" type="line"/>
      <point x="81.8" y="557.6" type="line"/>
    </contour>
  </outline>
</glyph>
<glyph name="divide" format="2">
  <advance width="529.52"/>
  <unicode hex="00F7"/>
  <outline>
    <contour>
      <point x="187.32" y="120.43999999999998" type="curve" smooth="yes"/>
      <point x="187.32" y="74.6"/>
      <point x="209.84" y="53.6"/>
      <point x="264.76" y="53.6" type="curve" smooth="yes"/>
      <point x="320.2" y="53.6"/>
      <point x="342.36" y="74.6"/>
      <point x="342.36" y="120.43999999999998" type="curve" smooth="yes"/>
      <point x="342.36" y="166.24"/>
      <point x="320.2" y="187.84"/>
      <point x="264.76" y="187.84" type="curve" smooth="yes"/>
      <point x="209.24" y="187.84"/>
      <point x="187.32" y="166.24"/>
    </contour>
    <contour>
      <point x="187.32" y="508.64000000000004" type="curve" smooth="yes"/>
      <point x="187.32" y="463.4"/>
      <point x="209.84000000000003" y="441.79999999999995"/>
      <point x="264.76" y="441.79999999999995" type="curve" smooth="yes"/>
      <point x="320.2" y="441.79999999999995"/>
      <point x="342.36" y="463.4"/>
      <point x="342.36" y="508.64000000000004" type="curve" smooth="yes"/>
      <point x="342.36" y="555.04"/>
      <point x="320.2" y="576.6400000000001"/>
      <point x="264.76" y="576.6400000000001" type="curve" smooth="yes"/>
      <point x="209.24" y="576.6400000000001"/>
      <point x="187.32" y="555.04"/>
    </contour>
    <contour>
      <point x="49.080000000000005" y="249.60000000000002" type="line"/>
      <point x="480.44000000000005" y="249.60000000000002" type="line"/>
      <point x="480.44000000000005" y="380.80000000000007" type="line"/>
      <point x="49.080000000000005" y="380.80000000000007" type="line"/>
    </contour>
  </outline>
</glyph>
<glyph name="oslash" format="2">
  <advance width="610.4"/>
  <unicode hex="00F8"/>
  <anchor x="303.99999999999994" y="544.0" name="top"/>
  <outline>
    <contour>
      <point x="303.99999999999994" y="-10.0" type="curve" smooth="yes"/>
      <point x="96.8" y="-10.0"/>
      <point x="29.800000000000004" y="104.4"/>
      <point x="29.800000000000004" y="273.4" type="curve" smooth="yes"/>
      <point x="29.800000000000004" y="437.0"/>
      <point x="89.2" y="554.0"/>
      <point x="303.99999999999994" y="554.0" type="curve" smooth="yes"/>
      <point x="518.6" y="554.0"/>
      <point x="579.0" y="437.0"/>
      <point x="579.0" y="273.4" type="curve" smooth="yes"/>
      <point x="579.0" y="104.4"/>
      <point x="511.59999999999997" y="-10.0"/>
    </contour>
    <contour>
      <point x="304.0" y="105.39999999999999" type="curve" smooth="yes"/>
      <point x="399.40000000000003" y="105.39999999999999"/>
      <point x="435.6" y="142.99999999999997"/>
      <point x="435.6" y="273.4" type="curve" smooth="yes"/>
      <point x="435.6" y="399.40000000000003"/>
      <point x="404.6" y="439.0"/>
      <point x="304.0" y="439.0" type="curve" smooth="yes"/>
      <point x="202.39999999999998" y="439.0"/>
      <point x="172.2" y="399.40000000000003"/>
      <point x="172.2" y="273.4" type="curve" smooth="yes"/>
      <point x="172.2" y="142.99999999999997"/>
      <point x="208.2" y="105.39999999999999"/>
    </contour>
    <contour>
      <point x="29.0" y="-4.200000000000001" type="line"/>
      <point x="122.19999999999999" y="118.6" type="line"/>
      <point x="123.6" y="118.0" type="line"/>
      <point x="431.2" y="472.6" type="line"/>
      <point x="432.59999999999997" y="472.0" type="line"/>
      <point x="494.5999999999999" y="554.0" type="line"/>
      <point x="579.8000000000001" y="554.0" type="line"/>
      <point x="482.8" y="427.8" type="line"/>
      <point x="481.4" y="428.4" type="line"/>
      <point x="175.6" y="75.8" type="line"/>
      <point x="174.2" y="76.4" type="line"/>
      <point x="112.6" y="-4.200000000000001" type="line"/>
    </contour>
  </outline>
</glyph>
<glyph name="thorn" format="2">
  <advance width="583.8199999999999"/>
  <unicode hex="00FE"/>
  <outline>
    <contour>
      <point x="45.900000000000006" y="-210.0" type="line"/>
      <point x="208.84" y="-210.0" type="line"/>
      <point x="208.84" y="-4.599999999999999" type="line"/>
      <point x="233.95999999999998" y="-8.28"/>
      <point x="259.06" y="-10.0"/>
      <point x="282.71999999999997" y="-10.0" type="curve" smooth="yes"/>
      <point x="477.68000000000006" y="-10.0"/>
      <point x="557.4" y="72.97999999999999"/>
      <point x="557.4" y="283.08000000000004" type="curve" smooth="yes"/>
      <point x="557.4" y="462.35999999999996"/>
      <point x="488.8" y="554.0"/>
      <point x="358.28" y="554.0" type="curve" smooth="yes"/>
      <point x="311.12" y="554.0"/>
      <point x="257.91999999999996" y="540.52"/>
      <point x="209.68" y="517.46" type="curve"/>
      <point x="209.68" y="740.0" type="line"/>
      <point x="45.900000000000006" y="740.0" type="line"/>
    </contour>
    <contour>
      <point x="284.34" y="107.33999999999999" type="curve" smooth="yes"/>
      <point x="262.26" y="107.33999999999999"/>
      <point x="237.42000000000002" y="110.6"/>
      <point x="209.82" y="117.6" type="curve"/>
      <point x="209.82" y="400.32" type="line"/>
      <point x="241.95999999999998" y="412.26"/>
      <point x="269.84" y="417.72"/>
      <point x="295.64" y="417.72" type="curve" smooth="yes"/>
      <point x="357.64" y="417.72"/>
      <point x="388.15999999999997" y="376.22"/>
      <point x="388.15999999999997" y="270.34" type="curve" smooth="yes"/>
      <point x="388.15999999999997" y="146.4"/>
      <point x="356.82" y="107.33999999999999"/>
    </contour>
  </outline>
</glyph>
<glyph name="Dcroat" format="2">
  <advance width="695.32"/>
  <unicode hex="0110"/>
  <outline>
    <contour>
      <point x="6.119999999999997" y="290.28000000000003" type="line"/>
      <point x="338.24000000000007" y="290.28000000000003" type="line"/>
      <point x="338.24000000000007" y="417.2" type="line"/>
      <point x="6.119999999999997" y="417.2" type="line"/>
    </contour>
    <component base="D" xOffset="3.0799999999999996"/>
  </outline>
</glyph>
<glyph name="dcroat" format="2">
  <advance width="590.92"/>
  <unicode hex="0111"/>
  <outline>
    <contour>
      <point x="231.23999999999998" y="603.0" type="line"/>
      <point x="598.8" y="603.0" type="line"/>
      <point x="598.8" y="687.8" type="line"/>
      <point x="231.23999999999998" y="687.8" type="line"/>
    </contour>
    <component base="d"/>
  </outline>
</glyph>
<glyph name="Hbar" format="2">
  <advance width="702.58"/>
  <unicode hex="0126"/>
  <outline>
    <contour>
      <point x="14.040000000000001" y="499.94" type="line"/>
      <point x="55.94000000000001" y="499.94" type="line"/>
      <point x="55.94000000000001" y="0.0" type="line"/>
      <point x="225.04000000000002" y="0.0" type="line"/>
      <point x="225.04000000000002" y="242.14000000000001" type="line"/>
      <point x="480.34" y="242.14000000000001" type="line"/>
      <point x="480.34" y="0.0" type="line"/>
      <point x="646.64" y="0.0" type="line"/>
      <point x="646.64" y="499.94" type="line"/>
      <point x="688.54" y="499.94" type="line"/>
      <point x="688.54" y="609.46" type="line"/>
      <point x="646.64" y="609.46" type="line"/>
      <point x="646.64" y="700.0" type="line"/>
      <point x="480.34" y="700.0" type="line"/>
      <point x="480.34" y="609.46" type="line"/>
      <point x="225.04000000000002" y="609.46" type="line"/>
      <point x="225.04000000000002" y="700.0" type="line"/>
      <point x="55.94000000000001" y="700.0" type="line"/>
      <point x="55.94000000000001" y="609.46" type="line"/>
      <point x="14.040000000000001" y="609.46" type="line"/>
    </contour>
    <contour>
      <point x="225.04000000000002" y="392.86" type="line"/>
      <point x="225.04000000000002" y="499.94" type="line"/>
      <point x="480.34" y="499.94" type="line"/>
      <point x="480.34" y="392.86" type="line"/>
    </contour>
  </outline>
</glyph>
<glyph name="hbar" format="2">
  <advance width="579.16"/>
  <unicode hex="0127"/>
  <outline>
    <contour>
      <point x="-6.480000000000001" y="603.0" type="line"/>
      <point x="359.79999999999995" y="603.0" type="line"/>
      <point x="359.79999999999995" y="687.8" type="line"/>
      <point x="-6.480000000000001" y="687.8" type="line"/>
    </contour>
    <component base="h"/>
  </outline>
</glyph>
<glyph name="Idotaccent" format="2">
  <advance width="279.14"/>
  <unicode hex="0130"/>
  <outline>
    <contour>
      <point x="140.2" y="749.28" type="curve" smooth="yes"/>
      <point x="207.92" y="749.28"/>
      <point x="236.32" y="775.76"/>
      <point x="236.32" y="831.38" type="curve" smooth="yes"/>
      <point x="236.32" y="887.8399999999999"/>
      <point x="207.07999999999998" y="913.9"/>
      <point x="140.2" y="913.9" type="curve" smooth="yes"/>
      <point x="72.89999999999999" y="913.9"/>
      <point x="43.66000000000001" y="887.8399999999999"/>
      <point x="43.66000000000001" y="831.38" type="curve" smooth="yes"/>
      <point x="43.66000000000001" y="775.34"/>
      <point x="73.2" y="749.28"/>
    </contour>
    <component base="I"/>
  </outline>
</glyph>
<glyph name="dotlessi" format="2">
  <advance width="256.56"/>
  <unicode hex="0131"/>
  <anchor x="200.46" y="7.0" name="ogonek"/>
  <anchor x="129.11999999999998" y="0.0" name="bottom"/>
  <anchor x="128.28" y="544.0" name="top"/>
  <outline>
    <contour>
      <point x="45.900000000000006" y="0.0" type="line"/>
      <point x="210.66" y="0.0" type="line"/>
      <point x="210.66" y="544.0" type="line"/>
      <point x="45.900000000000006" y="544.0" type="line"/>
    </contour>
  </outline>
</glyph>
<glyph name="kgreenlandic" format="2">
  <advance width="567.4"/>
  <unicode hex="0138"/>
  <anchor x="286.2" y="544.0" name="top"/>
  <anchor x="286.2" y="0.0" name="bottom"/>
  <outline>
    <contour>
      <point x="514.8" y="-10.200000000000001" type="curve" smooth="yes"/>
      <point x="528.1999999999999" y="-10.200000000000001"/>
      <point x="539.8" y="-9.200000000000001"/>
      <point x="552.5999999999999" y="-6.800000000000001" type="curve"/>
      <point x="551.0" y="145.0" type="line"/>
      <point x="545.8000000000001" y="145.0"/>
      <point x="542.0" y="144.4"/>
      <point x="538.8" y="144.4" type="curve" smooth="yes"/>
      <point x="503.0" y="144.4"/>
      <point x="464.59999999999997" y="168.0"/>
      <point x="363.0" y="261.59999999999997" type="curve" smooth="yes"/>
      <point x="189.2" y="422.4" type="line"/>
      <point x="189.2" y="544.0" type="line"/>
      <point x="52.8" y="544.0" type="line"/>
      <point x="52.8" y="0.0" type="line"/>
      <point x="189.2" y="0.0" type="line"/>
      <point x="189.2" y="218.4" type="line"/>
      <point x="330.6" y="92.4" type="line" smooth="yes"/>
      <point x="427.6" y="4.6"/>
      <point x="465.2" y="-10.200000000000001"/>
    </contour>
    <contour>
      <point x="309.0" y="232.60000000000002" type="line"/>
      <point x="402.4" y="319.8"/>
      <point x="508.4" y="427.0"/>
      <point x="542.1999999999999" y="536.1999999999999" type="curve"/>
      <point x="401.0" y="546.4" type="line"/>
      <point x="373.6" y="447.2"/>
      <point x="297.2" y="385.6"/>
      <point x="205.4" y="305.8" type="curve"/>
    </contour>
  </outline>
</glyph>
<glyph name="Ldot" format="2">
  <advance width="557.0999999999999"/>
  <unicode hex="013F"/>
  <outline>
    <contour>
      <point x="340.32000000000005" y="402.82000000000005" type="curve" smooth="yes"/>
      <point x="340.32000000000005" y="356.02"/>
      <point x="360.9" y="334.3"/>
      <point x="415.29999999999995" y="334.3" type="curve" smooth="yes"/>
      <point x="470.4200000000001" y="334.3"/>
      <point x="490.7" y="356.02"/>
      <point x="490.7" y="402.82000000000005" type="curve" smooth="yes"/>
      <point x="490.7" y="450.32000000000005"/>
      <point x="470.4200000000001" y="472.04"/>
      <point x="415.29999999999995" y="472.04" type="curve" smooth="yes"/>
      <point x="360.6" y="472.04"/>
      <point x="340.32000000000005" y="450.32000000000005"/>
    </contour>
    <component base="L"/>
  </outline>
</glyph>
<glyph name="ldot" format="2">
  <advance width="376.0"/>
  <unicode hex="0140"/>
  <outline>
    <contour>
      <point x="322.7" y="324.62" type="curve" smooth="yes"/>
      <point x="359.2" y="324.62"/>
      <point x="375.55999999999995" y="342.14"/>
      <point x="375.55999999999995" y="384.46000000000004" type="curve" smooth="yes"/>
      <point x="375.55999999999995" y="427.20000000000005"/>
      <point x="359.2" y="444.72"/>
      <point x="322.7" y="444.72" type="curve" smooth="yes"/>
      <point x="286.62" y="444.72"/>
      <point x="270.26" y="427.20000000000005"/>
      <point x="270.26" y="384.46000000000004" type="curve" smooth="yes"/>
      <point x="270.26" y="342.14"/>
      <point x="286.9200000000001" y="324.62"/>
    </contour>
    <component base="l"/>
  </outline>
</glyph>
<glyph name="Lslash" format="2">
  <advance width="568.56"/>
  <unicode hex="0141"/>
  <outline>
    <contour>
      <point x="9.400000000000002" y="187.29999999999998" type="line"/>
      <point x="66.48" y="220.20000000000002" type="line"/>
      <point x="66.48" y="0.0" type="line"/>
      <point x="550.36" y="0.0" type="line"/>
      <point x="550.36" y="147.78000000000003" type="line"/>
      <point x="236.0" y="147.78000000000003" type="line"/>
      <point x="236.0" y="301.06" type="line"/>
      <point x="419.24" y="402.1" type="line"/>
      <point x="419.24" y="546.58" type="line"/>
      <point x="236.0" y="445.71999999999997" type="line"/>
      <point x="236.0" y="700.0" type="line"/>
      <point x="66.48" y="700.0" type="line"/>
      <point x="66.48" y="364.86" type="line"/>
      <point x="9.400000000000002" y="331.96000000000004" type="line"/>
    </contour>
  </outline>
</glyph>
<glyph name="lslash" format="2">
  <advance width="334.84"/>
  <unicode hex="0142"/>
  <outline>
    <contour>
      <point x="203.62" y="-10.0" type="curve" smooth="yes"/>
      <point x="250.94" y="-10.0"/>
      <point x="297.44" y="1.1199999999999992"/>
      <point x="331.92" y="13.78" type="curve"/>
      <point x="317.00000000000006" y="148.82" type="line"/>
      <point x="294.72" y="144.14"/>
      <point x="276.24" y="141.17999999999998"/>
      <point x="261.44" y="141.17999999999998" type="curve" smooth="yes"/>
      <point x="235.66000000000003" y="141.17999999999998"/>
      <point x="217.66" y="152.43999999999997"/>
      <point x="217.66" y="205.78000000000003" type="curve" smooth="yes"/>
      <point x="217.66" y="323.3" type="line"/>
      <point x="306.0" y="387.38" type="line"/>
      <point x="306.0" y="514.0" type="line"/>
      <point x="217.66" y="449.9200000000001" type="line"/>
      <point x="217.66" y="740.0" type="line"/>
      <point x="54.16" y="740.0" type="line"/>
      <point x="54.16" y="343.21999999999997" type="line"/>
      <point x="4.140000000000002" y="306.38" type="line"/>
      <point x="4.140000000000002" y="179.94" type="line"/>
      <point x="54.72" y="216.88" type="line"/>
      <point x="55.279999999999994" y="162.24" type="line" smooth="yes"/>
      <point x="60.03999999999999" y="33.26"/>
      <point x="108.69999999999999" y="-10.0"/>
    </contour>
  </outline>
</glyph>
<glyph name="Eng" format="2">
  <advance width="685.3"/>
  <unicode hex="014A"/>
  <outline>
    <contour>
      <point x="55.0" y="0.0" type="line"/>
      <point x="205.89999999999998" y="0.0" type="line"/>
      <point x="205.89999999999998" y="430.8" type="line"/>
      <point x="470.99999999999994" y="2.4000000000000004" type="line"/>
      <point x="470.99999999999994" y="-5.300000000000001" type="line" smooth="yes"/>
      <point x="470.4" y="-44.2"/>
      <point x="439.00000000000006" y="-62.400000000000006"/>
      <point x="387.5" y="-62.400000000000006" type="curve" smooth="yes"/>
      <point x="364.9" y="-62.400000000000006"/>
      <point x="337.0" y="-59.5"/>
      <point x="306.8" y="-51.7" type="curve"/>
      <point x="280.3" y="-181.3" type="line"/>
      <point x="318.9" y="-194.29999999999998"/>
      <point x="362.5" y="-203.49999999999997"/>
      <point x="414.1" y="-203.49999999999997" type="curve" smooth="yes"/>
      <point x="547.0" y="-203.49999999999997"/>
      <point x="630.3" y="-140.39999999999998"/>
      <point x="630.3" y="-12.799999999999999" type="curve" smooth="yes"/>
      <point x="630.3" y="700.0" type="line"/>
      <point x="480.80000000000007" y="700.0" type="line"/>
      <point x="480.80000000000007" y="260.79999999999995" type="line"/>
      <point x="214.79999999999998" y="701.2" type="line"/>
      <point x="55.0" y="701.2" type="line"/>
    </contour>
  </outline>
</glyph>
<glyph name="eng" format="2">
  <advance width="579.04"/>
  <unicode hex="014B"/>
  <outline>
    <contour>
      <point x="533.9800000000001" y="27.5" type="curve"/>
      <point x="533.9800000000001" y="399.82" type="line" smooth="yes"/>
      <point x="533.9800000000001" y="491.72"/>
      <point x="482.08" y="554.0"/>
      <point x="374.94000000000005" y="554.0" type="curve" smooth="yes"/>
      <point x="308.12" y="554.0"/>
      <point x="255.83999999999997" y="533.24"/>
      <point x="194.0" y="496.85999999999996" type="curve"/>
      <point x="194.0" y="544.0" type="line"/>
      <point x="45.900000000000006" y="544.0" type="line"/>
      <point x="45.900000000000006" y="0.0" type="line"/>
      <point x="209.82" y="0.0" type="line"/>
      <point x="209.82" y="389.76" type="line"/>
      <point x="243.01999999999998" y="405.15999999999997"/>
      <point x="272.26000000000005" y="416.62"/>
      <point x="305.22" y="416.62" type="curve" smooth="yes"/>
      <point x="347.52" y="416.62"/>
      <point x="370.06000000000006" y="393.49999999999994"/>
      <point x="370.06000000000006" y="344.38" type="curve" smooth="yes"/>
      <point x="370.06000000000006" y="25.619999999999997" type="line" smooth="yes"/>
      <point x="370.06000000000006" y="-28.020000000000003"/>
      <point x="356.42" y="-53.220000000000006"/>
      <point x="329.92" y="-62.820000000000014" type="curve" smooth="yes"/>
      <point x="322.91999999999996" y="-64.44000000000001"/>
      <point x="313.53999999999996" y="-64.78000000000002"/>
      <point x="305.54" y="-64.82000000000001" type="curve"/>
      <point x="299.68" y="-210.88000000000002" type="line"/>
      <point x="320.48" y="-213.28"/>
      <point x="341.38" y="-213.16"/>
      <point x="363.58000000000004" y="-211.35999999999999" type="curve" smooth="yes"/>
      <point x="468.67999999999995" y="-200.5"/>
      <point x="533.9800000000001" y="-113.94"/>
    </contour>
  </outline>
</glyph>
<glyph name="OE" format="2">
  <advance width="1011.12"/>
  <unicode hex="0152"/>
  <outline>
    <contour>
      <point x="985.7600000000001" y="0.0" type="line"/>
      <point x="985.7600000000001" y="142.72" type="line"/>
      <point x="636.5600000000001" y="142.72" type="line"/>
      <point x="636.5600000000001" y="288.12" type="line"/>
      <point x="942.6400000000001" y="288.12" type="line"/>
      <point x="942.6400000000001" y="423.84000000000003" type="line"/>
      <point x="636.5600000000001" y="423.84000000000003" type="line"/>
      <point x="636.5600000000001" y="556.68" type="line"/>
      <point x="967.68" y="556.68" type="line"/>
      <point x="967.68" y="700.0" type="line"/>
      <point x="615.32" y="700.0" type="line"/>
      <point x="534.6400000000001" y="705.56"/>
      <point x="456.08" y="708.8000000000001"/>
      <point x="364.28000000000003" y="708.8000000000001" type="curve" smooth="yes"/>
      <point x="135.68" y="708.8000000000001"/>
      <point x="30.120000000000005" y="596.4399999999999"/>
      <point x="30.120000000000005" y="354.32" type="curve" smooth="yes"/>
      <point x="30.120000000000005" y="77.84"/>
      <point x="148.68000000000004" y="-9.4"/>
      <point x="372.72" y="-9.4" type="curve" smooth="yes"/>
      <point x="465.08000000000004" y="-9.4"/>
      <point x="547.24" y="-6.720000000000001"/>
      <point x="636.32" y="0.0" type="curve"/>
    </contour>
    <contour>
      <point x="467.76" y="128.64" type="line"/>
      <point x="444.35999999999996" y="126.63999999999999"/>
      <point x="404.36" y="124.03999999999998"/>
      <point x="358.76" y="124.03999999999998" type="curve" smooth="yes"/>
      <point x="271.71999999999997" y="124.03999999999998"/>
      <point x="204.99999999999997" y="173.23999999999998"/>
      <point x="204.99999999999997" y="351.68" type="curve" smooth="yes"/>
      <point x="204.99999999999997" y="527.16"/>
      <point x="270.68" y="575.32"/>
      <point x="353.88" y="575.32" type="curve" smooth="yes"/>
      <point x="390.6" y="575.32"/>
      <point x="436.2800000000001" y="571.9599999999999"/>
      <point x="467.76" y="569.9599999999999" type="curve"/>
    </contour>
  </outline>
</glyph>
<glyph name="oe" format="2">
  <advance width="919.3399999999999"/>
  <unicode hex="0153"/>
  <outline>
    <contour>
      <point x="26.42" y="273.42" type="curve" smooth="yes"/>
      <point x="26.42" y="92.62"/>
      <point x="94.48" y="-10.0"/>
      <point x="290.64" y="-10.0" type="curve" smooth="yes"/>
      <point x="376.94" y="-10.0"/>
      <point x="432.82" y="16.580000000000002"/>
      <point x="469.1" y="63.28000000000001" type="curve"/>
      <point x="513.12" y="18.880000000000003"/>
      <point x="572.4" y="-10.0"/>
      <point x="660.92" y="-10.0" type="curve" smooth="yes"/>
      <point x="749.14" y="-10.0"/>
      <point x="819.0400000000001" y="0.6000000000000005"/>
      <point x="887.6999999999999" y="22.439999999999998" type="curve"/>
      <point x="868.16" y="146.86" type="line"/>
      <point x="798.7" y="131.5"/>
      <point x="725.4200000000001" y="121.84"/>
      <point x="678.86" y="121.84" type="curve" smooth="yes"/>
      <point x="595.86" y="121.84"/>
      <point x="553.86" y="146.44"/>
      <point x="553.86" y="212.86" type="curve" smooth="yes"/>
      <point x="553.86" y="216.89999999999998"/>
      <point x="553.58" y="224.54"/>
      <point x="554.3000000000001" y="230.57999999999998" type="curve"/>
      <point x="696.82" y="234.07999999999998"/>
      <point x="828.84" y="245.96"/>
      <point x="889.28" y="250.10000000000002" type="curve"/>
      <point x="889.98" y="265.46"/>
      <point x="890.98" y="287.38"/>
      <point x="890.98" y="303.16" type="curve" smooth="yes"/>
      <point x="890.98" y="472.36"/>
      <point x="820.78" y="554.0"/>
      <point x="651.96" y="554.0" type="curve" smooth="yes"/>
      <point x="578.08" y="554.0"/>
      <point x="518.62" y="520.4599999999999"/>
      <point x="477.58000000000004" y="471.7" type="curve"/>
      <point x="437.98" y="525.78"/>
      <point x="380.76" y="554.0"/>
      <point x="290.64" y="554.0" type="curve" smooth="yes"/>
      <point x="87.2" y="554.0"/>
      <point x="26.42" y="448.21999999999997"/>
    </contour>
    <contour>
      <point x="194.26" y="273.14" type="curve" smooth="yes"/>
      <point x="194.26" y="392.73999999999995"/>
      <point x="217.35999999999999" y="431.12"/>
      <point x="290.35999999999996" y="431.12" type="curve" smooth="yes"/>
      <point x="362.22" y="431.12"/>
      <point x="385.46" y="392.73999999999995"/>
      <point x="385.46" y="273.14" type="curve" smooth="yes"/>
      <point x="385.46" y="149.94"/>
      <point x="359.3" y="113.3"/>
      <point x="290.35999999999996" y="113.3" type="curve" smooth="yes"/>
      <point x="220.99999999999997" y="113.3"/>
      <point x="194.26" y="149.94"/>
    </contour>
    <contour>
      <point x="554.46" y="320.26" type="curve"/>
      <point x="564.04" y="420.88"/>
      <point x="602.1800000000001" y="438.82000000000005"/>
      <point x="646.22" y="438.82000000000005" type="curve" smooth="yes"/>
      <point x="694.72" y="438.82000000000005"/>
      <point x="721.74" y="411.06"/>
      <point x="725.94" y="327.44" type="curve"/>
      <point x="694.76" y="324.82"/>
      <point x="626.0" y="320.53999999999996"/>
    </contour>
  </outline>
</glyph>
<glyph name="uni0162" format="2">
  <advance width="606.6800000000001"/>
  <unicode hex="0162"/>
  <outline>
    <contour>
      <point x="187.14000000000001" y="-109.4" type="curve"/>
      <point x="183.66" y="-205.96" type="line"/>
      <point x="216.20000000000002" y="-216.24"/>
      <point x="244.9" y="-220.0"/>
      <point x="270.85999999999996" y="-220.0" type="curve" smooth="yes"/>
      <point x="366.92" y="-220.0"/>
      <point x="401.96000000000004" y="-167.96"/>
      <point x="401.96000000000004" y="-104.88" type="curve" smooth="yes"/>
      <point x="401.96000000000004" y="-68.55999999999999"/>
      <point x="383.75999999999993" y="-21.92"/>
      <point x="362.1" y="5.919999999999999" type="curve"/>
      <point x="246.29999999999998" y="5.319999999999999" type="line"/>
      <point x="266.68" y="-18.939999999999998"/>
      <point x="283.06" y="-49.32000000000001"/>
      <point x="283.06" y="-72.12" type="curve" smooth="yes"/>
      <point x="283.06" y="-101.76"/>
      <point x="264.32" y="-117.52000000000001"/>
      <point x="232.9" y="-117.52000000000001" type="curve" smooth="yes"/>
      <point x="220.38000000000002" y="-117.52000000000001"/>
      <point x="204.7" y="-114.84"/>
    </contour>
    <component base="T"/>
  </outline>
</glyph>
